<?xml version="1.0" encoding="UTF-8" standalone="no"?>
<!DOCTYPE svg PUBLIC "-//W3C//DTD SVG 1.1//EN"
 "http://www.w3.org/Graphics/SVG/1.1/DTD/svg11.dtd">
<!-- Generated by graphviz version 2.38.0 (20140413.2041)
 -->
<!-- Title: ml Pages: 1 -->
<svg width="466pt" height="257pt"
 viewBox="0.00 0.00 466.00 257.00" xmlns="http://www.w3.org/2000/svg" xmlns:xlink="http://www.w3.org/1999/xlink">
<g id="graph0" class="graph" transform="scale(1 1) rotate(0) translate(4 253)">
<title>ml</title>
<polygon fill="white" stroke="none" points="-4,4 -4,-253 462,-253 462,4 -4,4"/>
<!-- ndError -->
<g id="node1" class="node"><title>ndError</title>
<g id="a_node1_0"><a xlink:href="https://github.com/meilisearch/meilisearch//blob/master/src/lib.rs#:~:text=enum%20Error" xlink:title="&lt;TABLE&gt;">
<polygon fill="yellow" stroke="none" points="9,-206.5 9,-243.5 251,-243.5 251,-206.5 9,-206.5"/>
<polygon fill="none" stroke="black" points="9,-206.5 9,-243.5 251,-243.5 251,-206.5 9,-206.5"/>
<text text-anchor="start" x="111.5" y="-222.3" font-family="Arial" font-weight="bold" font-size="14.00">Error</text>
<polygon fill="white" stroke="none" points="9,-124.5 9,-206.5 251,-206.5 251,-124.5 9,-124.5"/>
<polygon fill="none" stroke="black" points="9,-124.5 9,-206.5 251,-206.5 251,-124.5 9,-124.5"/>
<text text-anchor="start" x="20" y="-184.3" font-family="Arial" font-size="14.00">CouldNotParseFileNameAsUtf8</text>
<text text-anchor="start" x="20" y="-169.3" font-family="Arial" font-size="14.00">IoError(std::io::Error)</text>
<text text-anchor="start" x="20" y="-154.3" font-family="Arial" font-size="14.00">PersistError(tempfile::PersistError)</text>
<text text-anchor="start" x="20" y="-139.3" font-family="Arial" font-size="14.00">UuidError(uuid::Error)</text>
<polygon fill="none" stroke="black" points="8,-124 8,-245 252,-245 252,-124 8,-124"/>
</a>
</g>
</g>
<!-- ndFileStore -->
<g id="node2" class="node"><title>ndFileStore</title>
<g id="a_node2_1"><a xlink:href="https://github.com/meilisearch/meilisearch//blob/master/src/lib.rs#:~:text=struct%20FileStore" xlink:title="&lt;TABLE&gt;">
<polygon fill="lightblue" stroke="none" points="310,-42 310,-79 426,-79 426,-42 310,-42"/>
<polygon fill="none" stroke="black" points="310,-42 310,-79 426,-79 426,-42 310,-42"/>
<text text-anchor="start" x="336.5" y="-57.8" font-family="Arial" font-weight="bold" font-size="14.00">FileStore</text>
<polygon fill="white" stroke="none" points="310,-5 310,-42 426,-42 426,-5 310,-5"/>
<polygon fill="none" stroke="black" points="310,-5 310,-42 426,-42 426,-5 310,-5"/>
<text text-anchor="start" x="321" y="-19.8" font-family="Arial" font-size="14.00">&#45; path: PathBuf</text>
<polygon fill="none" stroke="black" points="309,-4 309,-80 427,-80 427,-4 309,-4"/>
</a>
</g>
</g>
<!-- ndFile -->
<g id="node3" class="node"><title>ndFile</title>
<g id="a_node3_2"><a xlink:href="https://github.com/meilisearch/meilisearch//blob/master/src/lib.rs#:~:text=struct%20File" xlink:title="&lt;TABLE&gt;">
<polygon fill="lightblue" stroke="none" points="287,-191.5 287,-228.5 449,-228.5 449,-191.5 287,-191.5"/>
<polygon fill="none" stroke="black" points="287,-191.5 287,-228.5 449,-228.5 449,-191.5 287,-191.5"/>
<text text-anchor="start" x="355.5" y="-207.3" font-family="Arial" font-weight="bold" font-size="14.00">File</text>
<polygon fill="white" stroke="none" points="287,-139.5 287,-191.5 449,-191.5 449,-139.5 287,-139.5"/>
<polygon fill="none" stroke="black" points="287,-139.5 287,-191.5 449,-191.5 449,-139.5 287,-139.5"/>
<text text-anchor="start" x="298" y="-169.3" font-family="Arial" font-size="14.00">&#45; path: PathBuf</text>
<text text-anchor="start" x="298" y="-154.3" font-family="Arial" font-size="14.00">&#45; file: NamedTempFile</text>
<polygon fill="none" stroke="black" points="286,-139 286,-230 450,-230 450,-139 286,-139"/>
</a>
</g>
</g>
<!-- ndFile&#45;&gt;ndFileStore -->
<g id="edge1" class="edge"><title>ndFile&#45;&gt;ndFileStore</title>
<path fill="none" stroke="black" d="M368,-134.754C368,-121.746 368,-107.649 368,-94.4985"/>
<polygon fill="black" stroke="black" points="368,-84.1935 372.5,-94.1934 368,-89.1935 368,-94.1935 368,-94.1935 368,-94.1935 368,-89.1935 363.5,-94.1935 368,-84.1935 368,-84.1935"/>
</g>
</g>
</svg>
