<?xml version="1.0" encoding="UTF-8" standalone="no"?>
<!DOCTYPE svg PUBLIC "-//W3C//DTD SVG 1.1//EN"
 "http://www.w3.org/Graphics/SVG/1.1/DTD/svg11.dtd">
<!-- Generated by graphviz version 2.38.0 (20140413.2041)
 -->
<!-- Title: ml Pages: 1 -->
<svg width="618pt" height="436pt"
 viewBox="0.00 0.00 618.00 436.00" xmlns="http://www.w3.org/2000/svg" xmlns:xlink="http://www.w3.org/1999/xlink">
<g id="graph0" class="graph" transform="scale(1 1) rotate(0) translate(4 432)">
<title>ml</title>
<polygon fill="white" stroke="none" points="-4,4 -4,-432 614,-432 614,4 -4,4"/>
<!-- ndError -->
<g id="node1" class="node"><title>ndError</title>
<g id="a_node1_0"><a xlink:href="https://github.com/meilisearch/meilisearch//blob/master/src/lib.rs#:~:text=enum%20Error" xlink:title="&lt;TABLE&gt;">
<polygon fill="yellow" stroke="none" points="9,-382 9,-419 251,-419 251,-382 9,-382"/>
<polygon fill="none" stroke="black" points="9,-382 9,-419 251,-419 251,-382 9,-382"/>
<text text-anchor="start" x="111.5" y="-397.8" font-family="Arial" font-weight="bold" font-size="14.00">Error</text>
<polygon fill="white" stroke="none" points="9,-300 9,-382 251,-382 251,-300 9,-300"/>
<polygon fill="none" stroke="black" points="9,-300 9,-382 251,-382 251,-300 9,-300"/>
<text text-anchor="start" x="20" y="-359.8" font-family="Arial" font-size="14.00">CouldNotParseFileNameAsUtf8</text>
<text text-anchor="start" x="20" y="-344.8" font-family="Arial" font-size="14.00">IoError(std::io::Error)</text>
<text text-anchor="start" x="20" y="-329.8" font-family="Arial" font-size="14.00">PersistError(tempfile::PersistError)</text>
<text text-anchor="start" x="20" y="-314.8" font-family="Arial" font-size="14.00">UuidError(uuid::Error)</text>
<polygon fill="none" stroke="black" points="8,-299.5 8,-420.5 252,-420.5 252,-299.5 8,-299.5"/>
</a>
</g>
</g>
<!-- ndFileStore -->
<g id="node2" class="node"><title>ndFileStore</title>
<g id="a_node2_1"><a xlink:href="https://github.com/meilisearch/meilisearch//blob/master/src/lib.rs#:~:text=struct%20FileStore" xlink:title="&lt;TABLE&gt;">
<polygon fill="lightblue" stroke="none" points="165,-214 165,-251 601,-251 601,-214 165,-214"/>
<polygon fill="none" stroke="black" points="165,-214 165,-251 601,-251 601,-214 165,-214"/>
<text text-anchor="start" x="351.5" y="-229.8" font-family="Arial" font-weight="bold" font-size="14.00">FileStore</text>
<polygon fill="white" stroke="none" points="165,-177 165,-214 601,-214 601,-177 165,-177"/>
<polygon fill="none" stroke="black" points="165,-177 165,-214 601,-214 601,-177 165,-177"/>
<text text-anchor="start" x="176" y="-191.8" font-family="Arial" font-size="14.00">&#45; path: PathBuf</text>
<polygon fill="white" stroke="none" points="165,-5 165,-177 601,-177 601,-5 165,-5"/>
<polygon fill="none" stroke="black" points="165,-5 165,-177 601,-177 601,-5 165,-5"/>
<text text-anchor="start" x="176" y="-154.8" font-family="Arial" font-size="14.00">&#45; new(path: impl AsRef&lt;Path&gt;) &#45;&gt; Result&lt;FileStore&gt;</text>
<text text-anchor="start" x="176" y="-139.8" font-family="Arial" font-size="14.00">&#45; new_update(&amp;self) &#45;&gt; Result&lt;(Uuid, File)&gt;</text>
<text text-anchor="start" x="176" y="-124.8" font-family="Arial" font-size="14.00">&#45; new_update_with_uuid(&amp;self, uuid: u128) &#45;&gt; Result&lt;(Uuid, File)&gt;</text>
<text text-anchor="start" x="176" y="-109.8" font-family="Arial" font-size="14.00">&#45; get_update(&amp;self, uuid: Uuid) &#45;&gt; Result&lt;StdFile&gt;</text>
<text text-anchor="start" x="176" y="-94.8" font-family="Arial" font-size="14.00">&#45; get_update_path(&amp;self, uuid: Uuid) &#45;&gt; PathBuf</text>
<text text-anchor="start" x="176" y="-79.8" font-family="Arial" font-size="14.00">&#45; snapshot(&amp;self, uuid: Uuid, dst: impl AsRef&lt;Path&gt;) &#45;&gt; Result&lt;()&gt;</text>
<text text-anchor="start" x="176" y="-64.8" font-family="Arial" font-size="14.00">&#45; compute_total_size(&amp;self) &#45;&gt; Result&lt;u64&gt;</text>
<text text-anchor="start" x="176" y="-49.8" font-family="Arial" font-size="14.00">&#45; compute_size(&amp;self, uuid: Uuid) &#45;&gt; Result&lt;u64&gt;</text>
<text text-anchor="start" x="176" y="-34.8" font-family="Arial" font-size="14.00">&#45; delete(&amp;self, uuid: Uuid) &#45;&gt; Result&lt;()&gt;</text>
<text text-anchor="start" x="176" y="-19.8" font-family="Arial" font-size="14.00">&#45; all_uuids(&amp;self) &#45;&gt; Result&lt;impl Iterator&lt;Item = Result&lt;Uuid&gt;&gt;&gt;</text>
<polygon fill="none" stroke="black" points="164,-4 164,-252 602,-252 602,-4 164,-4"/>
</a>
</g>
</g>
<!-- ndFile -->
<g id="node3" class="node"><title>ndFile</title>
<g id="a_node3_2"><a xlink:href="https://github.com/meilisearch/meilisearch//blob/master/src/lib.rs#:~:text=struct%20File" xlink:title="&lt;TABLE&gt;">
<polygon fill="lightblue" stroke="none" points="287,-386 287,-423 479,-423 479,-386 287,-386"/>
<polygon fill="none" stroke="black" points="287,-386 287,-423 479,-423 479,-386 287,-386"/>
<text text-anchor="start" x="370.5" y="-401.8" font-family="Arial" font-weight="bold" font-size="14.00">File</text>
<polygon fill="white" stroke="none" points="287,-334 287,-386 479,-386 479,-334 287,-334"/>
<polygon fill="none" stroke="black" points="287,-334 287,-386 479,-386 479,-334 287,-334"/>
<text text-anchor="start" x="298" y="-363.8" font-family="Arial" font-size="14.00">&#45; path: PathBuf</text>
<text text-anchor="start" x="298" y="-348.8" font-family="Arial" font-size="14.00">&#45; file: NamedTempFile</text>
<polygon fill="white" stroke="none" points="287,-297 287,-334 479,-334 479,-297 287,-297"/>
<polygon fill="none" stroke="black" points="287,-297 287,-334 479,-334 479,-297 287,-297"/>
<text text-anchor="start" x="298" y="-311.8" font-family="Arial" font-size="14.00">&#45; persist(self) &#45;&gt; Result&lt;()&gt;</text>
<polygon fill="none" stroke="black" points="286,-296 286,-424 480,-424 480,-296 286,-296"/>
</a>
</g>
</g>
<!-- ndFile&#45;&gt;ndFileStore -->
<g id="edge1" class="edge"><title>ndFile&#45;&gt;ndFileStore</title>
<path fill="none" stroke="black" d="M383,-291.856C383,-283.756 383,-275.269 383,-266.605"/>
<polygon fill="black" stroke="black" points="383,-256.364 387.5,-266.364 383,-261.364 383,-266.364 383,-266.364 383,-266.364 383,-261.364 378.5,-266.364 383,-256.364 383,-256.364"/>
</g>
</g>
</svg>
