<?xml version="1.0" encoding="UTF-8" standalone="no"?>
<!DOCTYPE svg PUBLIC "-//W3C//DTD SVG 1.1//EN"
 "http://www.w3.org/Graphics/SVG/1.1/DTD/svg11.dtd">
<!-- Generated by graphviz version 2.38.0 (20140413.2041)
 -->
<!-- Title: ml Pages: 1 -->
<svg width="187pt" height="138pt"
 viewBox="0.00 0.00 187.00 138.00" xmlns="http://www.w3.org/2000/svg" xmlns:xlink="http://www.w3.org/1999/xlink">
<g id="graph0" class="graph" transform="scale(1 1) rotate(0) translate(4 134)">
<title>ml</title>
<polygon fill="white" stroke="none" points="-4,4 -4,-134 183,-134 183,4 -4,4"/>
<!-- ndError -->
<g id="node1" class="node"><title>ndError</title>
<g id="a_node1_0"><a xlink:href="https://github.com/meilisearch/meilisearch//blob/master/src/lib.rs#:~:text=enum%20Error" xlink:title="&lt;TABLE&gt;">
<polygon fill="yellow" stroke="none" points="9.5,-87.5 9.5,-124.5 68.5,-124.5 68.5,-87.5 9.5,-87.5"/>
<polygon fill="none" stroke="black" points="9.5,-87.5 9.5,-124.5 68.5,-124.5 68.5,-87.5 9.5,-87.5"/>
<text text-anchor="start" x="20.5" y="-103.3" font-family="Arial" font-weight="bold" font-size="14.00">Error</text>
<polygon fill="none" stroke="black" points="8,-87 8,-126 69,-126 69,-87 8,-87"/>
</a>
</g>
</g>
<!-- ndFileStore -->
<g id="node2" class="node"><title>ndFileStore</title>
<g id="a_node2_1"><a xlink:href="https://github.com/meilisearch/meilisearch//blob/master/src/lib.rs#:~:text=struct%20FileStore" xlink:title="&lt;TABLE&gt;">
<polygon fill="lightblue" stroke="none" points="85.5,-4.5 85.5,-41.5 170.5,-41.5 170.5,-4.5 85.5,-4.5"/>
<polygon fill="none" stroke="black" points="85.5,-4.5 85.5,-41.5 170.5,-41.5 170.5,-4.5 85.5,-4.5"/>
<text text-anchor="start" x="96.5" y="-20.3" font-family="Arial" font-weight="bold" font-size="14.00">FileStore</text>
<polygon fill="none" stroke="black" points="84,-4 84,-43 171,-43 171,-4 84,-4"/>
</a>
</g>
</g>
<!-- ndFile -->
<g id="node3" class="node"><title>ndFile</title>
<g id="a_node3_2"><a xlink:href="https://github.com/meilisearch/meilisearch//blob/master/src/lib.rs#:~:text=struct%20File" xlink:title="&lt;TABLE&gt;">
<polygon fill="lightblue" stroke="none" points="104.5,-87.5 104.5,-124.5 151.5,-124.5 151.5,-87.5 104.5,-87.5"/>
<polygon fill="none" stroke="black" points="104.5,-87.5 104.5,-124.5 151.5,-124.5 151.5,-87.5 104.5,-87.5"/>
<text text-anchor="start" x="115.5" y="-103.3" font-family="Arial" font-weight="bold" font-size="14.00">File</text>
<polygon fill="none" stroke="black" points="103,-87 103,-126 152,-126 152,-87 103,-87"/>
</a>
</g>
</g>
<!-- ndFile&#45;&gt;ndFileStore -->
<g id="edge1" class="edge"><title>ndFile&#45;&gt;ndFileStore</title>
<path fill="none" stroke="black" d="M127.5,-82.937C127.5,-75.0164 127.5,-65.9488 127.5,-57.3574"/>
<polygon fill="black" stroke="black" points="127.5,-47.2229 132,-57.2229 127.5,-52.2229 127.5,-57.2229 127.5,-57.2229 127.5,-57.2229 127.5,-52.2229 123,-57.223 127.5,-47.2229 127.5,-47.2229"/>
</g>
</g>
</svg>
