<?xml version="1.0" encoding="UTF-8" standalone="no"?>
<!DOCTYPE svg PUBLIC "-//W3C//DTD SVG 1.1//EN"
 "http://www.w3.org/Graphics/SVG/1.1/DTD/svg11.dtd">
<!-- Generated by graphviz version 2.38.0 (20140413.2041)
 -->
<!-- Title: ml Pages: 1 -->
<svg width="906pt" height="1336pt"
 viewBox="0.00 0.00 905.50 1336.00" xmlns="http://www.w3.org/2000/svg" xmlns:xlink="http://www.w3.org/1999/xlink">
<g id="graph0" class="graph" transform="scale(1 1) rotate(0) translate(4 1332)">
<title>ml</title>
<polygon fill="white" stroke="none" points="-4,4 -4,-1332 901.5,-1332 901.5,4 -4,4"/>
<!-- ndToken -->
<g id="node1" class="node"><title>ndToken</title>
<g id="a_node1_0"><a xlink:href="https://github.com/meilisearch/meilisearch//blob/master/src/lib.rs#:~:text=struct%20Token" xlink:title="&lt;TABLE&gt;">
<polygon fill="lightblue" stroke="none" points="9,-453.5 9,-490.5 443,-490.5 443,-453.5 9,-453.5"/>
<polygon fill="none" stroke="black" points="9,-453.5 9,-490.5 443,-490.5 443,-453.5 9,-453.5"/>
<text text-anchor="start" x="204" y="-469.3" font-family="Arial" font-weight="bold" font-size="14.00">Token</text>
<polygon fill="white" stroke="none" points="9,-401.5 9,-453.5 443,-453.5 443,-401.5 9,-401.5"/>
<polygon fill="none" stroke="black" points="9,-401.5 9,-453.5 443,-453.5 443,-401.5 9,-401.5"/>
<text text-anchor="start" x="20" y="-431.3" font-family="Arial" font-size="14.00">&#45; span: Span&lt;&#39;a&gt;</text>
<text text-anchor="start" x="20" y="-416.3" font-family="Arial" font-size="14.00">&#45; value: Option&lt;String&gt;</text>
<polygon fill="white" stroke="none" points="9,-229.5 9,-401.5 443,-401.5 443,-229.5 9,-229.5"/>
<polygon fill="none" stroke="black" points="9,-229.5 9,-401.5 443,-401.5 443,-229.5 9,-229.5"/>
<text text-anchor="start" x="20" y="-379.3" font-family="Arial" font-size="14.00">&#45; eq(&amp;self, other: &amp;Self) &#45;&gt; bool</text>
<text text-anchor="start" x="20" y="-364.3" font-family="Arial" font-size="14.00">&#45; new(span: Span&lt;&#39;a&gt;, value: Option&lt;String&gt;) &#45;&gt; Self</text>
<text text-anchor="start" x="20" y="-349.3" font-family="Arial" font-size="14.00">&#45; lexeme(&amp;self) &#45;&gt; &amp;str</text>
<text text-anchor="start" x="20" y="-334.3" font-family="Arial" font-size="14.00">&#45; value(&amp;self) &#45;&gt; &amp;str</text>
<text text-anchor="start" x="20" y="-319.3" font-family="Arial" font-size="14.00">&#45; as_external_error(&amp;self, error: impl std::error::Error) &#45;&gt; Error&lt;&#39;a&gt;</text>
<text text-anchor="start" x="20" y="-304.3" font-family="Arial" font-size="14.00">&#45; original_span(&amp;self) &#45;&gt; Span&lt;&#39;a&gt;</text>
<text text-anchor="start" x="20" y="-289.3" font-family="Arial" font-size="14.00">&#45; parse_finite_float(&amp;self) &#45;&gt; Result&lt;f64, Error&gt;</text>
<text text-anchor="start" x="20" y="-274.3" font-family="Arial" font-size="14.00">&#45; from(span: Span&lt;&#39;a&gt;) &#45;&gt; Self</text>
<text text-anchor="start" x="20" y="-259.3" font-family="Arial" font-size="14.00">&#45; from(s: &amp;&#39;a str) &#45;&gt; Self</text>
<text text-anchor="start" x="20" y="-244.3" font-family="Arial" font-size="14.00">&#45; fmt(&amp;self, f: &amp;mut std::fmt::Formatter&lt;&#39;_&gt;) &#45;&gt; std::fmt::Result</text>
<polygon fill="none" stroke="black" points="8,-229 8,-492 444,-492 444,-229 8,-229"/>
</a>
</g>
</g>
<!-- ndCondition -->
<g id="node7" class="node"><title>ndCondition</title>
<g id="a_node7_1"><a xlink:href="https://github.com/meilisearch/meilisearch//blob/master/src/condition.rs#:~:text=enum%20Condition" xlink:title="&lt;TABLE&gt;">
<polygon fill="yellow" stroke="none" points="112,-146.5 112,-183.5 340,-183.5 340,-146.5 112,-146.5"/>
<polygon fill="none" stroke="black" points="112,-146.5 112,-183.5 340,-183.5 340,-146.5 112,-146.5"/>
<text text-anchor="start" x="192" y="-162.3" font-family="Arial" font-weight="bold" font-size="14.00">Condition</text>
<polygon fill="white" stroke="none" points="112,-4.5 112,-146.5 340,-146.5 340,-4.5 112,-4.5"/>
<polygon fill="none" stroke="black" points="112,-4.5 112,-146.5 340,-146.5 340,-4.5 112,-4.5"/>
<text text-anchor="start" x="123" y="-124.3" font-family="Arial" font-size="14.00">GreaterThan(Token&lt;&#39;a&gt;)</text>
<text text-anchor="start" x="123" y="-109.3" font-family="Arial" font-size="14.00">GreaterThanOrEqual(Token&lt;&#39;a&gt;)</text>
<text text-anchor="start" x="123" y="-94.3" font-family="Arial" font-size="14.00">Equal(Token&lt;&#39;a&gt;)</text>
<text text-anchor="start" x="123" y="-79.3" font-family="Arial" font-size="14.00">NotEqual(Token&lt;&#39;a&gt;)</text>
<text text-anchor="start" x="123" y="-64.3" font-family="Arial" font-size="14.00">Exists</text>
<text text-anchor="start" x="123" y="-49.3" font-family="Arial" font-size="14.00">LowerThan(Token&lt;&#39;a&gt;)</text>
<text text-anchor="start" x="123" y="-34.3" font-family="Arial" font-size="14.00">LowerThanOrEqual(Token&lt;&#39;a&gt;)</text>
<text text-anchor="start" x="123" y="-19.3" font-family="Arial" font-size="14.00">Between</text>
<polygon fill="none" stroke="black" points="111,-4 111,-185 341,-185 341,-4 111,-4"/>
</a>
</g>
</g>
<!-- ndToken&#45;&gt;ndCondition -->
<g id="edge1" class="edge"><title>ndToken&#45;&gt;ndCondition</title>
<path fill="none" stroke="black" d="M226,-224.793C226,-216.868 226,-208.956 226,-201.171"/>
<polygon fill="black" stroke="black" points="226,-201.059 222,-195.059 226,-189.059 230,-195.059 226,-201.059"/>
</g>
<!-- ndFilterCondition -->
<g id="node2" class="node"><title>ndFilterCondition</title>
<g id="a_node2_2"><a xlink:href="https://github.com/meilisearch/meilisearch//blob/master/src/lib.rs#:~:text=enum%20FilterCondition" xlink:title="&lt;TABLE&gt;">
<polygon fill="yellow" stroke="none" points="480,-438.5 480,-475.5 889,-475.5 889,-438.5 480,-438.5"/>
<polygon fill="none" stroke="black" points="480,-438.5 480,-475.5 889,-475.5 889,-438.5 480,-438.5"/>
<text text-anchor="start" x="633" y="-454.3" font-family="Arial" font-weight="bold" font-size="14.00">FilterCondition</text>
<polygon fill="white" stroke="none" points="480,-311.5 480,-438.5 889,-438.5 889,-311.5 480,-311.5"/>
<polygon fill="none" stroke="black" points="480,-311.5 480,-438.5 889,-438.5 889,-311.5 480,-311.5"/>
<text text-anchor="start" x="491" y="-416.3" font-family="Arial" font-size="14.00">Not(Box&lt;Self&gt;)</text>
<text text-anchor="start" x="491" y="-401.3" font-family="Arial" font-size="14.00">Condition</text>
<text text-anchor="start" x="491" y="-386.3" font-family="Arial" font-size="14.00">In</text>
<text text-anchor="start" x="491" y="-371.3" font-family="Arial" font-size="14.00">Or(Vec&lt;Self&gt;)</text>
<text text-anchor="start" x="491" y="-356.3" font-family="Arial" font-size="14.00">And(Vec&lt;Self&gt;)</text>
<text text-anchor="start" x="491" y="-341.3" font-family="Arial" font-size="14.00">GeoLowerThan</text>
<text text-anchor="start" x="491" y="-326.3" font-family="Arial" font-size="14.00">GeoBoundingBox</text>
<polygon fill="white" stroke="none" points="480,-244.5 480,-311.5 889,-311.5 889,-244.5 480,-244.5"/>
<polygon fill="none" stroke="black" points="480,-244.5 480,-311.5 889,-311.5 889,-244.5 480,-244.5"/>
<text text-anchor="start" x="491" y="-289.3" font-family="Arial" font-size="14.00">&#45; token_at_depth(&amp;self, depth: usize) &#45;&gt; Option&lt;&amp;Token&gt;</text>
<text text-anchor="start" x="491" y="-274.3" font-family="Arial" font-size="14.00">&#45; parse(input: &amp;&#39;a str) &#45;&gt; Result&lt;Option&lt;Self&gt;, Error&gt;</text>
<text text-anchor="start" x="491" y="-259.3" font-family="Arial" font-size="14.00">&#45; fmt(&amp;self, f: &amp;mut std::fmt::Formatter&lt;&#39;_&gt;) &#45;&gt; std::fmt::Result</text>
<polygon fill="none" stroke="black" points="478.5,-244 478.5,-477 889.5,-477 889.5,-244 478.5,-244"/>
</a>
</g>
</g>
<!-- ndNomErrorExt -->
<g id="node3" class="node"><title>ndNomErrorExt</title>
<g id="a_node3_3"><a xlink:href="https://github.com/meilisearch/meilisearch//blob/master/src/error.rs#:~:text=trait%20NomErrorExt" xlink:title="&lt;TABLE&gt;">
<polygon fill="lightgreen" stroke="none" points="570,-1286 570,-1323 800,-1323 800,-1286 570,-1286"/>
<polygon fill="none" stroke="black" points="570,-1286 570,-1323 800,-1323 800,-1286 570,-1286"/>
<text text-anchor="start" x="639.5" y="-1301.8" font-family="Arial" font-weight="bold" font-size="14.00">NomErrorExt</text>
<polygon fill="white" stroke="none" points="570,-1219 570,-1286 800,-1286 800,-1219 570,-1219"/>
<polygon fill="none" stroke="black" points="570,-1219 570,-1286 800,-1286 800,-1219 570,-1219"/>
<text text-anchor="start" x="581" y="-1263.8" font-family="Arial" font-size="14.00">is_failure(&amp;Self) &#45;&gt; bool</text>
<text text-anchor="start" x="581" y="-1248.8" font-family="Arial" font-size="14.00">map_err(Self, O) &#45;&gt; nom::Err&lt;E&gt;</text>
<text text-anchor="start" x="581" y="-1233.8" font-family="Arial" font-size="14.00">map_fail(Self, O) &#45;&gt; nom::Err&lt;E&gt;</text>
<polygon fill="none" stroke="black" points="569,-1218 569,-1324 801,-1324 801,-1218 569,-1218"/>
</a>
</g>
</g>
<!-- ndError -->
<g id="node4" class="node"><title>ndError</title>
<g id="a_node4_4"><a xlink:href="https://github.com/meilisearch/meilisearch//blob/master/src/error.rs#:~:text=struct%20Error" xlink:title="&lt;TABLE&gt;">
<polygon fill="lightblue" stroke="none" points="210,-746 210,-783 701,-783 701,-746 210,-746"/>
<polygon fill="none" stroke="black" points="210,-746 210,-783 701,-783 701,-746 210,-746"/>
<text text-anchor="start" x="437" y="-761.8" font-family="Arial" font-weight="bold" font-size="14.00">Error</text>
<polygon fill="white" stroke="none" points="210,-694 210,-746 701,-746 701,-694 210,-694"/>
<polygon fill="none" stroke="black" points="210,-694 210,-746 701,-746 701,-694 210,-694"/>
<text text-anchor="start" x="221" y="-723.8" font-family="Arial" font-size="14.00">&#45; context: Span&lt;&#39;a&gt;</text>
<text text-anchor="start" x="221" y="-708.8" font-family="Arial" font-size="14.00">&#45; kind: ErrorKind&lt;&#39;a&gt;</text>
<polygon fill="white" stroke="none" points="210,-537 210,-694 701,-694 701,-537 210,-537"/>
<polygon fill="none" stroke="black" points="210,-537 210,-694 701,-694 701,-537 210,-537"/>
<text text-anchor="start" x="221" y="-671.8" font-family="Arial" font-size="14.00">&#45; kind(&amp;self) &#45;&gt; &amp;ErrorKind&lt;&#39;a&gt;</text>
<text text-anchor="start" x="221" y="-656.8" font-family="Arial" font-size="14.00">&#45; context(&amp;self) &#45;&gt; &amp;Span&lt;&#39;a&gt;</text>
<text text-anchor="start" x="221" y="-641.8" font-family="Arial" font-size="14.00">&#45; new_from_kind(context: Span&lt;&#39;a&gt;, kind: ErrorKind&lt;&#39;a&gt;) &#45;&gt; Self</text>
<text text-anchor="start" x="221" y="-626.8" font-family="Arial" font-size="14.00">&#45; new_from_external(context: Span&lt;&#39;a&gt;, error: impl std::error::Error) &#45;&gt; Self</text>
<text text-anchor="start" x="221" y="-611.8" font-family="Arial" font-size="14.00">&#45; char(self) &#45;&gt; char</text>
<text text-anchor="start" x="221" y="-596.8" font-family="Arial" font-size="14.00">&#45; from_error_kind(input: Span&lt;&#39;a&gt;, kind: error::ErrorKind) &#45;&gt; Self</text>
<text text-anchor="start" x="221" y="-581.8" font-family="Arial" font-size="14.00">&#45; append(_input: Span&lt;&#39;a&gt;, _kind: error::ErrorKind, other: Self) &#45;&gt; Self</text>
<text text-anchor="start" x="221" y="-566.8" font-family="Arial" font-size="14.00">&#45; from_char(input: Span&lt;&#39;a&gt;, c: char) &#45;&gt; Self</text>
<text text-anchor="start" x="221" y="-551.8" font-family="Arial" font-size="14.00">&#45; fmt(&amp;self, f: &amp;mut std::fmt::Formatter&lt;&#39;_&gt;) &#45;&gt; std::fmt::Result</text>
<polygon fill="none" stroke="black" points="208.5,-536 208.5,-784 701.5,-784 701.5,-536 208.5,-536"/>
</a>
</g>
</g>
<!-- ndError&#45;&gt;ndToken -->
<g id="edge2" class="edge"><title>ndError&#45;&gt;ndToken</title>
<path fill="none" stroke="black" stroke-dasharray="5,2" d="M357.219,-531.97C350.167,-522.809 343.029,-513.536 335.915,-504.293"/>
<polygon fill="black" stroke="black" points="329.671,-496.182 339.337,-501.362 332.721,-500.144 335.771,-504.106 335.771,-504.106 335.771,-504.106 332.721,-500.144 332.205,-506.851 329.671,-496.182 329.671,-496.182"/>
</g>
<!-- ndError&#45;&gt;ndFilterCondition -->
<g id="edge3" class="edge"><title>ndError&#45;&gt;ndFilterCondition</title>
<path fill="none" stroke="black" d="M552.781,-531.97C563.654,-517.844 574.733,-503.451 585.614,-489.315"/>
<polygon fill="black" stroke="black" points="591.995,-481.026 589.461,-491.695 588.945,-484.988 585.895,-488.951 585.895,-488.951 585.895,-488.951 588.945,-484.988 582.329,-486.206 591.995,-481.026 591.995,-481.026"/>
</g>
<!-- ndExpectedValueKind -->
<g id="node5" class="node"><title>ndExpectedValueKind</title>
<g id="a_node5_5"><a xlink:href="https://github.com/meilisearch/meilisearch//blob/master/src/error.rs#:~:text=enum%20ExpectedValueKind" xlink:title="&lt;TABLE&gt;">
<polygon fill="yellow" stroke="none" points="376,-1278 376,-1315 534,-1315 534,-1278 376,-1278"/>
<polygon fill="none" stroke="black" points="376,-1278 376,-1315 534,-1315 534,-1278 376,-1278"/>
<text text-anchor="start" x="387" y="-1293.8" font-family="Arial" font-weight="bold" font-size="14.00">ExpectedValueKind</text>
<polygon fill="white" stroke="none" points="376,-1226 376,-1278 534,-1278 534,-1226 376,-1226"/>
<polygon fill="none" stroke="black" points="376,-1226 376,-1278 534,-1278 534,-1226 376,-1226"/>
<text text-anchor="start" x="387" y="-1255.8" font-family="Arial" font-size="14.00">ReservedKeyword</text>
<text text-anchor="start" x="387" y="-1240.8" font-family="Arial" font-size="14.00">Other</text>
<polygon fill="none" stroke="black" points="375,-1225.5 375,-1316.5 535,-1316.5 535,-1225.5 375,-1225.5"/>
</a>
</g>
</g>
<!-- ndErrorKind -->
<g id="node6" class="node"><title>ndErrorKind</title>
<g id="a_node6_6"><a xlink:href="https://github.com/meilisearch/meilisearch//blob/master/src/error.rs#:~:text=enum%20ErrorKind" xlink:title="&lt;TABLE&gt;">
<polygon fill="yellow" stroke="none" points="323,-1136 323,-1173 587,-1173 587,-1136 323,-1136"/>
<polygon fill="none" stroke="black" points="323,-1136 323,-1173 587,-1173 587,-1136 323,-1136"/>
<text text-anchor="start" x="420" y="-1151.8" font-family="Arial" font-weight="bold" font-size="14.00">ErrorKind</text>
<polygon fill="white" stroke="none" points="323,-829 323,-1136 587,-1136 587,-829 323,-829"/>
<polygon fill="none" stroke="black" points="323,-829 323,-1136 587,-1136 587,-829 323,-829"/>
<text text-anchor="start" x="334" y="-1113.8" font-family="Arial" font-size="14.00">ReservedGeo(&amp;&#39;a str)</text>
<text text-anchor="start" x="334" y="-1098.8" font-family="Arial" font-size="14.00">GeoRadius</text>
<text text-anchor="start" x="334" y="-1083.8" font-family="Arial" font-size="14.00">GeoBoundingBox</text>
<text text-anchor="start" x="334" y="-1068.8" font-family="Arial" font-size="14.00">MisusedGeoRadius</text>
<text text-anchor="start" x="334" y="-1053.8" font-family="Arial" font-size="14.00">MisusedGeoBoundingBox</text>
<text text-anchor="start" x="334" y="-1038.8" font-family="Arial" font-size="14.00">InvalidPrimary</text>
<text text-anchor="start" x="334" y="-1023.8" font-family="Arial" font-size="14.00">ExpectedEof</text>
<text text-anchor="start" x="334" y="-1008.8" font-family="Arial" font-size="14.00">ExpectedValue(ExpectedValueKind)</text>
<text text-anchor="start" x="334" y="-993.8" font-family="Arial" font-size="14.00">MalformedValue</text>
<text text-anchor="start" x="334" y="-978.8" font-family="Arial" font-size="14.00">InOpeningBracket</text>
<text text-anchor="start" x="334" y="-963.8" font-family="Arial" font-size="14.00">InClosingBracket</text>
<text text-anchor="start" x="334" y="-948.8" font-family="Arial" font-size="14.00">NonFiniteFloat</text>
<text text-anchor="start" x="334" y="-933.8" font-family="Arial" font-size="14.00">InExpectedValue(ExpectedValueKind)</text>
<text text-anchor="start" x="334" y="-918.8" font-family="Arial" font-size="14.00">ReservedKeyword(String)</text>
<text text-anchor="start" x="334" y="-903.8" font-family="Arial" font-size="14.00">MissingClosingDelimiter(char)</text>
<text text-anchor="start" x="334" y="-888.8" font-family="Arial" font-size="14.00">Char(char)</text>
<text text-anchor="start" x="334" y="-873.8" font-family="Arial" font-size="14.00">InternalError(error::ErrorKind)</text>
<text text-anchor="start" x="334" y="-858.8" font-family="Arial" font-size="14.00">DepthLimitReached</text>
<text text-anchor="start" x="334" y="-843.8" font-family="Arial" font-size="14.00">External(String)</text>
<polygon fill="none" stroke="black" points="322,-828 322,-1174 588,-1174 588,-828 322,-828"/>
</a>
</g>
</g>
<!-- ndExpectedValueKind&#45;&gt;ndErrorKind -->
<g id="edge4" class="edge"><title>ndExpectedValueKind&#45;&gt;ndErrorKind</title>
<path fill="none" stroke="black" d="M455,-1221.47C455,-1211.94 455,-1201.43 455,-1190.31"/>
<polygon fill="black" stroke="black" points="455,-1190.03 451,-1184.03 455,-1178.03 459,-1184.03 455,-1190.03"/>
</g>
<!-- ndErrorKind&#45;&gt;ndError -->
<g id="edge5" class="edge"><title>ndErrorKind&#45;&gt;ndError</title>
<path fill="none" stroke="black" stroke-dasharray="5,2" d="M455,-823.55C455,-815.737 455,-807.944 455,-800.237"/>
<polygon fill="black" stroke="black" points="455,-800.207 451,-794.207 455,-788.207 459,-794.207 455,-800.207"/>
</g>
</g>
</svg>
