<?xml version="1.0" encoding="UTF-8" standalone="no"?>
<!DOCTYPE svg PUBLIC "-//W3C//DTD SVG 1.1//EN"
 "http://www.w3.org/Graphics/SVG/1.1/DTD/svg11.dtd">
<!-- Generated by graphviz version 2.38.0 (20140413.2041)
 -->
<!-- Title: ml Pages: 1 -->
<svg width="366pt" height="387pt"
 viewBox="0.00 0.00 365.50 387.00" xmlns="http://www.w3.org/2000/svg" xmlns:xlink="http://www.w3.org/1999/xlink">
<g id="graph0" class="graph" transform="scale(1 1) rotate(0) translate(4 383)">
<title>ml</title>
<polygon fill="white" stroke="none" points="-4,4 -4,-383 361.5,-383 361.5,4 -4,4"/>
<!-- ndToken -->
<g id="node1" class="node"><title>ndToken</title>
<g id="a_node1_0"><a xlink:href="https://github.com/meilisearch/meilisearch//blob/master/src/lib.rs#:~:text=struct%20Token" xlink:title="&lt;TABLE&gt;">
<polygon fill="lightblue" stroke="none" points="21,-87.5 21,-124.5 87,-124.5 87,-87.5 21,-87.5"/>
<polygon fill="none" stroke="black" points="21,-87.5 21,-124.5 87,-124.5 87,-87.5 21,-87.5"/>
<text text-anchor="start" x="32" y="-103.3" font-family="Arial" font-weight="bold" font-size="14.00">Token</text>
<polygon fill="none" stroke="black" points="20,-87 20,-126 88,-126 88,-87 20,-87"/>
</a>
</g>
</g>
<!-- ndCondition -->
<g id="node7" class="node"><title>ndCondition</title>
<g id="a_node7_1"><a xlink:href="https://github.com/meilisearch/meilisearch//blob/master/src/condition.rs#:~:text=enum%20Condition" xlink:title="&lt;TABLE&gt;">
<polygon fill="yellow" stroke="none" points="9,-4.5 9,-41.5 99,-41.5 99,-4.5 9,-4.5"/>
<polygon fill="none" stroke="black" points="9,-4.5 9,-41.5 99,-41.5 99,-4.5 9,-4.5"/>
<text text-anchor="start" x="20" y="-20.3" font-family="Arial" font-weight="bold" font-size="14.00">Condition</text>
<polygon fill="none" stroke="black" points="8,-4 8,-43 100,-43 100,-4 8,-4"/>
</a>
</g>
</g>
<!-- ndToken&#45;&gt;ndCondition -->
<g id="edge1" class="edge"><title>ndToken&#45;&gt;ndCondition</title>
<path fill="none" stroke="black" d="M54,-82.937C54,-75.6257 54,-67.3371 54,-59.3477"/>
<polygon fill="black" stroke="black" points="54.0001,-59.2229 50,-53.223 54,-47.2229 58,-53.2229 54.0001,-59.2229"/>
</g>
<!-- ndFilterCondition -->
<g id="node2" class="node"><title>ndFilterCondition</title>
<g id="a_node2_2"><a xlink:href="https://github.com/meilisearch/meilisearch//blob/master/src/lib.rs#:~:text=enum%20FilterCondition" xlink:title="&lt;TABLE&gt;">
<polygon fill="yellow" stroke="none" points="124,-87.5 124,-124.5 249,-124.5 249,-87.5 124,-87.5"/>
<polygon fill="none" stroke="black" points="124,-87.5 124,-124.5 249,-124.5 249,-87.5 124,-87.5"/>
<text text-anchor="start" x="135" y="-103.3" font-family="Arial" font-weight="bold" font-size="14.00">FilterCondition</text>
<polygon fill="none" stroke="black" points="122.5,-87 122.5,-126 249.5,-126 249.5,-87 122.5,-87"/>
</a>
</g>
</g>
<!-- ndNomErrorExt -->
<g id="node3" class="node"><title>ndNomErrorExt</title>
<g id="a_node3_3"><a xlink:href="https://github.com/meilisearch/meilisearch//blob/master/src/error.rs#:~:text=trait%20NomErrorExt" xlink:title="&lt;TABLE&gt;">
<polygon fill="lightgreen" stroke="none" points="236,-336.5 236,-373.5 349,-373.5 349,-336.5 236,-336.5"/>
<polygon fill="none" stroke="black" points="236,-336.5 236,-373.5 349,-373.5 349,-336.5 236,-336.5"/>
<text text-anchor="start" x="247" y="-352.3" font-family="Arial" font-weight="bold" font-size="14.00">NomErrorExt</text>
<polygon fill="none" stroke="black" points="234.5,-336 234.5,-375 349.5,-375 349.5,-336 234.5,-336"/>
</a>
</g>
</g>
<!-- ndError -->
<g id="node4" class="node"><title>ndError</title>
<g id="a_node4_4"><a xlink:href="https://github.com/meilisearch/meilisearch//blob/master/src/error.rs#:~:text=struct%20Error" xlink:title="&lt;TABLE&gt;">
<polygon fill="lightblue" stroke="none" points="91,-170.5 91,-207.5 150,-207.5 150,-170.5 91,-170.5"/>
<polygon fill="none" stroke="black" points="91,-170.5 91,-207.5 150,-207.5 150,-170.5 91,-170.5"/>
<text text-anchor="start" x="102" y="-186.3" font-family="Arial" font-weight="bold" font-size="14.00">Error</text>
<polygon fill="none" stroke="black" points="89.5,-170 89.5,-209 150.5,-209 150.5,-170 89.5,-170"/>
</a>
</g>
</g>
<!-- ndError&#45;&gt;ndToken -->
<g id="edge2" class="edge"><title>ndError&#45;&gt;ndToken</title>
<path fill="none" stroke="black" stroke-dasharray="5,2" d="M101.615,-165.937C94.5942,-157.32 86.4668,-147.346 78.9363,-138.104"/>
<polygon fill="black" stroke="black" points="72.515,-130.223 82.3203,-135.133 75.6734,-134.099 78.8318,-137.975 78.8318,-137.975 78.8318,-137.975 75.6734,-134.099 75.3432,-140.818 72.515,-130.223 72.515,-130.223"/>
</g>
<!-- ndError&#45;&gt;ndFilterCondition -->
<g id="edge3" class="edge"><title>ndError&#45;&gt;ndFilterCondition</title>
<path fill="none" stroke="black" d="M138.385,-165.937C145.406,-157.32 153.533,-147.346 161.064,-138.104"/>
<polygon fill="black" stroke="black" points="167.485,-130.223 164.657,-140.818 164.327,-134.099 161.168,-137.975 161.168,-137.975 161.168,-137.975 164.327,-134.099 157.68,-135.133 167.485,-130.223 167.485,-130.223"/>
</g>
<!-- ndExpectedValueKind -->
<g id="node5" class="node"><title>ndExpectedValueKind</title>
<g id="a_node5_5"><a xlink:href="https://github.com/meilisearch/meilisearch//blob/master/src/error.rs#:~:text=enum%20ExpectedValueKind" xlink:title="&lt;TABLE&gt;">
<polygon fill="yellow" stroke="none" points="41,-336.5 41,-373.5 199,-373.5 199,-336.5 41,-336.5"/>
<polygon fill="none" stroke="black" points="41,-336.5 41,-373.5 199,-373.5 199,-336.5 41,-336.5"/>
<text text-anchor="start" x="52" y="-352.3" font-family="Arial" font-weight="bold" font-size="14.00">ExpectedValueKind</text>
<polygon fill="none" stroke="black" points="40,-336 40,-375 200,-375 200,-336 40,-336"/>
</a>
</g>
</g>
<!-- ndErrorKind -->
<g id="node6" class="node"><title>ndErrorKind</title>
<g id="a_node6_6"><a xlink:href="https://github.com/meilisearch/meilisearch//blob/master/src/error.rs#:~:text=enum%20ErrorKind" xlink:title="&lt;TABLE&gt;">
<polygon fill="yellow" stroke="none" points="74,-253.5 74,-290.5 166,-290.5 166,-253.5 74,-253.5"/>
<polygon fill="none" stroke="black" points="74,-253.5 74,-290.5 166,-290.5 166,-253.5 74,-253.5"/>
<text text-anchor="start" x="85" y="-269.3" font-family="Arial" font-weight="bold" font-size="14.00">ErrorKind</text>
<polygon fill="none" stroke="black" points="73,-253 73,-292 167,-292 167,-253 73,-253"/>
</a>
</g>
</g>
<!-- ndExpectedValueKind&#45;&gt;ndErrorKind -->
<g id="edge4" class="edge"><title>ndExpectedValueKind&#45;&gt;ndErrorKind</title>
<path fill="none" stroke="black" d="M120,-331.937C120,-324.626 120,-316.337 120,-308.348"/>
<polygon fill="black" stroke="black" points="120,-308.223 116,-302.223 120,-296.223 124,-302.223 120,-308.223"/>
</g>
<!-- ndErrorKind&#45;&gt;ndError -->
<g id="edge5" class="edge"><title>ndErrorKind&#45;&gt;ndError</title>
<path fill="none" stroke="black" stroke-dasharray="5,2" d="M120,-248.937C120,-241.626 120,-233.337 120,-225.348"/>
<polygon fill="black" stroke="black" points="120,-225.223 116,-219.223 120,-213.223 124,-219.223 120,-225.223"/>
</g>
</g>
</svg>
