<?xml version="1.0" encoding="UTF-8" standalone="no"?>
<!DOCTYPE svg PUBLIC "-//W3C//DTD SVG 1.1//EN"
 "http://www.w3.org/Graphics/SVG/1.1/DTD/svg11.dtd">
<!-- Generated by graphviz version 2.38.0 (20140413.2041)
 -->
<!-- Title: ml Pages: 1 -->
<svg width="462pt" height="1067pt"
 viewBox="0.00 0.00 461.50 1067.00" xmlns="http://www.w3.org/2000/svg" xmlns:xlink="http://www.w3.org/1999/xlink">
<g id="graph0" class="graph" transform="scale(1 1) rotate(0) translate(4 1063)">
<title>ml</title>
<polygon fill="white" stroke="none" points="-4,4 -4,-1063 457.5,-1063 457.5,4 -4,4"/>
<!-- ndToken -->
<g id="node1" class="node"><title>ndToken</title>
<g id="a_node1_0"><a xlink:href="https://github.com/meilisearch/meilisearch//blob/master/src/lib.rs#:~:text=struct%20Token" xlink:title="&lt;TABLE&gt;">
<polygon fill="lightblue" stroke="none" points="40,-319 40,-356 207,-356 207,-319 40,-319"/>
<polygon fill="none" stroke="black" points="40,-319 40,-356 207,-356 207,-319 40,-319"/>
<text text-anchor="start" x="101.5" y="-334.8" font-family="Arial" font-weight="bold" font-size="14.00">Token</text>
<polygon fill="white" stroke="none" points="40,-267 40,-319 207,-319 207,-267 40,-267"/>
<polygon fill="none" stroke="black" points="40,-267 40,-319 207,-319 207,-267 40,-267"/>
<text text-anchor="start" x="51" y="-296.8" font-family="Arial" font-size="14.00">&#45; span: Span&lt;&#39;a&gt;</text>
<text text-anchor="start" x="51" y="-281.8" font-family="Arial" font-size="14.00">&#45; value: Option&lt;String&gt;</text>
<polygon fill="none" stroke="black" points="38.5,-266.5 38.5,-357.5 207.5,-357.5 207.5,-266.5 38.5,-266.5"/>
</a>
</g>
</g>
<!-- ndCondition -->
<g id="node7" class="node"><title>ndCondition</title>
<g id="a_node7_1"><a xlink:href="https://github.com/meilisearch/meilisearch//blob/master/src/condition.rs#:~:text=enum%20Condition" xlink:title="&lt;TABLE&gt;">
<polygon fill="yellow" stroke="none" points="9,-146.5 9,-183.5 237,-183.5 237,-146.5 9,-146.5"/>
<polygon fill="none" stroke="black" points="9,-146.5 9,-183.5 237,-183.5 237,-146.5 9,-146.5"/>
<text text-anchor="start" x="89" y="-162.3" font-family="Arial" font-weight="bold" font-size="14.00">Condition</text>
<polygon fill="white" stroke="none" points="9,-4.5 9,-146.5 237,-146.5 237,-4.5 9,-4.5"/>
<polygon fill="none" stroke="black" points="9,-4.5 9,-146.5 237,-146.5 237,-4.5 9,-4.5"/>
<text text-anchor="start" x="20" y="-124.3" font-family="Arial" font-size="14.00">GreaterThan(Token&lt;&#39;a&gt;)</text>
<text text-anchor="start" x="20" y="-109.3" font-family="Arial" font-size="14.00">GreaterThanOrEqual(Token&lt;&#39;a&gt;)</text>
<text text-anchor="start" x="20" y="-94.3" font-family="Arial" font-size="14.00">Equal(Token&lt;&#39;a&gt;)</text>
<text text-anchor="start" x="20" y="-79.3" font-family="Arial" font-size="14.00">NotEqual(Token&lt;&#39;a&gt;)</text>
<text text-anchor="start" x="20" y="-64.3" font-family="Arial" font-size="14.00">Exists</text>
<text text-anchor="start" x="20" y="-49.3" font-family="Arial" font-size="14.00">LowerThan(Token&lt;&#39;a&gt;)</text>
<text text-anchor="start" x="20" y="-34.3" font-family="Arial" font-size="14.00">LowerThanOrEqual(Token&lt;&#39;a&gt;)</text>
<text text-anchor="start" x="20" y="-19.3" font-family="Arial" font-size="14.00">Between</text>
<polygon fill="none" stroke="black" points="8,-4 8,-185 238,-185 238,-4 8,-4"/>
</a>
</g>
</g>
<!-- ndToken&#45;&gt;ndCondition -->
<g id="edge1" class="edge"><title>ndToken&#45;&gt;ndCondition</title>
<path fill="none" stroke="black" d="M123,-262.369C123,-244.228 123,-222.849 123,-201.558"/>
<polygon fill="black" stroke="black" points="123,-201.41 119,-195.41 123,-189.41 127,-195.41 123,-201.41"/>
</g>
<!-- ndFilterCondition -->
<g id="node2" class="node"><title>ndFilterCondition</title>
<g id="a_node2_2"><a xlink:href="https://github.com/meilisearch/meilisearch//blob/master/src/lib.rs#:~:text=enum%20FilterCondition" xlink:title="&lt;TABLE&gt;">
<polygon fill="yellow" stroke="none" points="243,-357 243,-394 378,-394 378,-357 243,-357"/>
<polygon fill="none" stroke="black" points="243,-357 243,-394 378,-394 378,-357 243,-357"/>
<text text-anchor="start" x="259" y="-372.8" font-family="Arial" font-weight="bold" font-size="14.00">FilterCondition</text>
<polygon fill="white" stroke="none" points="243,-230 243,-357 378,-357 378,-230 243,-230"/>
<polygon fill="none" stroke="black" points="243,-230 243,-357 378,-357 378,-230 243,-230"/>
<text text-anchor="start" x="254" y="-334.8" font-family="Arial" font-size="14.00">Not(Box&lt;Self&gt;)</text>
<text text-anchor="start" x="254" y="-319.8" font-family="Arial" font-size="14.00">Condition</text>
<text text-anchor="start" x="254" y="-304.8" font-family="Arial" font-size="14.00">In</text>
<text text-anchor="start" x="254" y="-289.8" font-family="Arial" font-size="14.00">Or(Vec&lt;Self&gt;)</text>
<text text-anchor="start" x="254" y="-274.8" font-family="Arial" font-size="14.00">And(Vec&lt;Self&gt;)</text>
<text text-anchor="start" x="254" y="-259.8" font-family="Arial" font-size="14.00">GeoLowerThan</text>
<text text-anchor="start" x="254" y="-244.8" font-family="Arial" font-size="14.00">GeoBoundingBox</text>
<polygon fill="none" stroke="black" points="241.5,-229 241.5,-395 378.5,-395 378.5,-229 241.5,-229"/>
</a>
</g>
</g>
<!-- ndNomErrorExt -->
<g id="node3" class="node"><title>ndNomErrorExt</title>
<g id="a_node3_3"><a xlink:href="https://github.com/meilisearch/meilisearch//blob/master/src/error.rs#:~:text=trait%20NomErrorExt" xlink:title="&lt;TABLE&gt;">
<polygon fill="lightgreen" stroke="none" points="332,-990.5 332,-1027.5 445,-1027.5 445,-990.5 332,-990.5"/>
<polygon fill="none" stroke="black" points="332,-990.5 332,-1027.5 445,-1027.5 445,-990.5 332,-990.5"/>
<text text-anchor="start" x="343" y="-1006.3" font-family="Arial" font-weight="bold" font-size="14.00">NomErrorExt</text>
<polygon fill="none" stroke="black" points="330.5,-990 330.5,-1029 445.5,-1029 445.5,-990 330.5,-990"/>
</a>
</g>
</g>
<!-- ndError -->
<g id="node4" class="node"><title>ndError</title>
<g id="a_node4_4"><a xlink:href="https://github.com/meilisearch/meilisearch//blob/master/src/error.rs#:~:text=struct%20Error" xlink:title="&lt;TABLE&gt;">
<polygon fill="lightblue" stroke="none" points="141,-491.5 141,-528.5 292,-528.5 292,-491.5 141,-491.5"/>
<polygon fill="none" stroke="black" points="141,-491.5 141,-528.5 292,-528.5 292,-491.5 141,-491.5"/>
<text text-anchor="start" x="198" y="-507.3" font-family="Arial" font-weight="bold" font-size="14.00">Error</text>
<polygon fill="white" stroke="none" points="141,-439.5 141,-491.5 292,-491.5 292,-439.5 141,-439.5"/>
<polygon fill="none" stroke="black" points="141,-439.5 141,-491.5 292,-491.5 292,-439.5 141,-439.5"/>
<text text-anchor="start" x="152" y="-469.3" font-family="Arial" font-size="14.00">&#45; context: Span&lt;&#39;a&gt;</text>
<text text-anchor="start" x="152" y="-454.3" font-family="Arial" font-size="14.00">&#45; kind: ErrorKind&lt;&#39;a&gt;</text>
<polygon fill="none" stroke="black" points="139.5,-439 139.5,-530 292.5,-530 292.5,-439 139.5,-439"/>
</a>
</g>
</g>
<!-- ndError&#45;&gt;ndToken -->
<g id="edge2" class="edge"><title>ndError&#45;&gt;ndToken</title>
<path fill="none" stroke="black" stroke-dasharray="5,2" d="M189.35,-434.642C178.456,-414.669 165.772,-391.416 154.43,-370.622"/>
<polygon fill="black" stroke="black" points="149.493,-361.571 158.232,-368.195 151.887,-365.96 154.282,-370.35 154.282,-370.35 154.282,-370.35 151.887,-365.96 150.331,-372.504 149.493,-361.571 149.493,-361.571"/>
</g>
<!-- ndError&#45;&gt;ndFilterCondition -->
<g id="edge3" class="edge"><title>ndError&#45;&gt;ndFilterCondition</title>
<path fill="none" stroke="black" d="M242.937,-434.642C247.582,-426.215 252.55,-417.204 257.602,-408.041"/>
<polygon fill="black" stroke="black" points="262.464,-399.223 261.576,-410.153 260.05,-403.601 257.636,-407.98 257.636,-407.98 257.636,-407.98 260.05,-403.601 253.695,-405.807 262.464,-399.223 262.464,-399.223"/>
</g>
<!-- ndExpectedValueKind -->
<g id="node5" class="node"><title>ndExpectedValueKind</title>
<g id="a_node5_5"><a xlink:href="https://github.com/meilisearch/meilisearch//blob/master/src/error.rs#:~:text=enum%20ExpectedValueKind" xlink:title="&lt;TABLE&gt;">
<polygon fill="yellow" stroke="none" points="137,-1016.5 137,-1053.5 295,-1053.5 295,-1016.5 137,-1016.5"/>
<polygon fill="none" stroke="black" points="137,-1016.5 137,-1053.5 295,-1053.5 295,-1016.5 137,-1016.5"/>
<text text-anchor="start" x="148" y="-1032.3" font-family="Arial" font-weight="bold" font-size="14.00">ExpectedValueKind</text>
<polygon fill="white" stroke="none" points="137,-964.5 137,-1016.5 295,-1016.5 295,-964.5 137,-964.5"/>
<polygon fill="none" stroke="black" points="137,-964.5 137,-1016.5 295,-1016.5 295,-964.5 137,-964.5"/>
<text text-anchor="start" x="148" y="-994.3" font-family="Arial" font-size="14.00">ReservedKeyword</text>
<text text-anchor="start" x="148" y="-979.3" font-family="Arial" font-size="14.00">Other</text>
<polygon fill="none" stroke="black" points="136,-964 136,-1055 296,-1055 296,-964 136,-964"/>
</a>
</g>
</g>
<!-- ndErrorKind -->
<g id="node6" class="node"><title>ndErrorKind</title>
<g id="a_node6_6"><a xlink:href="https://github.com/meilisearch/meilisearch//blob/master/src/error.rs#:~:text=enum%20ErrorKind" xlink:title="&lt;TABLE&gt;">
<polygon fill="yellow" stroke="none" points="84,-882 84,-919 348,-919 348,-882 84,-882"/>
<polygon fill="none" stroke="black" points="84,-882 84,-919 348,-919 348,-882 84,-882"/>
<text text-anchor="start" x="181" y="-897.8" font-family="Arial" font-weight="bold" font-size="14.00">ErrorKind</text>
<polygon fill="white" stroke="none" points="84,-575 84,-882 348,-882 348,-575 84,-575"/>
<polygon fill="none" stroke="black" points="84,-575 84,-882 348,-882 348,-575 84,-575"/>
<text text-anchor="start" x="95" y="-859.8" font-family="Arial" font-size="14.00">ReservedGeo(&amp;&#39;a str)</text>
<text text-anchor="start" x="95" y="-844.8" font-family="Arial" font-size="14.00">GeoRadius</text>
<text text-anchor="start" x="95" y="-829.8" font-family="Arial" font-size="14.00">GeoBoundingBox</text>
<text text-anchor="start" x="95" y="-814.8" font-family="Arial" font-size="14.00">MisusedGeoRadius</text>
<text text-anchor="start" x="95" y="-799.8" font-family="Arial" font-size="14.00">MisusedGeoBoundingBox</text>
<text text-anchor="start" x="95" y="-784.8" font-family="Arial" font-size="14.00">InvalidPrimary</text>
<text text-anchor="start" x="95" y="-769.8" font-family="Arial" font-size="14.00">ExpectedEof</text>
<text text-anchor="start" x="95" y="-754.8" font-family="Arial" font-size="14.00">ExpectedValue(ExpectedValueKind)</text>
<text text-anchor="start" x="95" y="-739.8" font-family="Arial" font-size="14.00">MalformedValue</text>
<text text-anchor="start" x="95" y="-724.8" font-family="Arial" font-size="14.00">InOpeningBracket</text>
<text text-anchor="start" x="95" y="-709.8" font-family="Arial" font-size="14.00">InClosingBracket</text>
<text text-anchor="start" x="95" y="-694.8" font-family="Arial" font-size="14.00">NonFiniteFloat</text>
<text text-anchor="start" x="95" y="-679.8" font-family="Arial" font-size="14.00">InExpectedValue(ExpectedValueKind)</text>
<text text-anchor="start" x="95" y="-664.8" font-family="Arial" font-size="14.00">ReservedKeyword(String)</text>
<text text-anchor="start" x="95" y="-649.8" font-family="Arial" font-size="14.00">MissingClosingDelimiter(char)</text>
<text text-anchor="start" x="95" y="-634.8" font-family="Arial" font-size="14.00">Char(char)</text>
<text text-anchor="start" x="95" y="-619.8" font-family="Arial" font-size="14.00">InternalError(error::ErrorKind)</text>
<text text-anchor="start" x="95" y="-604.8" font-family="Arial" font-size="14.00">DepthLimitReached</text>
<text text-anchor="start" x="95" y="-589.8" font-family="Arial" font-size="14.00">External(String)</text>
<polygon fill="none" stroke="black" points="83,-574 83,-920 349,-920 349,-574 83,-574"/>
</a>
</g>
</g>
<!-- ndExpectedValueKind&#45;&gt;ndErrorKind -->
<g id="edge4" class="edge"><title>ndExpectedValueKind&#45;&gt;ndErrorKind</title>
<path fill="none" stroke="black" d="M216,-959.808C216,-952.451 216,-944.513 216,-936.178"/>
<polygon fill="black" stroke="black" points="216,-936.148 212,-930.148 216,-924.148 220,-930.148 216,-936.148"/>
</g>
<!-- ndErrorKind&#45;&gt;ndError -->
<g id="edge5" class="edge"><title>ndErrorKind&#45;&gt;ndError</title>
<path fill="none" stroke="black" stroke-dasharray="5,2" d="M216,-569.717C216,-561.55 216,-553.66 216,-546.2"/>
<polygon fill="black" stroke="black" points="216,-546.08 212,-540.08 216,-534.08 220,-540.08 216,-546.08"/>
</g>
</g>
</svg>
