<?xml version="1.0" encoding="UTF-8" standalone="no"?>
<!DOCTYPE svg PUBLIC "-//W3C//DTD SVG 1.1//EN"
 "http://www.w3.org/Graphics/SVG/1.1/DTD/svg11.dtd">
<!-- Generated by graphviz version 2.38.0 (20140413.2041)
 -->
<!-- Title: ml Pages: 1 -->
<svg width="3168pt" height="1232pt"
 viewBox="0.00 0.00 3167.50 1232.00" xmlns="http://www.w3.org/2000/svg" xmlns:xlink="http://www.w3.org/1999/xlink">
<g id="graph0" class="graph" transform="scale(1 1) rotate(0) translate(4 1228)">
<title>ml</title>
<polygon fill="white" stroke="none" points="-4,4 -4,-1228 3163.5,-1228 3163.5,4 -4,4"/>
<!-- ndQuery -->
<g id="node1" class="node"><title>ndQuery</title>
<g id="a_node1_0"><a xlink:href="https://github.com/meilisearch/meilisearch//blob/master/src/lib.rs#:~:text=struct%20Query" xlink:title="&lt;TABLE&gt;">
<polygon fill="lightblue" stroke="none" points="9.5,-657 9.5,-694 344.5,-694 344.5,-657 9.5,-657"/>
<polygon fill="none" stroke="black" points="9.5,-657 9.5,-694 344.5,-694 344.5,-657 9.5,-657"/>
<text text-anchor="start" x="155.5" y="-672.8" font-family="Arial" font-weight="bold" font-size="14.00">Query</text>
<polygon fill="white" stroke="none" points="9.5,-440 9.5,-657 344.5,-657 344.5,-440 9.5,-440"/>
<polygon fill="none" stroke="black" points="9.5,-440 9.5,-657 344.5,-657 344.5,-440 9.5,-440"/>
<text text-anchor="start" x="20.5" y="-634.8" font-family="Arial" font-size="14.00">+ limit: Option&lt;u32&gt;</text>
<text text-anchor="start" x="20.5" y="-619.8" font-family="Arial" font-size="14.00">+ from: Option&lt;u32&gt;</text>
<text text-anchor="start" x="20.5" y="-604.8" font-family="Arial" font-size="14.00">+ statuses: Option&lt;Vec&lt;Status&gt;&gt;</text>
<text text-anchor="start" x="20.5" y="-589.8" font-family="Arial" font-size="14.00">+ types: Option&lt;Vec&lt;Kind&gt;&gt;</text>
<text text-anchor="start" x="20.5" y="-574.8" font-family="Arial" font-size="14.00">+ index_uids: Option&lt;Vec&lt;String&gt;&gt;</text>
<text text-anchor="start" x="20.5" y="-559.8" font-family="Arial" font-size="14.00">+ uids: Option&lt;Vec&lt;TaskId&gt;&gt;</text>
<text text-anchor="start" x="20.5" y="-544.8" font-family="Arial" font-size="14.00">+ canceled_by: Option&lt;Vec&lt;TaskId&gt;&gt;</text>
<text text-anchor="start" x="20.5" y="-529.8" font-family="Arial" font-size="14.00">+ before_enqueued_at: Option&lt;OffsetDateTime&gt;</text>
<text text-anchor="start" x="20.5" y="-514.8" font-family="Arial" font-size="14.00">+ after_enqueued_at: Option&lt;OffsetDateTime&gt;</text>
<text text-anchor="start" x="20.5" y="-499.8" font-family="Arial" font-size="14.00">+ before_started_at: Option&lt;OffsetDateTime&gt;</text>
<text text-anchor="start" x="20.5" y="-484.8" font-family="Arial" font-size="14.00">+ after_started_at: Option&lt;OffsetDateTime&gt;</text>
<text text-anchor="start" x="20.5" y="-469.8" font-family="Arial" font-size="14.00">+ before_finished_at: Option&lt;OffsetDateTime&gt;</text>
<text text-anchor="start" x="20.5" y="-454.8" font-family="Arial" font-size="14.00">+ after_finished_at: Option&lt;OffsetDateTime&gt;</text>
<polygon fill="none" stroke="black" points="8,-439 8,-695 345,-695 345,-439 8,-439"/>
</a>
</g>
</g>
<!-- ndIndexScheduler -->
<g id="node6" class="node"><title>ndIndexScheduler</title>
<g id="a_node6_1"><a xlink:href="https://github.com/meilisearch/meilisearch//blob/master/src/lib.rs#:~:text=struct%20IndexScheduler" xlink:title="&lt;TABLE&gt;">
<polygon fill="lightblue" stroke="none" points="1008.5,-356.5 1008.5,-393.5 1520.5,-393.5 1520.5,-356.5 1008.5,-356.5"/>
<polygon fill="none" stroke="black" points="1008.5,-356.5 1008.5,-393.5 1520.5,-393.5 1520.5,-356.5 1008.5,-356.5"/>
<text text-anchor="start" x="1209.5" y="-372.3" font-family="Arial" font-weight="bold" font-size="14.00">IndexScheduler</text>
<polygon fill="white" stroke="none" points="1008.5,-4.5 1008.5,-356.5 1520.5,-356.5 1520.5,-4.5 1008.5,-4.5"/>
<polygon fill="none" stroke="black" points="1008.5,-4.5 1008.5,-356.5 1520.5,-356.5 1520.5,-4.5 1008.5,-4.5"/>
<text text-anchor="start" x="1019.5" y="-334.3" font-family="Arial" font-size="14.00">&#45; env: Env</text>
<text text-anchor="start" x="1019.5" y="-319.3" font-family="Arial" font-size="14.00">&#45; must_stop_processing: MustStopProcessing</text>
<text text-anchor="start" x="1019.5" y="-304.3" font-family="Arial" font-size="14.00">&#45; processing_tasks: Arc&lt;RwLock&lt;ProcessingTasks&gt;&gt;</text>
<text text-anchor="start" x="1019.5" y="-289.3" font-family="Arial" font-size="14.00">&#45; file_store: FileStore</text>
<text text-anchor="start" x="1019.5" y="-274.3" font-family="Arial" font-size="14.00">&#45; all_tasks: Database&lt;OwnedType&lt;BEU32&gt;, SerdeJson&lt;Task&gt;&gt;</text>
<text text-anchor="start" x="1019.5" y="-259.3" font-family="Arial" font-size="14.00">&#45; status: Database&lt;SerdeBincode&lt;Status&gt;, RoaringBitmapCodec&gt;</text>
<text text-anchor="start" x="1019.5" y="-244.3" font-family="Arial" font-size="14.00">&#45; kind: Database&lt;SerdeBincode&lt;Kind&gt;, RoaringBitmapCodec&gt;</text>
<text text-anchor="start" x="1019.5" y="-229.3" font-family="Arial" font-size="14.00">&#45; index_tasks: Database&lt;Str, RoaringBitmapCodec&gt;</text>
<text text-anchor="start" x="1019.5" y="-214.3" font-family="Arial" font-size="14.00">&#45; canceled_by: Database&lt;OwnedType&lt;BEU32&gt;, RoaringBitmapCodec&gt;</text>
<text text-anchor="start" x="1019.5" y="-199.3" font-family="Arial" font-size="14.00">&#45; enqueued_at: Database&lt;OwnedType&lt;BEI128&gt;, CboRoaringBitmapCodec&gt;</text>
<text text-anchor="start" x="1019.5" y="-184.3" font-family="Arial" font-size="14.00">&#45; started_at: Database&lt;OwnedType&lt;BEI128&gt;, CboRoaringBitmapCodec&gt;</text>
<text text-anchor="start" x="1019.5" y="-169.3" font-family="Arial" font-size="14.00">&#45; finished_at: Database&lt;OwnedType&lt;BEI128&gt;, CboRoaringBitmapCodec&gt;</text>
<text text-anchor="start" x="1019.5" y="-154.3" font-family="Arial" font-size="14.00">&#45; index_mapper: IndexMapper</text>
<text text-anchor="start" x="1019.5" y="-139.3" font-family="Arial" font-size="14.00">&#45; wake_up: Arc&lt;SignalEvent&gt;</text>
<text text-anchor="start" x="1019.5" y="-124.3" font-family="Arial" font-size="14.00">&#45; autobatching_enabled: bool</text>
<text text-anchor="start" x="1019.5" y="-109.3" font-family="Arial" font-size="14.00">&#45; dumps_path: PathBuf</text>
<text text-anchor="start" x="1019.5" y="-94.3" font-family="Arial" font-size="14.00">&#45; snapshots_path: PathBuf</text>
<text text-anchor="start" x="1019.5" y="-79.3" font-family="Arial" font-size="14.00">&#45; auth_path: PathBuf</text>
<text text-anchor="start" x="1019.5" y="-64.3" font-family="Arial" font-size="14.00">&#45; version_file_path: PathBuf</text>
<text text-anchor="start" x="1019.5" y="-49.3" font-family="Arial" font-size="14.00">&#45; test_breakpoint_sdr: crossbeam::channel::Sender&lt;(Breakpoint, bool)&gt;</text>
<text text-anchor="start" x="1019.5" y="-34.3" font-family="Arial" font-size="14.00">&#45; planned_failures: Vec&lt;(usize, tests::FailureLocation)&gt;</text>
<text text-anchor="start" x="1019.5" y="-19.3" font-family="Arial" font-size="14.00">&#45; run_loop_iteration: Arc&lt;RwLock&lt;usize&gt;&gt;</text>
<polygon fill="none" stroke="black" points="1007.5,-4 1007.5,-395 1521.5,-395 1521.5,-4 1007.5,-4"/>
</a>
</g>
</g>
<!-- ndQuery&#45;&gt;ndIndexScheduler -->
<g id="edge1" class="edge"><title>ndQuery&#45;&gt;ndIndexScheduler</title>
<path fill="none" stroke="black" stroke-dasharray="5,2" d="M353.199,-438.98C355.966,-437.613 358.734,-436.286 361.5,-435 562.153,-341.732 805.801,-281.228 989.417,-245.08"/>
<polygon fill="black" stroke="black" points="999.49,-243.109 990.54,-249.445 994.583,-244.069 989.676,-245.029 989.676,-245.029 989.676,-245.029 994.583,-244.069 988.812,-240.613 999.49,-243.109 999.49,-243.109"/>
</g>
<!-- ndProcessingTasks -->
<g id="node2" class="node"><title>ndProcessingTasks</title>
<g id="a_node2_2"><a xlink:href="https://github.com/meilisearch/meilisearch//blob/master/src/lib.rs#:~:text=struct%20ProcessingTasks" xlink:title="&lt;TABLE&gt;">
<polygon fill="lightblue" stroke="none" points="380.5,-574 380.5,-611 583.5,-611 583.5,-574 380.5,-574"/>
<polygon fill="none" stroke="black" points="380.5,-574 380.5,-611 583.5,-611 583.5,-574 380.5,-574"/>
<text text-anchor="start" x="421" y="-589.8" font-family="Arial" font-weight="bold" font-size="14.00">ProcessingTasks</text>
<polygon fill="white" stroke="none" points="380.5,-522 380.5,-574 583.5,-574 583.5,-522 380.5,-522"/>
<polygon fill="none" stroke="black" points="380.5,-522 380.5,-574 583.5,-574 583.5,-522 380.5,-522"/>
<text text-anchor="start" x="391.5" y="-551.8" font-family="Arial" font-size="14.00">&#45; started_at: OffsetDateTime</text>
<text text-anchor="start" x="391.5" y="-536.8" font-family="Arial" font-size="14.00">&#45; processing: RoaringBitmap</text>
<polygon fill="none" stroke="black" points="379,-521.5 379,-612.5 584,-612.5 584,-521.5 379,-521.5"/>
</a>
</g>
</g>
<!-- ndProcessingTasks&#45;&gt;ndIndexScheduler -->
<g id="edge2" class="edge"><title>ndProcessingTasks&#45;&gt;ndIndexScheduler</title>
<path fill="none" stroke="black" d="M515.928,-517.462C537.527,-490.027 567.486,-456.934 600.5,-435 717.268,-357.42 862.654,-302.291 987.592,-265.065"/>
<polygon fill="black" stroke="black" points="987.723,-265.026 992.345,-259.492 999.232,-261.631 994.609,-267.165 987.723,-265.026"/>
</g>
<!-- ndMustStopProcessing -->
<g id="node3" class="node"><title>ndMustStopProcessing</title>
<g id="a_node3_3"><a xlink:href="https://github.com/meilisearch/meilisearch//blob/master/src/lib.rs#:~:text=struct%20MustStopProcessing" xlink:title="&lt;TABLE&gt;">
<polygon fill="lightblue" stroke="none" points="619.5,-567 619.5,-604 788.5,-604 788.5,-567 619.5,-567"/>
<polygon fill="none" stroke="black" points="619.5,-567 619.5,-604 788.5,-604 788.5,-567 619.5,-567"/>
<text text-anchor="start" x="630.5" y="-582.8" font-family="Arial" font-weight="bold" font-size="14.00">MustStopProcessing</text>
<polygon fill="white" stroke="none" points="619.5,-530 619.5,-567 788.5,-567 788.5,-530 619.5,-530"/>
<polygon fill="none" stroke="black" points="619.5,-530 619.5,-567 788.5,-567 788.5,-530 619.5,-530"/>
<text text-anchor="start" x="630.5" y="-544.8" font-family="Arial" font-size="14.00">&#45; Arc&lt;AtomicBool&gt;</text>
<polygon fill="none" stroke="black" points="618,-529 618,-605 789,-605 789,-529 618,-529"/>
</a>
</g>
</g>
<!-- ndMustStopProcessing&#45;&gt;ndIndexScheduler -->
<g id="edge3" class="edge"><title>ndMustStopProcessing&#45;&gt;ndIndexScheduler</title>
<path fill="none" stroke="black" d="M728.591,-524.919C747.202,-496.954 774.619,-460.527 805.5,-435 860.186,-389.795 925.027,-350.097 988.487,-316.831"/>
<polygon fill="black" stroke="black" points="988.834,-316.651 992.317,-310.336 999.485,-311.122 996.002,-317.437 988.834,-316.651"/>
</g>
<!-- ndBreakpoint -->
<g id="node4" class="node"><title>ndBreakpoint</title>
<g id="a_node4_4"><a xlink:href="https://github.com/meilisearch/meilisearch//blob/master/src/lib.rs#:~:text=enum%20Breakpoint" xlink:title="&lt;TABLE&gt;">
<polygon fill="yellow" stroke="none" points="824.5,-627 824.5,-664 1009.5,-664 1009.5,-627 824.5,-627"/>
<polygon fill="none" stroke="black" points="824.5,-627 824.5,-664 1009.5,-664 1009.5,-627 824.5,-627"/>
<text text-anchor="start" x="878.5" y="-642.8" font-family="Arial" font-weight="bold" font-size="14.00">Breakpoint</text>
<polygon fill="white" stroke="none" points="824.5,-470 824.5,-627 1009.5,-627 1009.5,-470 824.5,-470"/>
<polygon fill="none" stroke="black" points="824.5,-470 824.5,-627 1009.5,-627 1009.5,-470 824.5,-470"/>
<text text-anchor="start" x="835.5" y="-604.8" font-family="Arial" font-size="14.00">Init</text>
<text text-anchor="start" x="835.5" y="-589.8" font-family="Arial" font-size="14.00">Start</text>
<text text-anchor="start" x="835.5" y="-574.8" font-family="Arial" font-size="14.00">BatchCreated</text>
<text text-anchor="start" x="835.5" y="-559.8" font-family="Arial" font-size="14.00">BeforeProcessing</text>
<text text-anchor="start" x="835.5" y="-544.8" font-family="Arial" font-size="14.00">AfterProcessing</text>
<text text-anchor="start" x="835.5" y="-529.8" font-family="Arial" font-size="14.00">AbortedIndexation</text>
<text text-anchor="start" x="835.5" y="-514.8" font-family="Arial" font-size="14.00">ProcessBatchSucceeded</text>
<text text-anchor="start" x="835.5" y="-499.8" font-family="Arial" font-size="14.00">ProcessBatchFailed</text>
<text text-anchor="start" x="835.5" y="-484.8" font-family="Arial" font-size="14.00">InsideProcessBatch</text>
<polygon fill="none" stroke="black" points="823,-469 823,-665 1010,-665 1010,-469 823,-469"/>
</a>
</g>
</g>
<!-- ndBreakpoint&#45;&gt;ndIndexScheduler -->
<g id="edge4" class="edge"><title>ndBreakpoint&#45;&gt;ndIndexScheduler</title>
<path fill="none" stroke="black" stroke-dasharray="5,2" d="M1000.77,-464.732C1009.67,-454.58 1018.69,-444.516 1027.5,-435 1035.77,-426.067 1044.28,-417.02 1052.93,-407.937"/>
<polygon fill="black" stroke="black" points="1052.98,-407.891 1054.23,-400.79 1061.27,-399.22 1060.02,-406.32 1052.98,-407.891"/>
</g>
<!-- ndIndexSchedulerOptions -->
<g id="node5" class="node"><title>ndIndexSchedulerOptions</title>
<g id="a_node5_5"><a xlink:href="https://github.com/meilisearch/meilisearch//blob/master/src/lib.rs#:~:text=struct%20IndexSchedulerOptions" xlink:title="&lt;TABLE&gt;">
<polygon fill="lightblue" stroke="none" points="1045.5,-642 1045.5,-679 1271.5,-679 1271.5,-642 1045.5,-642"/>
<polygon fill="none" stroke="black" points="1045.5,-642 1045.5,-679 1271.5,-679 1271.5,-642 1045.5,-642"/>
<text text-anchor="start" x="1076" y="-657.8" font-family="Arial" font-weight="bold" font-size="14.00">IndexSchedulerOptions</text>
<polygon fill="white" stroke="none" points="1045.5,-455 1045.5,-642 1271.5,-642 1271.5,-455 1045.5,-455"/>
<polygon fill="none" stroke="black" points="1045.5,-455 1045.5,-642 1271.5,-642 1271.5,-455 1045.5,-455"/>
<text text-anchor="start" x="1056.5" y="-619.8" font-family="Arial" font-size="14.00">+ version_file_path: PathBuf</text>
<text text-anchor="start" x="1056.5" y="-604.8" font-family="Arial" font-size="14.00">+ auth_path: PathBuf</text>
<text text-anchor="start" x="1056.5" y="-589.8" font-family="Arial" font-size="14.00">+ tasks_path: PathBuf</text>
<text text-anchor="start" x="1056.5" y="-574.8" font-family="Arial" font-size="14.00">+ update_file_path: PathBuf</text>
<text text-anchor="start" x="1056.5" y="-559.8" font-family="Arial" font-size="14.00">+ indexes_path: PathBuf</text>
<text text-anchor="start" x="1056.5" y="-544.8" font-family="Arial" font-size="14.00">+ snapshots_path: PathBuf</text>
<text text-anchor="start" x="1056.5" y="-529.8" font-family="Arial" font-size="14.00">+ dumps_path: PathBuf</text>
<text text-anchor="start" x="1056.5" y="-514.8" font-family="Arial" font-size="14.00">+ task_db_size: usize</text>
<text text-anchor="start" x="1056.5" y="-499.8" font-family="Arial" font-size="14.00">+ index_size: usize</text>
<text text-anchor="start" x="1056.5" y="-484.8" font-family="Arial" font-size="14.00">+ indexer_config: IndexerConfig</text>
<text text-anchor="start" x="1056.5" y="-469.8" font-family="Arial" font-size="14.00">+ autobatching_enabled: bool</text>
<polygon fill="none" stroke="black" points="1044.5,-454 1044.5,-680 1272.5,-680 1272.5,-454 1044.5,-454"/>
</a>
</g>
</g>
<!-- ndIndexSchedulerOptions&#45;&gt;ndIndexScheduler -->
<g id="edge5" class="edge"><title>ndIndexSchedulerOptions&#45;&gt;ndIndexScheduler</title>
<path fill="none" stroke="black" stroke-dasharray="5,2" d="M1192.18,-449.851C1196.03,-436.604 1200.03,-422.816 1204.08,-408.824"/>
<polygon fill="black" stroke="black" points="1206.9,-399.108 1208.44,-409.966 1205.51,-403.91 1204.12,-408.712 1204.12,-408.712 1204.12,-408.712 1205.51,-403.91 1199.79,-407.459 1206.9,-399.108 1206.9,-399.108"/>
</g>
<!-- ndTickOutcome -->
<g id="node7" class="node"><title>ndTickOutcome</title>
<g id="a_node7_6"><a xlink:href="https://github.com/meilisearch/meilisearch//blob/master/src/lib.rs#:~:text=enum%20TickOutcome" xlink:title="&lt;TABLE&gt;">
<polygon fill="yellow" stroke="none" points="1307.5,-574 1307.5,-611 1433.5,-611 1433.5,-574 1307.5,-574"/>
<polygon fill="none" stroke="black" points="1307.5,-574 1307.5,-611 1433.5,-611 1433.5,-574 1307.5,-574"/>
<text text-anchor="start" x="1323.5" y="-589.8" font-family="Arial" font-weight="bold" font-size="14.00">TickOutcome</text>
<polygon fill="white" stroke="none" points="1307.5,-522 1307.5,-574 1433.5,-574 1433.5,-522 1307.5,-522"/>
<polygon fill="none" stroke="black" points="1307.5,-522 1307.5,-574 1433.5,-574 1433.5,-522 1307.5,-522"/>
<text text-anchor="start" x="1318.5" y="-551.8" font-family="Arial" font-size="14.00">TickAgain(usize)</text>
<text text-anchor="start" x="1318.5" y="-536.8" font-family="Arial" font-size="14.00">WaitForSignal</text>
<polygon fill="none" stroke="black" points="1306.5,-521.5 1306.5,-612.5 1434.5,-612.5 1434.5,-521.5 1306.5,-521.5"/>
</a>
</g>
</g>
<!-- ndTickOutcome&#45;&gt;ndIndexScheduler -->
<g id="edge6" class="edge"><title>ndTickOutcome&#45;&gt;ndIndexScheduler</title>
<path fill="none" stroke="black" d="M1356.42,-517.464C1348.03,-488.521 1336.73,-449.567 1324.93,-408.884"/>
<polygon fill="black" stroke="black" points="1322.09,-399.071 1329.2,-407.421 1323.48,-403.873 1324.87,-408.675 1324.87,-408.675 1324.87,-408.675 1323.48,-403.873 1320.55,-409.928 1322.09,-399.071 1322.09,-399.071"/>
</g>
<!-- ndBatch -->
<g id="node8" class="node"><title>ndBatch</title>
<g id="a_node8_7"><a xlink:href="https://github.com/meilisearch/meilisearch//blob/master/src/batch.rs#:~:text=enum%20Batch" xlink:title="&lt;TABLE&gt;">
<polygon fill="yellow" stroke="none" points="1470.5,-627 1470.5,-664 1685.5,-664 1685.5,-627 1470.5,-627"/>
<polygon fill="none" stroke="black" points="1470.5,-627 1470.5,-664 1685.5,-664 1685.5,-627 1470.5,-627"/>
<text text-anchor="start" x="1557.5" y="-642.8" font-family="Arial" font-weight="bold" font-size="14.00">Batch</text>
<polygon fill="white" stroke="none" points="1470.5,-470 1470.5,-627 1685.5,-627 1685.5,-470 1470.5,-470"/>
<polygon fill="none" stroke="black" points="1470.5,-470 1470.5,-627 1685.5,-627 1685.5,-470 1470.5,-470"/>
<text text-anchor="start" x="1481.5" y="-604.8" font-family="Arial" font-size="14.00">TaskCancelation</text>
<text text-anchor="start" x="1481.5" y="-589.8" font-family="Arial" font-size="14.00">TaskDeletion(Task)</text>
<text text-anchor="start" x="1481.5" y="-574.8" font-family="Arial" font-size="14.00">SnapshotCreation(Vec&lt;Task&gt;)</text>
<text text-anchor="start" x="1481.5" y="-559.8" font-family="Arial" font-size="14.00">Dump(Task)</text>
<text text-anchor="start" x="1481.5" y="-544.8" font-family="Arial" font-size="14.00">IndexOperation</text>
<text text-anchor="start" x="1481.5" y="-529.8" font-family="Arial" font-size="14.00">IndexCreation</text>
<text text-anchor="start" x="1481.5" y="-514.8" font-family="Arial" font-size="14.00">IndexUpdate</text>
<text text-anchor="start" x="1481.5" y="-499.8" font-family="Arial" font-size="14.00">IndexDeletion</text>
<text text-anchor="start" x="1481.5" y="-484.8" font-family="Arial" font-size="14.00">IndexSwap</text>
<polygon fill="none" stroke="black" points="1469,-469 1469,-665 1686,-665 1686,-469 1469,-469"/>
</a>
</g>
</g>
<!-- ndBatch&#45;&gt;ndIndexScheduler -->
<g id="edge7" class="edge"><title>ndBatch&#45;&gt;ndIndexScheduler</title>
<path fill="none" stroke="black" stroke-dasharray="5,2" d="M1490.73,-464.673C1475.09,-446.408 1458.28,-426.779 1441.14,-406.768"/>
<polygon fill="black" stroke="black" points="1434.56,-399.082 1444.48,-403.75 1437.81,-402.879 1441.06,-406.677 1441.06,-406.677 1441.06,-406.677 1437.81,-402.879 1437.64,-409.604 1434.56,-399.082 1434.56,-399.082"/>
</g>
<!-- ndDocumentOperation -->
<g id="node9" class="node"><title>ndDocumentOperation</title>
<g id="a_node9_8"><a xlink:href="https://github.com/meilisearch/meilisearch//blob/master/src/batch.rs#:~:text=enum%20DocumentOperation" xlink:title="&lt;TABLE&gt;">
<polygon fill="yellow" stroke="none" points="2204.5,-986.5 2204.5,-1023.5 2367.5,-1023.5 2367.5,-986.5 2204.5,-986.5"/>
<polygon fill="none" stroke="black" points="2204.5,-986.5 2204.5,-1023.5 2367.5,-1023.5 2367.5,-986.5 2204.5,-986.5"/>
<text text-anchor="start" x="2215.5" y="-1002.3" font-family="Arial" font-weight="bold" font-size="14.00">DocumentOperation</text>
<polygon fill="white" stroke="none" points="2204.5,-934.5 2204.5,-986.5 2367.5,-986.5 2367.5,-934.5 2204.5,-934.5"/>
<polygon fill="none" stroke="black" points="2204.5,-934.5 2204.5,-986.5 2367.5,-986.5 2367.5,-934.5 2204.5,-934.5"/>
<text text-anchor="start" x="2215.5" y="-964.3" font-family="Arial" font-size="14.00">Add(Uuid)</text>
<text text-anchor="start" x="2215.5" y="-949.3" font-family="Arial" font-size="14.00">Delete(Vec&lt;String&gt;)</text>
<polygon fill="none" stroke="black" points="2203,-934 2203,-1025 2368,-1025 2368,-934 2203,-934"/>
</a>
</g>
</g>
<!-- ndIndexOperation -->
<g id="node10" class="node"><title>ndIndexOperation</title>
<g id="a_node10_9"><a xlink:href="https://github.com/meilisearch/meilisearch//blob/master/src/batch.rs#:~:text=enum%20IndexOperation" xlink:title="&lt;TABLE&gt;">
<polygon fill="yellow" stroke="none" points="1721.5,-604 1721.5,-641 1948.5,-641 1948.5,-604 1721.5,-604"/>
<polygon fill="none" stroke="black" points="1721.5,-604 1721.5,-641 1948.5,-641 1948.5,-604 1721.5,-604"/>
<text text-anchor="start" x="1781" y="-619.8" font-family="Arial" font-weight="bold" font-size="14.00">IndexOperation</text>
<polygon fill="white" stroke="none" points="1721.5,-492 1721.5,-604 1948.5,-604 1948.5,-492 1721.5,-492"/>
<polygon fill="none" stroke="black" points="1721.5,-492 1721.5,-604 1948.5,-604 1948.5,-492 1721.5,-492"/>
<text text-anchor="start" x="1732.5" y="-581.8" font-family="Arial" font-size="14.00">DocumentOperation</text>
<text text-anchor="start" x="1732.5" y="-566.8" font-family="Arial" font-size="14.00">DocumentDeletion</text>
<text text-anchor="start" x="1732.5" y="-551.8" font-family="Arial" font-size="14.00">DocumentClear</text>
<text text-anchor="start" x="1732.5" y="-536.8" font-family="Arial" font-size="14.00">Settings</text>
<text text-anchor="start" x="1732.5" y="-521.8" font-family="Arial" font-size="14.00">DocumentClearAndSetting</text>
<text text-anchor="start" x="1732.5" y="-506.8" font-family="Arial" font-size="14.00">SettingsAndDocumentOperation</text>
<polygon fill="none" stroke="black" points="1720,-491.5 1720,-642.5 1949,-642.5 1949,-491.5 1720,-491.5"/>
</a>
</g>
</g>
<!-- ndIndexOperation&#45;&gt;ndIndexScheduler -->
<g id="edge8" class="edge"><title>ndIndexOperation&#45;&gt;ndIndexScheduler</title>
<path fill="none" stroke="black" stroke-dasharray="5,2" d="M1762.92,-487.497C1744.21,-469.137 1723.4,-450.45 1702.5,-435 1651.97,-397.646 1594.73,-362.561 1538.69,-331.479"/>
<polygon fill="black" stroke="black" points="1529.7,-326.525 1540.63,-327.414 1534.08,-328.94 1538.46,-331.355 1538.46,-331.355 1538.46,-331.355 1534.08,-328.94 1536.29,-335.295 1529.7,-326.525 1529.7,-326.525"/>
</g>
<!-- ndDateField -->
<g id="node11" class="node"><title>ndDateField</title>
<g id="a_node11_10"><a xlink:href="https://github.com/meilisearch/meilisearch//blob/master/src/error.rs#:~:text=enum%20DateField" xlink:title="&lt;TABLE&gt;">
<polygon fill="yellow" stroke="none" points="2403.5,-1016.5 2403.5,-1053.5 2548.5,-1053.5 2548.5,-1016.5 2403.5,-1016.5"/>
<polygon fill="none" stroke="black" points="2403.5,-1016.5 2403.5,-1053.5 2548.5,-1053.5 2548.5,-1016.5 2403.5,-1016.5"/>
<text text-anchor="start" x="2443" y="-1032.3" font-family="Arial" font-weight="bold" font-size="14.00">DateField</text>
<polygon fill="white" stroke="none" points="2403.5,-904.5 2403.5,-1016.5 2548.5,-1016.5 2548.5,-904.5 2403.5,-904.5"/>
<polygon fill="none" stroke="black" points="2403.5,-904.5 2403.5,-1016.5 2548.5,-1016.5 2548.5,-904.5 2403.5,-904.5"/>
<text text-anchor="start" x="2414.5" y="-994.3" font-family="Arial" font-size="14.00">BeforeEnqueuedAt</text>
<text text-anchor="start" x="2414.5" y="-979.3" font-family="Arial" font-size="14.00">AfterEnqueuedAt</text>
<text text-anchor="start" x="2414.5" y="-964.3" font-family="Arial" font-size="14.00">BeforeStartedAt</text>
<text text-anchor="start" x="2414.5" y="-949.3" font-family="Arial" font-size="14.00">AfterStartedAt</text>
<text text-anchor="start" x="2414.5" y="-934.3" font-family="Arial" font-size="14.00">BeforeFinishedAt</text>
<text text-anchor="start" x="2414.5" y="-919.3" font-family="Arial" font-size="14.00">AfterFinishedAt</text>
<polygon fill="none" stroke="black" points="2402,-904 2402,-1055 2549,-1055 2549,-904 2402,-904"/>
</a>
</g>
</g>
<!-- ndError -->
<g id="node12" class="node"><title>ndError</title>
<g id="a_node12_11"><a xlink:href="https://github.com/meilisearch/meilisearch//blob/master/src/error.rs#:~:text=enum%20Error" xlink:title="&lt;TABLE&gt;">
<polygon fill="yellow" stroke="none" points="2584.5,-1181.5 2584.5,-1218.5 2880.5,-1218.5 2880.5,-1181.5 2584.5,-1181.5"/>
<polygon fill="none" stroke="black" points="2584.5,-1181.5 2584.5,-1218.5 2880.5,-1218.5 2880.5,-1181.5 2584.5,-1181.5"/>
<text text-anchor="start" x="2714" y="-1197.3" font-family="Arial" font-weight="bold" font-size="14.00">Error</text>
<polygon fill="white" stroke="none" points="2584.5,-739.5 2584.5,-1181.5 2880.5,-1181.5 2880.5,-739.5 2584.5,-739.5"/>
<polygon fill="none" stroke="black" points="2584.5,-739.5 2584.5,-1181.5 2880.5,-1181.5 2880.5,-739.5 2584.5,-739.5"/>
<text text-anchor="start" x="2595.5" y="-1159.3" font-family="Arial" font-size="14.00">IndexNotFound(String)</text>
<text text-anchor="start" x="2595.5" y="-1144.3" font-family="Arial" font-size="14.00">IndexAlreadyExists(String)</text>
<text text-anchor="start" x="2595.5" y="-1129.3" font-family="Arial" font-size="14.00">SwapDuplicateIndexFound(String)</text>
<text text-anchor="start" x="2595.5" y="-1114.3" font-family="Arial" font-size="14.00">SwapDuplicateIndexesFound(Vec&lt;String&gt;)</text>
<text text-anchor="start" x="2595.5" y="-1099.3" font-family="Arial" font-size="14.00">SwapIndexNotFound(String)</text>
<text text-anchor="start" x="2595.5" y="-1084.3" font-family="Arial" font-size="14.00">SwapIndexesNotFound(Vec&lt;String&gt;)</text>
<text text-anchor="start" x="2595.5" y="-1069.3" font-family="Arial" font-size="14.00">CorruptedDump</text>
<text text-anchor="start" x="2595.5" y="-1054.3" font-family="Arial" font-size="14.00">InvalidTaskDate</text>
<text text-anchor="start" x="2595.5" y="-1039.3" font-family="Arial" font-size="14.00">InvalidTaskUids</text>
<text text-anchor="start" x="2595.5" y="-1024.3" font-family="Arial" font-size="14.00">InvalidTaskStatuses</text>
<text text-anchor="start" x="2595.5" y="-1009.3" font-family="Arial" font-size="14.00">InvalidTaskTypes</text>
<text text-anchor="start" x="2595.5" y="-994.3" font-family="Arial" font-size="14.00">InvalidTaskCanceledBy</text>
<text text-anchor="start" x="2595.5" y="-979.3" font-family="Arial" font-size="14.00">InvalidIndexUid</text>
<text text-anchor="start" x="2595.5" y="-964.3" font-family="Arial" font-size="14.00">TaskNotFound(TaskId)</text>
<text text-anchor="start" x="2595.5" y="-949.3" font-family="Arial" font-size="14.00">TaskDeletionWithEmptyQuery</text>
<text text-anchor="start" x="2595.5" y="-934.3" font-family="Arial" font-size="14.00">TaskCancelationWithEmptyQuery</text>
<text text-anchor="start" x="2595.5" y="-919.3" font-family="Arial" font-size="14.00">Dump(dump::Error)</text>
<text text-anchor="start" x="2595.5" y="-904.3" font-family="Arial" font-size="14.00">Heed(heed::Error)</text>
<text text-anchor="start" x="2595.5" y="-889.3" font-family="Arial" font-size="14.00">Milli(milli::Error)</text>
<text text-anchor="start" x="2595.5" y="-874.3" font-family="Arial" font-size="14.00">ProcessBatchPanicked</text>
<text text-anchor="start" x="2595.5" y="-859.3" font-family="Arial" font-size="14.00">FileStore(file_store::Error)</text>
<text text-anchor="start" x="2595.5" y="-844.3" font-family="Arial" font-size="14.00">IoError(std::io::Error)</text>
<text text-anchor="start" x="2595.5" y="-829.3" font-family="Arial" font-size="14.00">Persist(tempfile::PersistError)</text>
<text text-anchor="start" x="2595.5" y="-814.3" font-family="Arial" font-size="14.00">Anyhow(anyhow::Error)</text>
<text text-anchor="start" x="2595.5" y="-799.3" font-family="Arial" font-size="14.00">CreateBatch(Box&lt;Self&gt;)</text>
<text text-anchor="start" x="2595.5" y="-784.3" font-family="Arial" font-size="14.00">CorruptedTaskQueue</text>
<text text-anchor="start" x="2595.5" y="-769.3" font-family="Arial" font-size="14.00">TaskDatabaseUpdate(Box&lt;Self&gt;)</text>
<text text-anchor="start" x="2595.5" y="-754.3" font-family="Arial" font-size="14.00">HeedTransaction(heed::Error)</text>
<polygon fill="none" stroke="black" points="2583.5,-739 2583.5,-1220 2881.5,-1220 2881.5,-739 2583.5,-739"/>
</a>
</g>
</g>
<!-- ndAutobatchKind -->
<g id="node13" class="node"><title>ndAutobatchKind</title>
<g id="a_node13_12"><a xlink:href="https://github.com/meilisearch/meilisearch//blob/master/src/autobatcher.rs#:~:text=enum%20AutobatchKind" xlink:title="&lt;TABLE&gt;">
<polygon fill="yellow" stroke="none" points="2027.5,-1031.5 2027.5,-1068.5 2167.5,-1068.5 2167.5,-1031.5 2027.5,-1031.5"/>
<polygon fill="none" stroke="black" points="2027.5,-1031.5 2027.5,-1068.5 2167.5,-1068.5 2167.5,-1031.5 2027.5,-1031.5"/>
<text text-anchor="start" x="2045.5" y="-1047.3" font-family="Arial" font-weight="bold" font-size="14.00">AutobatchKind</text>
<polygon fill="white" stroke="none" points="2027.5,-889.5 2027.5,-1031.5 2167.5,-1031.5 2167.5,-889.5 2027.5,-889.5"/>
<polygon fill="none" stroke="black" points="2027.5,-889.5 2027.5,-1031.5 2167.5,-1031.5 2167.5,-889.5 2027.5,-889.5"/>
<text text-anchor="start" x="2038.5" y="-1009.3" font-family="Arial" font-size="14.00">DocumentImport</text>
<text text-anchor="start" x="2038.5" y="-994.3" font-family="Arial" font-size="14.00">DocumentDeletion</text>
<text text-anchor="start" x="2038.5" y="-979.3" font-family="Arial" font-size="14.00">DocumentClear</text>
<text text-anchor="start" x="2038.5" y="-964.3" font-family="Arial" font-size="14.00">Settings</text>
<text text-anchor="start" x="2038.5" y="-949.3" font-family="Arial" font-size="14.00">IndexCreation</text>
<text text-anchor="start" x="2038.5" y="-934.3" font-family="Arial" font-size="14.00">IndexDeletion</text>
<text text-anchor="start" x="2038.5" y="-919.3" font-family="Arial" font-size="14.00">IndexUpdate</text>
<text text-anchor="start" x="2038.5" y="-904.3" font-family="Arial" font-size="14.00">IndexSwap</text>
<polygon fill="none" stroke="black" points="2026.5,-889 2026.5,-1070 2168.5,-1070 2168.5,-889 2026.5,-889"/>
</a>
</g>
</g>
<!-- ndBatchKind -->
<g id="node14" class="node"><title>ndBatchKind</title>
<g id="a_node14_13"><a xlink:href="https://github.com/meilisearch/meilisearch//blob/master/src/autobatcher.rs#:~:text=enum%20BatchKind" xlink:title="&lt;TABLE&gt;">
<polygon fill="yellow" stroke="none" points="1984.5,-634 1984.5,-671 2211.5,-671 2211.5,-634 1984.5,-634"/>
<polygon fill="none" stroke="black" points="1984.5,-634 1984.5,-671 2211.5,-671 2211.5,-634 1984.5,-634"/>
<text text-anchor="start" x="2061.5" y="-649.8" font-family="Arial" font-weight="bold" font-size="14.00">BatchKind</text>
<polygon fill="white" stroke="none" points="1984.5,-462 1984.5,-634 2211.5,-634 2211.5,-462 1984.5,-462"/>
<polygon fill="none" stroke="black" points="1984.5,-462 1984.5,-634 2211.5,-634 2211.5,-462 1984.5,-462"/>
<text text-anchor="start" x="1995.5" y="-611.8" font-family="Arial" font-size="14.00">DocumentClear</text>
<text text-anchor="start" x="1995.5" y="-596.8" font-family="Arial" font-size="14.00">DocumentOperation</text>
<text text-anchor="start" x="1995.5" y="-581.8" font-family="Arial" font-size="14.00">DocumentDeletion</text>
<text text-anchor="start" x="1995.5" y="-566.8" font-family="Arial" font-size="14.00">ClearAndSettings</text>
<text text-anchor="start" x="1995.5" y="-551.8" font-family="Arial" font-size="14.00">SettingsAndDocumentOperation</text>
<text text-anchor="start" x="1995.5" y="-536.8" font-family="Arial" font-size="14.00">Settings</text>
<text text-anchor="start" x="1995.5" y="-521.8" font-family="Arial" font-size="14.00">IndexDeletion</text>
<text text-anchor="start" x="1995.5" y="-506.8" font-family="Arial" font-size="14.00">IndexCreation</text>
<text text-anchor="start" x="1995.5" y="-491.8" font-family="Arial" font-size="14.00">IndexUpdate</text>
<text text-anchor="start" x="1995.5" y="-476.8" font-family="Arial" font-size="14.00">IndexSwap</text>
<polygon fill="none" stroke="black" points="1983,-461.5 1983,-672.5 2212,-672.5 2212,-461.5 1983,-461.5"/>
</a>
</g>
</g>
<!-- ndAutobatchKind&#45;&gt;ndBatchKind -->
<g id="edge9" class="edge"><title>ndAutobatchKind&#45;&gt;ndBatchKind</title>
<path fill="none" stroke="black" stroke-dasharray="5,2" d="M2097.5,-884.838C2097.5,-826.11 2097.5,-749.87 2097.5,-686.895"/>
<polygon fill="black" stroke="black" points="2097.5,-676.506 2102,-686.506 2097.5,-681.506 2097.5,-686.506 2097.5,-686.506 2097.5,-686.506 2097.5,-681.506 2093,-686.507 2097.5,-676.506 2097.5,-676.506"/>
</g>
<!-- ndBatchKind&#45;&gt;ndIndexScheduler -->
<g id="edge10" class="edge"><title>ndBatchKind&#45;&gt;ndIndexScheduler</title>
<path fill="none" stroke="black" stroke-dasharray="5,2" d="M1996.87,-457.433C1986.74,-449.238 1976.22,-441.605 1965.5,-435 1835.2,-354.715 1674.16,-298.34 1539.31,-261.022"/>
<polygon fill="black" stroke="black" points="1529.65,-258.368 1540.48,-256.677 1534.47,-259.692 1539.29,-261.016 1539.29,-261.016 1539.29,-261.016 1534.47,-259.692 1538.1,-265.355 1529.65,-258.368 1529.65,-258.368"/>
</g>
<!-- ndIndexMapper -->
<g id="node15" class="node"><title>ndIndexMapper</title>
<g id="a_node15_14"><a xlink:href="https://github.com/meilisearch/meilisearch//blob/master/src/index_mapper.rs#:~:text=struct%20IndexMapper" xlink:title="&lt;TABLE&gt;">
<polygon fill="lightblue" stroke="none" points="2247.5,-597 2247.5,-634 2647.5,-634 2647.5,-597 2247.5,-597"/>
<polygon fill="none" stroke="black" points="2247.5,-597 2247.5,-634 2647.5,-634 2647.5,-597 2247.5,-597"/>
<text text-anchor="start" x="2401.5" y="-612.8" font-family="Arial" font-weight="bold" font-size="14.00">IndexMapper</text>
<polygon fill="white" stroke="none" points="2247.5,-500 2247.5,-597 2647.5,-597 2647.5,-500 2247.5,-500"/>
<polygon fill="none" stroke="black" points="2247.5,-500 2247.5,-597 2647.5,-597 2647.5,-500 2247.5,-500"/>
<text text-anchor="start" x="2258.5" y="-574.8" font-family="Arial" font-size="14.00">&#45; index_map: Arc&lt;RwLock&lt;HashMap&lt;Uuid, IndexStatus&gt;&gt;&gt;</text>
<text text-anchor="start" x="2258.5" y="-559.8" font-family="Arial" font-size="14.00">&#45; index_mapping: Database&lt;Str, UuidCodec&gt;</text>
<text text-anchor="start" x="2258.5" y="-544.8" font-family="Arial" font-size="14.00">&#45; base_path: PathBuf</text>
<text text-anchor="start" x="2258.5" y="-529.8" font-family="Arial" font-size="14.00">&#45; index_size: usize</text>
<text text-anchor="start" x="2258.5" y="-514.8" font-family="Arial" font-size="14.00">+ indexer_config: Arc&lt;IndexerConfig&gt;</text>
<polygon fill="none" stroke="black" points="2246.5,-499 2246.5,-635 2648.5,-635 2648.5,-499 2246.5,-499"/>
</a>
</g>
</g>
<!-- ndIndexMapper&#45;&gt;ndIndexScheduler -->
<g id="edge11" class="edge"><title>ndIndexMapper&#45;&gt;ndIndexScheduler</title>
<path fill="none" stroke="black" d="M2343.08,-494.835C2307.86,-473.227 2267.55,-450.999 2228.5,-435 2005.44,-343.609 1738.15,-282.058 1541.67,-245.035"/>
<polygon fill="black" stroke="black" points="1541.51,-245.005 1534.88,-247.832 1529.72,-242.796 1536.35,-239.969 1541.51,-245.005"/>
</g>
<!-- ndIndexStatus -->
<g id="node16" class="node"><title>ndIndexStatus</title>
<g id="a_node16_15"><a xlink:href="https://github.com/meilisearch/meilisearch//blob/master/src/index_mapper.rs#:~:text=enum%20IndexStatus" xlink:title="&lt;TABLE&gt;">
<polygon fill="yellow" stroke="none" points="2916.5,-994.5 2916.5,-1031.5 3150.5,-1031.5 3150.5,-994.5 2916.5,-994.5"/>
<polygon fill="none" stroke="black" points="2916.5,-994.5 2916.5,-1031.5 3150.5,-1031.5 3150.5,-994.5 2916.5,-994.5"/>
<text text-anchor="start" x="2992" y="-1010.3" font-family="Arial" font-weight="bold" font-size="14.00">IndexStatus</text>
<polygon fill="white" stroke="none" points="2916.5,-927.5 2916.5,-994.5 3150.5,-994.5 3150.5,-927.5 2916.5,-927.5"/>
<polygon fill="none" stroke="black" points="2916.5,-927.5 2916.5,-994.5 3150.5,-994.5 3150.5,-927.5 2916.5,-927.5"/>
<text text-anchor="start" x="2927.5" y="-972.3" font-family="Arial" font-size="14.00">BeingDeleted</text>
<text text-anchor="start" x="2927.5" y="-957.3" font-family="Arial" font-size="14.00">BeingResized(Arc&lt;SignalEvent&gt;)</text>
<text text-anchor="start" x="2927.5" y="-942.3" font-family="Arial" font-size="14.00">Available(Index)</text>
<polygon fill="none" stroke="black" points="2915.5,-926.5 2915.5,-1032.5 3151.5,-1032.5 3151.5,-926.5 2915.5,-926.5"/>
</a>
</g>
</g>
</g>
</svg>
