<?xml version="1.0" encoding="UTF-8" standalone="no"?>
<!DOCTYPE svg PUBLIC "-//W3C//DTD SVG 1.1//EN"
 "http://www.w3.org/Graphics/SVG/1.1/DTD/svg11.dtd">
<!-- Generated by graphviz version 2.38.0 (20140413.2041)
 -->
<!-- Title: ml Pages: 1 -->
<svg width="1608pt" height="221pt"
 viewBox="0.00 0.00 1608.00 221.00" xmlns="http://www.w3.org/2000/svg" xmlns:xlink="http://www.w3.org/1999/xlink">
<g id="graph0" class="graph" transform="scale(1 1) rotate(0) translate(4 217)">
<title>ml</title>
<polygon fill="white" stroke="none" points="-4,4 -4,-217 1604,-217 1604,4 -4,4"/>
<!-- ndQuery -->
<g id="node1" class="node"><title>ndQuery</title>
<g id="a_node1_0"><a xlink:href="https://github.com/meilisearch/meilisearch//blob/master/src/lib.rs#:~:text=struct%20Query" xlink:title="&lt;TABLE&gt;">
<polygon fill="lightblue" stroke="none" points="9.5,-87.5 9.5,-124.5 74.5,-124.5 74.5,-87.5 9.5,-87.5"/>
<polygon fill="none" stroke="black" points="9.5,-87.5 9.5,-124.5 74.5,-124.5 74.5,-87.5 9.5,-87.5"/>
<text text-anchor="start" x="20.5" y="-103.3" font-family="Arial" font-weight="bold" font-size="14.00">Query</text>
<polygon fill="none" stroke="black" points="8,-87 8,-126 75,-126 75,-87 8,-87"/>
</a>
</g>
</g>
<!-- ndIndexScheduler -->
<g id="node6" class="node"><title>ndIndexScheduler</title>
<g id="a_node6_1"><a xlink:href="https://github.com/meilisearch/meilisearch//blob/master/src/lib.rs#:~:text=struct%20IndexScheduler" xlink:title="&lt;TABLE&gt;">
<polygon fill="lightblue" stroke="none" points="658.5,-4.5 658.5,-41.5 790.5,-41.5 790.5,-4.5 658.5,-4.5"/>
<polygon fill="none" stroke="black" points="658.5,-4.5 658.5,-41.5 790.5,-41.5 790.5,-4.5 658.5,-4.5"/>
<text text-anchor="start" x="669.5" y="-20.3" font-family="Arial" font-weight="bold" font-size="14.00">IndexScheduler</text>
<polygon fill="none" stroke="black" points="657.5,-4 657.5,-43 791.5,-43 791.5,-4 657.5,-4"/>
</a>
</g>
</g>
<!-- ndQuery&#45;&gt;ndIndexScheduler -->
<g id="edge1" class="edge"><title>ndQuery&#45;&gt;ndIndexScheduler</title>
<path fill="none" stroke="black" stroke-dasharray="5,2" d="M83.1392,-85.8513C86.2671,-84.7714 89.4088,-83.8022 92.5,-83 283.386,-33.4659 516.258,-24.599 639.118,-23.7478"/>
<polygon fill="black" stroke="black" points="649.216,-23.6943 639.24,-28.2473 644.216,-23.7208 639.216,-23.7473 639.216,-23.7473 639.216,-23.7473 644.216,-23.7208 639.192,-19.2474 649.216,-23.6943 649.216,-23.6943"/>
</g>
<!-- ndProcessingTasks -->
<g id="node2" class="node"><title>ndProcessingTasks</title>
<g id="a_node2_2"><a xlink:href="https://github.com/meilisearch/meilisearch//blob/master/src/lib.rs#:~:text=struct%20ProcessingTasks" xlink:title="&lt;TABLE&gt;">
<polygon fill="lightblue" stroke="none" points="110.5,-87.5 110.5,-124.5 254.5,-124.5 254.5,-87.5 110.5,-87.5"/>
<polygon fill="none" stroke="black" points="110.5,-87.5 110.5,-124.5 254.5,-124.5 254.5,-87.5 110.5,-87.5"/>
<text text-anchor="start" x="121.5" y="-103.3" font-family="Arial" font-weight="bold" font-size="14.00">ProcessingTasks</text>
<polygon fill="none" stroke="black" points="109.5,-87 109.5,-126 255.5,-126 255.5,-87 109.5,-87"/>
</a>
</g>
</g>
<!-- ndProcessingTasks&#45;&gt;ndIndexScheduler -->
<g id="edge2" class="edge"><title>ndProcessingTasks&#45;&gt;ndIndexScheduler</title>
<path fill="none" stroke="black" d="M263.841,-84.7144C266.758,-84.1126 269.651,-83.5385 272.5,-83 398.437,-59.1918 545.961,-42.0917 637.337,-32.7424"/>
<polygon fill="black" stroke="black" points="637.359,-32.7402 642.925,-28.1555 649.298,-31.5301 643.732,-36.1148 637.359,-32.7402"/>
</g>
<!-- ndMustStopProcessing -->
<g id="node3" class="node"><title>ndMustStopProcessing</title>
<g id="a_node3_3"><a xlink:href="https://github.com/meilisearch/meilisearch//blob/master/src/lib.rs#:~:text=struct%20MustStopProcessing" xlink:title="&lt;TABLE&gt;">
<polygon fill="lightblue" stroke="none" points="291.5,-87.5 291.5,-124.5 460.5,-124.5 460.5,-87.5 291.5,-87.5"/>
<polygon fill="none" stroke="black" points="291.5,-87.5 291.5,-124.5 460.5,-124.5 460.5,-87.5 291.5,-87.5"/>
<text text-anchor="start" x="302.5" y="-103.3" font-family="Arial" font-weight="bold" font-size="14.00">MustStopProcessing</text>
<polygon fill="none" stroke="black" points="290,-87 290,-126 461,-126 461,-87 290,-87"/>
</a>
</g>
</g>
<!-- ndMustStopProcessing&#45;&gt;ndIndexScheduler -->
<g id="edge3" class="edge"><title>ndMustStopProcessing&#45;&gt;ndIndexScheduler</title>
<path fill="none" stroke="black" d="M469.026,-83.7935C521.475,-71.6204 586.465,-56.5368 637.769,-44.6295"/>
<polygon fill="black" stroke="black" points="637.808,-44.6207 642.748,-39.3677 649.497,-41.9076 644.557,-47.1606 637.808,-44.6207"/>
</g>
<!-- ndBreakpoint -->
<g id="node4" class="node"><title>ndBreakpoint</title>
<g id="a_node4_4"><a xlink:href="https://github.com/meilisearch/meilisearch//blob/master/src/lib.rs#:~:text=enum%20Breakpoint" xlink:title="&lt;TABLE&gt;">
<polygon fill="yellow" stroke="none" points="496.5,-87.5 496.5,-124.5 595.5,-124.5 595.5,-87.5 496.5,-87.5"/>
<polygon fill="none" stroke="black" points="496.5,-87.5 496.5,-124.5 595.5,-124.5 595.5,-87.5 496.5,-87.5"/>
<text text-anchor="start" x="507.5" y="-103.3" font-family="Arial" font-weight="bold" font-size="14.00">Breakpoint</text>
<polygon fill="none" stroke="black" points="495,-87 495,-126 596,-126 596,-87 495,-87"/>
</a>
</g>
</g>
<!-- ndBreakpoint&#45;&gt;ndIndexScheduler -->
<g id="edge4" class="edge"><title>ndBreakpoint&#45;&gt;ndIndexScheduler</title>
<path fill="none" stroke="black" stroke-dasharray="5,2" d="M595.361,-82.937C616.512,-73.3661 641.363,-62.1205 663.587,-52.0639"/>
<polygon fill="black" stroke="black" points="663.663,-52.0296 667.48,-45.9117 674.596,-47.0824 670.778,-53.2003 663.663,-52.0296"/>
</g>
<!-- ndIndexSchedulerOptions -->
<g id="node5" class="node"><title>ndIndexSchedulerOptions</title>
<g id="a_node5_5"><a xlink:href="https://github.com/meilisearch/meilisearch//blob/master/src/lib.rs#:~:text=struct%20IndexSchedulerOptions" xlink:title="&lt;TABLE&gt;">
<polygon fill="lightblue" stroke="none" points="631.5,-87.5 631.5,-124.5 818.5,-124.5 818.5,-87.5 631.5,-87.5"/>
<polygon fill="none" stroke="black" points="631.5,-87.5 631.5,-124.5 818.5,-124.5 818.5,-87.5 631.5,-87.5"/>
<text text-anchor="start" x="642.5" y="-103.3" font-family="Arial" font-weight="bold" font-size="14.00">IndexSchedulerOptions</text>
<polygon fill="none" stroke="black" points="630,-87 630,-126 819,-126 819,-87 630,-87"/>
</a>
</g>
</g>
<!-- ndIndexSchedulerOptions&#45;&gt;ndIndexScheduler -->
<g id="edge5" class="edge"><title>ndIndexSchedulerOptions&#45;&gt;ndIndexScheduler</title>
<path fill="none" stroke="black" stroke-dasharray="5,2" d="M724.5,-82.937C724.5,-75.0164 724.5,-65.9488 724.5,-57.3574"/>
<polygon fill="black" stroke="black" points="724.5,-47.2229 729,-57.2229 724.5,-52.2229 724.5,-57.2229 724.5,-57.2229 724.5,-57.2229 724.5,-52.2229 720,-57.223 724.5,-47.2229 724.5,-47.2229"/>
</g>
<!-- ndBatch -->
<g id="node7" class="node"><title>ndBatch</title>
<g id="a_node7_6"><a xlink:href="https://github.com/meilisearch/meilisearch//blob/master/src/batch.rs#:~:text=enum%20Batch" xlink:title="&lt;TABLE&gt;">
<polygon fill="yellow" stroke="none" points="854.5,-87.5 854.5,-124.5 917.5,-124.5 917.5,-87.5 854.5,-87.5"/>
<polygon fill="none" stroke="black" points="854.5,-87.5 854.5,-124.5 917.5,-124.5 917.5,-87.5 854.5,-87.5"/>
<text text-anchor="start" x="865.5" y="-103.3" font-family="Arial" font-weight="bold" font-size="14.00">Batch</text>
<polygon fill="none" stroke="black" points="853,-87 853,-126 918,-126 918,-87 853,-87"/>
</a>
</g>
</g>
<!-- ndBatch&#45;&gt;ndIndexScheduler -->
<g id="edge6" class="edge"><title>ndBatch&#45;&gt;ndIndexScheduler</title>
<path fill="none" stroke="black" stroke-dasharray="5,2" d="M844.873,-85.0603C824.74,-74.9313 800.155,-62.5627 778.465,-51.65"/>
<polygon fill="black" stroke="black" points="769.368,-47.0731 780.323,-47.5476 773.834,-49.3203 778.301,-51.5675 778.301,-51.5675 778.301,-51.5675 773.834,-49.3203 776.278,-55.5874 769.368,-47.0731 769.368,-47.0731"/>
</g>
<!-- ndIndexOperation -->
<g id="node8" class="node"><title>ndIndexOperation</title>
<g id="a_node8_7"><a xlink:href="https://github.com/meilisearch/meilisearch//blob/master/src/batch.rs#:~:text=enum%20IndexOperation" xlink:title="&lt;TABLE&gt;">
<polygon fill="yellow" stroke="none" points="953.5,-87.5 953.5,-124.5 1083.5,-124.5 1083.5,-87.5 953.5,-87.5"/>
<polygon fill="none" stroke="black" points="953.5,-87.5 953.5,-124.5 1083.5,-124.5 1083.5,-87.5 953.5,-87.5"/>
<text text-anchor="start" x="964.5" y="-103.3" font-family="Arial" font-weight="bold" font-size="14.00">IndexOperation</text>
<polygon fill="none" stroke="black" points="952.5,-87 952.5,-126 1084.5,-126 1084.5,-87 952.5,-87"/>
</a>
</g>
</g>
<!-- ndIndexOperation&#45;&gt;ndIndexScheduler -->
<g id="edge7" class="edge"><title>ndIndexOperation&#45;&gt;ndIndexScheduler</title>
<path fill="none" stroke="black" stroke-dasharray="5,2" d="M944.311,-85.0603C903.28,-73.7556 852.122,-59.6612 809.487,-47.9147"/>
<polygon fill="black" stroke="black" points="799.688,-45.2149 810.524,-43.5328 804.508,-46.543 809.328,-47.8711 809.328,-47.8711 809.328,-47.8711 804.508,-46.543 808.133,-52.2095 799.688,-45.2149 799.688,-45.2149"/>
</g>
<!-- ndDateField -->
<g id="node9" class="node"><title>ndDateField</title>
<g id="a_node9_8"><a xlink:href="https://github.com/meilisearch/meilisearch//blob/master/src/error.rs#:~:text=enum%20DateField" xlink:title="&lt;TABLE&gt;">
<polygon fill="yellow" stroke="none" points="1266.5,-170.5 1266.5,-207.5 1354.5,-207.5 1354.5,-170.5 1266.5,-170.5"/>
<polygon fill="none" stroke="black" points="1266.5,-170.5 1266.5,-207.5 1354.5,-207.5 1354.5,-170.5 1266.5,-170.5"/>
<text text-anchor="start" x="1277.5" y="-186.3" font-family="Arial" font-weight="bold" font-size="14.00">DateField</text>
<polygon fill="none" stroke="black" points="1265.5,-170 1265.5,-209 1355.5,-209 1355.5,-170 1265.5,-170"/>
</a>
</g>
</g>
<!-- ndError -->
<g id="node10" class="node"><title>ndError</title>
<g id="a_node10_9"><a xlink:href="https://github.com/meilisearch/meilisearch//blob/master/src/error.rs#:~:text=enum%20Error" xlink:title="&lt;TABLE&gt;">
<polygon fill="yellow" stroke="none" points="1391.5,-170.5 1391.5,-207.5 1450.5,-207.5 1450.5,-170.5 1391.5,-170.5"/>
<polygon fill="none" stroke="black" points="1391.5,-170.5 1391.5,-207.5 1450.5,-207.5 1450.5,-170.5 1391.5,-170.5"/>
<text text-anchor="start" x="1402.5" y="-186.3" font-family="Arial" font-weight="bold" font-size="14.00">Error</text>
<polygon fill="none" stroke="black" points="1390,-170 1390,-209 1451,-209 1451,-170 1390,-170"/>
</a>
</g>
</g>
<!-- ndAutobatchKind -->
<g id="node11" class="node"><title>ndAutobatchKind</title>
<g id="a_node11_10"><a xlink:href="https://github.com/meilisearch/meilisearch//blob/master/src/autobatcher.rs#:~:text=enum%20AutobatchKind" xlink:title="&lt;TABLE&gt;">
<polygon fill="yellow" stroke="none" points="1104.5,-170.5 1104.5,-207.5 1230.5,-207.5 1230.5,-170.5 1104.5,-170.5"/>
<polygon fill="none" stroke="black" points="1104.5,-170.5 1104.5,-207.5 1230.5,-207.5 1230.5,-170.5 1104.5,-170.5"/>
<text text-anchor="start" x="1115.5" y="-186.3" font-family="Arial" font-weight="bold" font-size="14.00">AutobatchKind</text>
<polygon fill="none" stroke="black" points="1103.5,-170 1103.5,-209 1231.5,-209 1231.5,-170 1103.5,-170"/>
</a>
</g>
</g>
<!-- ndBatchKind -->
<g id="node12" class="node"><title>ndBatchKind</title>
<g id="a_node12_11"><a xlink:href="https://github.com/meilisearch/meilisearch//blob/master/src/autobatcher.rs#:~:text=enum%20BatchKind" xlink:title="&lt;TABLE&gt;">
<polygon fill="yellow" stroke="none" points="1120.5,-87.5 1120.5,-124.5 1215.5,-124.5 1215.5,-87.5 1120.5,-87.5"/>
<polygon fill="none" stroke="black" points="1120.5,-87.5 1120.5,-124.5 1215.5,-124.5 1215.5,-87.5 1120.5,-87.5"/>
<text text-anchor="start" x="1131.5" y="-103.3" font-family="Arial" font-weight="bold" font-size="14.00">BatchKind</text>
<polygon fill="none" stroke="black" points="1119,-87 1119,-126 1216,-126 1216,-87 1119,-87"/>
</a>
</g>
</g>
<!-- ndAutobatchKind&#45;&gt;ndBatchKind -->
<g id="edge8" class="edge"><title>ndAutobatchKind&#45;&gt;ndBatchKind</title>
<path fill="none" stroke="black" stroke-dasharray="5,2" d="M1167.5,-165.937C1167.5,-158.016 1167.5,-148.949 1167.5,-140.357"/>
<polygon fill="black" stroke="black" points="1167.5,-130.223 1172,-140.223 1167.5,-135.223 1167.5,-140.223 1167.5,-140.223 1167.5,-140.223 1167.5,-135.223 1163,-140.223 1167.5,-130.223 1167.5,-130.223"/>
</g>
<!-- ndBatchKind&#45;&gt;ndIndexScheduler -->
<g id="edge9" class="edge"><title>ndBatchKind&#45;&gt;ndIndexScheduler</title>
<path fill="none" stroke="black" stroke-dasharray="5,2" d="M1110.81,-85.4701C1107.67,-84.5833 1104.56,-83.752 1101.5,-83 1002.71,-58.693 886.743,-42.4941 809.779,-33.4243"/>
<polygon fill="black" stroke="black" points="799.654,-32.2457 810.107,-28.9321 804.62,-32.8238 809.587,-33.402 809.587,-33.402 809.587,-33.402 804.62,-32.8238 809.066,-37.8718 799.654,-32.2457 799.654,-32.2457"/>
</g>
<!-- ndIndexMapper -->
<g id="node13" class="node"><title>ndIndexMapper</title>
<g id="a_node13_12"><a xlink:href="https://github.com/meilisearch/meilisearch//blob/master/src/index_mapper.rs#:~:text=struct%20IndexMapper" xlink:title="&lt;TABLE&gt;">
<polygon fill="lightblue" stroke="none" points="1251.5,-87.5 1251.5,-124.5 1365.5,-124.5 1365.5,-87.5 1251.5,-87.5"/>
<polygon fill="none" stroke="black" points="1251.5,-87.5 1251.5,-124.5 1365.5,-124.5 1365.5,-87.5 1251.5,-87.5"/>
<text text-anchor="start" x="1262.5" y="-103.3" font-family="Arial" font-weight="bold" font-size="14.00">IndexMapper</text>
<polygon fill="none" stroke="black" points="1250.5,-87 1250.5,-126 1366.5,-126 1366.5,-87 1250.5,-87"/>
</a>
</g>
</g>
<!-- ndIndexMapper&#45;&gt;ndIndexScheduler -->
<g id="edge10" class="edge"><title>ndIndexMapper&#45;&gt;ndIndexScheduler</title>
<path fill="none" stroke="black" d="M1242.35,-85.1827C1239.03,-84.3942 1235.74,-83.6601 1232.5,-83 1086.43,-53.2013 913.411,-37.3246 811.648,-29.9272"/>
<polygon fill="black" stroke="black" points="811.567,-29.9216 805.297,-33.484 799.597,-29.0668 805.867,-25.5043 811.567,-29.9216"/>
</g>
<!-- ndIndexStatus -->
<g id="node14" class="node"><title>ndIndexStatus</title>
<g id="a_node14_13"><a xlink:href="https://github.com/meilisearch/meilisearch//blob/master/src/index_mapper.rs#:~:text=enum%20IndexStatus" xlink:title="&lt;TABLE&gt;">
<polygon fill="yellow" stroke="none" points="1486.5,-170.5 1486.5,-207.5 1591.5,-207.5 1591.5,-170.5 1486.5,-170.5"/>
<polygon fill="none" stroke="black" points="1486.5,-170.5 1486.5,-207.5 1591.5,-207.5 1591.5,-170.5 1486.5,-170.5"/>
<text text-anchor="start" x="1497.5" y="-186.3" font-family="Arial" font-weight="bold" font-size="14.00">IndexStatus</text>
<polygon fill="none" stroke="black" points="1485,-170 1485,-209 1592,-209 1592,-170 1485,-170"/>
</a>
</g>
</g>
</g>
</svg>
