<?xml version="1.0" encoding="UTF-8" standalone="no"?>
<!DOCTYPE svg PUBLIC "-//W3C//DTD SVG 1.1//EN"
 "http://www.w3.org/Graphics/SVG/1.1/DTD/svg11.dtd">
<!-- Generated by graphviz version 2.38.0 (20140413.2041)
 -->
<!-- Title: ml Pages: 1 -->
<svg width="1961pt" height="221pt"
 viewBox="0.00 0.00 1961.00 221.00" xmlns="http://www.w3.org/2000/svg" xmlns:xlink="http://www.w3.org/1999/xlink">
<g id="graph0" class="graph" transform="scale(1 1) rotate(0) translate(4 217)">
<title>ml</title>
<polygon fill="white" stroke="none" points="-4,4 -4,-217 1957,-217 1957,4 -4,4"/>
<!-- ndQuery -->
<g id="node1" class="node"><title>ndQuery</title>
<g id="a_node1_0"><a xlink:href="https://github.com/meilisearch/meilisearch//blob/master/src/lib.rs#:~:text=struct%20Query" xlink:title="&lt;TABLE&gt;">
<polygon fill="lightblue" stroke="none" points="9.5,-87.5 9.5,-124.5 74.5,-124.5 74.5,-87.5 9.5,-87.5"/>
<polygon fill="none" stroke="black" points="9.5,-87.5 9.5,-124.5 74.5,-124.5 74.5,-87.5 9.5,-87.5"/>
<text text-anchor="start" x="20.5" y="-103.3" font-family="Arial" font-weight="bold" font-size="14.00">Query</text>
<polygon fill="none" stroke="black" points="8,-87 8,-126 75,-126 75,-87 8,-87"/>
</a>
</g>
</g>
<!-- ndIndexScheduler -->
<g id="node6" class="node"><title>ndIndexScheduler</title>
<g id="a_node6_1"><a xlink:href="https://github.com/meilisearch/meilisearch//blob/master/src/lib.rs#:~:text=struct%20IndexScheduler" xlink:title="&lt;TABLE&gt;">
<polygon fill="lightblue" stroke="none" points="752.5,-4.5 752.5,-41.5 884.5,-41.5 884.5,-4.5 752.5,-4.5"/>
<polygon fill="none" stroke="black" points="752.5,-4.5 752.5,-41.5 884.5,-41.5 884.5,-4.5 752.5,-4.5"/>
<text text-anchor="start" x="763.5" y="-20.3" font-family="Arial" font-weight="bold" font-size="14.00">IndexScheduler</text>
<polygon fill="none" stroke="black" points="751.5,-4 751.5,-43 885.5,-43 885.5,-4 751.5,-4"/>
</a>
</g>
</g>
<!-- ndQuery&#45;&gt;ndIndexScheduler -->
<g id="edge1" class="edge"><title>ndQuery&#45;&gt;ndIndexScheduler</title>
<path fill="none" stroke="black" stroke-dasharray="5,2" d="M83.1285,-85.8094C86.2589,-84.7393 89.4041,-83.7838 92.5,-83 211.669,-52.8315 568.597,-34.7441 733.394,-27.7888"/>
<polygon fill="black" stroke="black" points="743.488,-27.3666 733.685,-32.2806 738.492,-27.5756 733.497,-27.7846 733.497,-27.7846 733.497,-27.7846 738.492,-27.5756 733.309,-23.2885 743.488,-27.3666 743.488,-27.3666"/>
</g>
<!-- ndProcessingTasks -->
<g id="node2" class="node"><title>ndProcessingTasks</title>
<g id="a_node2_2"><a xlink:href="https://github.com/meilisearch/meilisearch//blob/master/src/lib.rs#:~:text=struct%20ProcessingTasks" xlink:title="&lt;TABLE&gt;">
<polygon fill="lightblue" stroke="none" points="110.5,-87.5 110.5,-124.5 254.5,-124.5 254.5,-87.5 110.5,-87.5"/>
<polygon fill="none" stroke="black" points="110.5,-87.5 110.5,-124.5 254.5,-124.5 254.5,-87.5 110.5,-87.5"/>
<text text-anchor="start" x="121.5" y="-103.3" font-family="Arial" font-weight="bold" font-size="14.00">ProcessingTasks</text>
<polygon fill="none" stroke="black" points="109.5,-87 109.5,-126 255.5,-126 255.5,-87 109.5,-87"/>
</a>
</g>
</g>
<!-- ndProcessingTasks&#45;&gt;ndIndexScheduler -->
<g id="edge2" class="edge"><title>ndProcessingTasks&#45;&gt;ndIndexScheduler</title>
<path fill="none" stroke="black" d="M263.827,-84.6332C266.748,-84.0543 269.646,-83.5072 272.5,-83 433.152,-54.4534 623.044,-37.9289 731.269,-30.1112"/>
<polygon fill="black" stroke="black" points="731.442,-30.099 737.142,-25.6826 743.411,-29.246 737.711,-33.6624 731.442,-30.099"/>
</g>
<!-- ndMustStopProcessing -->
<g id="node3" class="node"><title>ndMustStopProcessing</title>
<g id="a_node3_3"><a xlink:href="https://github.com/meilisearch/meilisearch//blob/master/src/lib.rs#:~:text=struct%20MustStopProcessing" xlink:title="&lt;TABLE&gt;">
<polygon fill="lightblue" stroke="none" points="291.5,-87.5 291.5,-124.5 460.5,-124.5 460.5,-87.5 291.5,-87.5"/>
<polygon fill="none" stroke="black" points="291.5,-87.5 291.5,-124.5 460.5,-124.5 460.5,-87.5 291.5,-87.5"/>
<text text-anchor="start" x="302.5" y="-103.3" font-family="Arial" font-weight="bold" font-size="14.00">MustStopProcessing</text>
<polygon fill="none" stroke="black" points="290,-87 290,-126 461,-126 461,-87 290,-87"/>
</a>
</g>
</g>
<!-- ndMustStopProcessing&#45;&gt;ndIndexScheduler -->
<g id="edge3" class="edge"><title>ndMustStopProcessing&#45;&gt;ndIndexScheduler</title>
<path fill="none" stroke="black" d="M469.12,-84.6686C471.943,-84.0981 474.742,-83.5405 477.5,-83 563.551,-66.1376 662.35,-49.4834 731.374,-38.2833"/>
<polygon fill="black" stroke="black" points="731.63,-38.242 736.915,-33.3353 743.476,-36.326 738.192,-41.2327 731.63,-38.242"/>
</g>
<!-- ndBreakpoint -->
<g id="node4" class="node"><title>ndBreakpoint</title>
<g id="a_node4_4"><a xlink:href="https://github.com/meilisearch/meilisearch//blob/master/src/lib.rs#:~:text=enum%20Breakpoint" xlink:title="&lt;TABLE&gt;">
<polygon fill="yellow" stroke="none" points="496.5,-87.5 496.5,-124.5 595.5,-124.5 595.5,-87.5 496.5,-87.5"/>
<polygon fill="none" stroke="black" points="496.5,-87.5 496.5,-124.5 595.5,-124.5 595.5,-87.5 496.5,-87.5"/>
<text text-anchor="start" x="507.5" y="-103.3" font-family="Arial" font-weight="bold" font-size="14.00">Breakpoint</text>
<polygon fill="none" stroke="black" points="495,-87 495,-126 596,-126 596,-87 495,-87"/>
</a>
</g>
</g>
<!-- ndBreakpoint&#45;&gt;ndIndexScheduler -->
<g id="edge4" class="edge"><title>ndBreakpoint&#45;&gt;ndIndexScheduler</title>
<path fill="none" stroke="black" stroke-dasharray="5,2" d="M604.275,-85.5872C607.052,-84.7015 609.804,-83.8349 612.5,-83 651.435,-70.9413 694.804,-58.4818 731.667,-48.1764"/>
<polygon fill="black" stroke="black" points="731.833,-48.1302 736.54,-42.6666 743.393,-44.9095 738.687,-50.3731 731.833,-48.1302"/>
</g>
<!-- ndIndexSchedulerOptions -->
<g id="node5" class="node"><title>ndIndexSchedulerOptions</title>
<g id="a_node5_5"><a xlink:href="https://github.com/meilisearch/meilisearch//blob/master/src/lib.rs#:~:text=struct%20IndexSchedulerOptions" xlink:title="&lt;TABLE&gt;">
<polygon fill="lightblue" stroke="none" points="631.5,-87.5 631.5,-124.5 818.5,-124.5 818.5,-87.5 631.5,-87.5"/>
<polygon fill="none" stroke="black" points="631.5,-87.5 631.5,-124.5 818.5,-124.5 818.5,-87.5 631.5,-87.5"/>
<text text-anchor="start" x="642.5" y="-103.3" font-family="Arial" font-weight="bold" font-size="14.00">IndexSchedulerOptions</text>
<polygon fill="none" stroke="black" points="630,-87 630,-126 819,-126 819,-87 630,-87"/>
</a>
</g>
</g>
<!-- ndIndexSchedulerOptions&#45;&gt;ndIndexScheduler -->
<g id="edge5" class="edge"><title>ndIndexSchedulerOptions&#45;&gt;ndIndexScheduler</title>
<path fill="none" stroke="black" stroke-dasharray="5,2" d="M750.684,-82.937C761.088,-73.9719 773.197,-63.5374 784.28,-53.9871"/>
<polygon fill="black" stroke="black" points="792.13,-47.2229 787.492,-57.1598 788.342,-50.4869 784.555,-53.7508 784.555,-53.7508 784.555,-53.7508 788.342,-50.4869 781.617,-50.3418 792.13,-47.2229 792.13,-47.2229"/>
</g>
<!-- ndTickOutcome -->
<g id="node7" class="node"><title>ndTickOutcome</title>
<g id="a_node7_6"><a xlink:href="https://github.com/meilisearch/meilisearch//blob/master/src/lib.rs#:~:text=enum%20TickOutcome" xlink:title="&lt;TABLE&gt;">
<polygon fill="yellow" stroke="none" points="854.5,-87.5 854.5,-124.5 970.5,-124.5 970.5,-87.5 854.5,-87.5"/>
<polygon fill="none" stroke="black" points="854.5,-87.5 854.5,-124.5 970.5,-124.5 970.5,-87.5 854.5,-87.5"/>
<text text-anchor="start" x="865.5" y="-103.3" font-family="Arial" font-weight="bold" font-size="14.00">TickOutcome</text>
<polygon fill="none" stroke="black" points="853.5,-87 853.5,-126 971.5,-126 971.5,-87 853.5,-87"/>
</a>
</g>
</g>
<!-- ndTickOutcome&#45;&gt;ndIndexScheduler -->
<g id="edge6" class="edge"><title>ndTickOutcome&#45;&gt;ndIndexScheduler</title>
<path fill="none" stroke="black" d="M886.316,-82.937C875.912,-73.9719 863.803,-63.5374 852.72,-53.9871"/>
<polygon fill="black" stroke="black" points="844.87,-47.2229 855.383,-50.3418 848.658,-50.4869 852.445,-53.7508 852.445,-53.7508 852.445,-53.7508 848.658,-50.4869 849.508,-57.1598 844.87,-47.2229 844.87,-47.2229"/>
</g>
<!-- ndBatch -->
<g id="node8" class="node"><title>ndBatch</title>
<g id="a_node8_7"><a xlink:href="https://github.com/meilisearch/meilisearch//blob/master/src/batch.rs#:~:text=enum%20Batch" xlink:title="&lt;TABLE&gt;">
<polygon fill="yellow" stroke="none" points="1007.5,-87.5 1007.5,-124.5 1070.5,-124.5 1070.5,-87.5 1007.5,-87.5"/>
<polygon fill="none" stroke="black" points="1007.5,-87.5 1007.5,-124.5 1070.5,-124.5 1070.5,-87.5 1007.5,-87.5"/>
<text text-anchor="start" x="1018.5" y="-103.3" font-family="Arial" font-weight="bold" font-size="14.00">Batch</text>
<polygon fill="none" stroke="black" points="1006,-87 1006,-126 1071,-126 1071,-87 1006,-87"/>
</a>
</g>
</g>
<!-- ndBatch&#45;&gt;ndIndexScheduler -->
<g id="edge7" class="edge"><title>ndBatch&#45;&gt;ndIndexScheduler</title>
<path fill="none" stroke="black" stroke-dasharray="5,2" d="M997.974,-86.8898C994.783,-85.5389 991.597,-84.2269 988.5,-83 959.43,-71.4854 927.08,-60.0246 898.468,-50.3387"/>
<polygon fill="black" stroke="black" points="888.918,-47.1244 899.831,-46.0495 893.657,-48.7194 898.395,-50.3144 898.395,-50.3144 898.395,-50.3144 893.657,-48.7194 896.96,-54.5793 888.918,-47.1244 888.918,-47.1244"/>
</g>
<!-- ndDocumentOperation -->
<g id="node9" class="node"><title>ndDocumentOperation</title>
<g id="a_node9_8"><a xlink:href="https://github.com/meilisearch/meilisearch//blob/master/src/batch.rs#:~:text=enum%20DocumentOperation" xlink:title="&lt;TABLE&gt;">
<polygon fill="yellow" stroke="none" points="1420.5,-170.5 1420.5,-207.5 1583.5,-207.5 1583.5,-170.5 1420.5,-170.5"/>
<polygon fill="none" stroke="black" points="1420.5,-170.5 1420.5,-207.5 1583.5,-207.5 1583.5,-170.5 1420.5,-170.5"/>
<text text-anchor="start" x="1431.5" y="-186.3" font-family="Arial" font-weight="bold" font-size="14.00">DocumentOperation</text>
<polygon fill="none" stroke="black" points="1419,-170 1419,-209 1584,-209 1584,-170 1419,-170"/>
</a>
</g>
</g>
<!-- ndIndexOperation -->
<g id="node10" class="node"><title>ndIndexOperation</title>
<g id="a_node10_9"><a xlink:href="https://github.com/meilisearch/meilisearch//blob/master/src/batch.rs#:~:text=enum%20IndexOperation" xlink:title="&lt;TABLE&gt;">
<polygon fill="yellow" stroke="none" points="1106.5,-87.5 1106.5,-124.5 1236.5,-124.5 1236.5,-87.5 1106.5,-87.5"/>
<polygon fill="none" stroke="black" points="1106.5,-87.5 1106.5,-124.5 1236.5,-124.5 1236.5,-87.5 1106.5,-87.5"/>
<text text-anchor="start" x="1117.5" y="-103.3" font-family="Arial" font-weight="bold" font-size="14.00">IndexOperation</text>
<polygon fill="none" stroke="black" points="1105.5,-87 1105.5,-126 1237.5,-126 1237.5,-87 1105.5,-87"/>
</a>
</g>
</g>
<!-- ndIndexOperation&#45;&gt;ndIndexScheduler -->
<g id="edge8" class="edge"><title>ndIndexOperation&#45;&gt;ndIndexScheduler</title>
<path fill="none" stroke="black" stroke-dasharray="5,2" d="M1097.35,-85.4321C1094.02,-84.5973 1090.73,-83.7828 1087.5,-83 1026.19,-68.132 956.595,-53.0441 903.552,-41.9156"/>
<polygon fill="black" stroke="black" points="893.51,-39.8144 904.219,-37.4578 898.404,-40.8384 903.298,-41.8624 903.298,-41.8624 903.298,-41.8624 898.404,-40.8384 902.376,-46.267 893.51,-39.8144 893.51,-39.8144"/>
</g>
<!-- ndDateField -->
<g id="node11" class="node"><title>ndDateField</title>
<g id="a_node11_10"><a xlink:href="https://github.com/meilisearch/meilisearch//blob/master/src/error.rs#:~:text=enum%20DateField" xlink:title="&lt;TABLE&gt;">
<polygon fill="yellow" stroke="none" points="1619.5,-170.5 1619.5,-207.5 1707.5,-207.5 1707.5,-170.5 1619.5,-170.5"/>
<polygon fill="none" stroke="black" points="1619.5,-170.5 1619.5,-207.5 1707.5,-207.5 1707.5,-170.5 1619.5,-170.5"/>
<text text-anchor="start" x="1630.5" y="-186.3" font-family="Arial" font-weight="bold" font-size="14.00">DateField</text>
<polygon fill="none" stroke="black" points="1618.5,-170 1618.5,-209 1708.5,-209 1708.5,-170 1618.5,-170"/>
</a>
</g>
</g>
<!-- ndError -->
<g id="node12" class="node"><title>ndError</title>
<g id="a_node12_11"><a xlink:href="https://github.com/meilisearch/meilisearch//blob/master/src/error.rs#:~:text=enum%20Error" xlink:title="&lt;TABLE&gt;">
<polygon fill="yellow" stroke="none" points="1744.5,-170.5 1744.5,-207.5 1803.5,-207.5 1803.5,-170.5 1744.5,-170.5"/>
<polygon fill="none" stroke="black" points="1744.5,-170.5 1744.5,-207.5 1803.5,-207.5 1803.5,-170.5 1744.5,-170.5"/>
<text text-anchor="start" x="1755.5" y="-186.3" font-family="Arial" font-weight="bold" font-size="14.00">Error</text>
<polygon fill="none" stroke="black" points="1743,-170 1743,-209 1804,-209 1804,-170 1743,-170"/>
</a>
</g>
</g>
<!-- ndAutobatchKind -->
<g id="node13" class="node"><title>ndAutobatchKind</title>
<g id="a_node13_12"><a xlink:href="https://github.com/meilisearch/meilisearch//blob/master/src/autobatcher.rs#:~:text=enum%20AutobatchKind" xlink:title="&lt;TABLE&gt;">
<polygon fill="yellow" stroke="none" points="1257.5,-170.5 1257.5,-207.5 1383.5,-207.5 1383.5,-170.5 1257.5,-170.5"/>
<polygon fill="none" stroke="black" points="1257.5,-170.5 1257.5,-207.5 1383.5,-207.5 1383.5,-170.5 1257.5,-170.5"/>
<text text-anchor="start" x="1268.5" y="-186.3" font-family="Arial" font-weight="bold" font-size="14.00">AutobatchKind</text>
<polygon fill="none" stroke="black" points="1256.5,-170 1256.5,-209 1384.5,-209 1384.5,-170 1256.5,-170"/>
</a>
</g>
</g>
<!-- ndBatchKind -->
<g id="node14" class="node"><title>ndBatchKind</title>
<g id="a_node14_13"><a xlink:href="https://github.com/meilisearch/meilisearch//blob/master/src/autobatcher.rs#:~:text=enum%20BatchKind" xlink:title="&lt;TABLE&gt;">
<polygon fill="yellow" stroke="none" points="1273.5,-87.5 1273.5,-124.5 1368.5,-124.5 1368.5,-87.5 1273.5,-87.5"/>
<polygon fill="none" stroke="black" points="1273.5,-87.5 1273.5,-124.5 1368.5,-124.5 1368.5,-87.5 1273.5,-87.5"/>
<text text-anchor="start" x="1284.5" y="-103.3" font-family="Arial" font-weight="bold" font-size="14.00">BatchKind</text>
<polygon fill="none" stroke="black" points="1272,-87 1272,-126 1369,-126 1369,-87 1272,-87"/>
</a>
</g>
</g>
<!-- ndAutobatchKind&#45;&gt;ndBatchKind -->
<g id="edge9" class="edge"><title>ndAutobatchKind&#45;&gt;ndBatchKind</title>
<path fill="none" stroke="black" stroke-dasharray="5,2" d="M1320.5,-165.937C1320.5,-158.016 1320.5,-148.949 1320.5,-140.357"/>
<polygon fill="black" stroke="black" points="1320.5,-130.223 1325,-140.223 1320.5,-135.223 1320.5,-140.223 1320.5,-140.223 1320.5,-140.223 1320.5,-135.223 1316,-140.223 1320.5,-130.223 1320.5,-130.223"/>
</g>
<!-- ndBatchKind&#45;&gt;ndIndexScheduler -->
<g id="edge10" class="edge"><title>ndBatchKind&#45;&gt;ndIndexScheduler</title>
<path fill="none" stroke="black" stroke-dasharray="5,2" d="M1263.82,-85.3939C1260.69,-84.5268 1257.56,-83.7205 1254.5,-83 1134.41,-54.7605 992.292,-38.8676 903.748,-30.9833"/>
<polygon fill="black" stroke="black" points="893.754,-30.1071 904.109,-26.4977 898.735,-30.5438 903.716,-30.9805 903.716,-30.9805 903.716,-30.9805 898.735,-30.5438 903.323,-35.4633 893.754,-30.1071 893.754,-30.1071"/>
</g>
<!-- ndIndexMapper -->
<g id="node15" class="node"><title>ndIndexMapper</title>
<g id="a_node15_14"><a xlink:href="https://github.com/meilisearch/meilisearch//blob/master/src/index_mapper.rs#:~:text=struct%20IndexMapper" xlink:title="&lt;TABLE&gt;">
<polygon fill="lightblue" stroke="none" points="1404.5,-87.5 1404.5,-124.5 1518.5,-124.5 1518.5,-87.5 1404.5,-87.5"/>
<polygon fill="none" stroke="black" points="1404.5,-87.5 1404.5,-124.5 1518.5,-124.5 1518.5,-87.5 1404.5,-87.5"/>
<text text-anchor="start" x="1415.5" y="-103.3" font-family="Arial" font-weight="bold" font-size="14.00">IndexMapper</text>
<polygon fill="none" stroke="black" points="1403.5,-87 1403.5,-126 1519.5,-126 1519.5,-87 1403.5,-87"/>
</a>
</g>
</g>
<!-- ndIndexMapper&#45;&gt;ndIndexScheduler -->
<g id="edge11" class="edge"><title>ndIndexMapper&#45;&gt;ndIndexScheduler</title>
<path fill="none" stroke="black" d="M1395.36,-85.1354C1392.04,-84.3595 1388.74,-83.641 1385.5,-83 1217.77,-49.8166 1018.18,-34.7781 906.136,-28.5071"/>
<polygon fill="black" stroke="black" points="905.892,-28.4939 899.683,-32.1601 893.91,-27.8383 900.12,-24.1721 905.892,-28.4939"/>
</g>
<!-- ndIndexStatus -->
<g id="node16" class="node"><title>ndIndexStatus</title>
<g id="a_node16_15"><a xlink:href="https://github.com/meilisearch/meilisearch//blob/master/src/index_mapper.rs#:~:text=enum%20IndexStatus" xlink:title="&lt;TABLE&gt;">
<polygon fill="yellow" stroke="none" points="1839.5,-170.5 1839.5,-207.5 1944.5,-207.5 1944.5,-170.5 1839.5,-170.5"/>
<polygon fill="none" stroke="black" points="1839.5,-170.5 1839.5,-207.5 1944.5,-207.5 1944.5,-170.5 1839.5,-170.5"/>
<text text-anchor="start" x="1850.5" y="-186.3" font-family="Arial" font-weight="bold" font-size="14.00">IndexStatus</text>
<polygon fill="none" stroke="black" points="1838,-170 1838,-209 1945,-209 1945,-170 1838,-170"/>
</a>
</g>
</g>
</g>
</svg>
