<?xml version="1.0" encoding="UTF-8" standalone="no"?>
<!DOCTYPE svg PUBLIC "-//W3C//DTD SVG 1.1//EN"
 "http://www.w3.org/Graphics/SVG/1.1/DTD/svg11.dtd">
<!-- Generated by graphviz version 2.38.0 (20140413.2041)
 -->
<!-- Title: ml Pages: 1 -->
<svg width="2413pt" height="387pt"
 viewBox="0.00 0.00 2413.00 387.00" xmlns="http://www.w3.org/2000/svg" xmlns:xlink="http://www.w3.org/1999/xlink">
<g id="graph0" class="graph" transform="scale(1 1) rotate(0) translate(4 383)">
<title>ml</title>
<polygon fill="white" stroke="none" points="-4,4 -4,-383 2409,-383 2409,4 -4,4"/>
<!-- ndQuery -->
<g id="node1" class="node"><title>ndQuery</title>
<g id="a_node1_0"><a xlink:href="https://github.com/meilisearch/meilisearch//blob/master/src/lib.rs#:~:text=struct%20Query" xlink:title="&lt;TABLE&gt;">
<polygon fill="lightblue" stroke="none" points="9.5,-87.5 9.5,-124.5 74.5,-124.5 74.5,-87.5 9.5,-87.5"/>
<polygon fill="none" stroke="black" points="9.5,-87.5 9.5,-124.5 74.5,-124.5 74.5,-87.5 9.5,-87.5"/>
<text text-anchor="start" x="20.5" y="-103.3" font-family="Arial" font-weight="bold" font-size="14.00">Query</text>
<polygon fill="none" stroke="black" points="8,-87 8,-126 75,-126 75,-87 8,-87"/>
</a>
</g>
</g>
<!-- ndIndexScheduler -->
<g id="node6" class="node"><title>ndIndexScheduler</title>
<g id="a_node6_1"><a xlink:href="https://github.com/meilisearch/meilisearch//blob/master/src/lib.rs#:~:text=struct%20IndexScheduler" xlink:title="&lt;TABLE&gt;">
<polygon fill="lightblue" stroke="none" points="846.5,-4.5 846.5,-41.5 978.5,-41.5 978.5,-4.5 846.5,-4.5"/>
<polygon fill="none" stroke="black" points="846.5,-4.5 846.5,-41.5 978.5,-41.5 978.5,-4.5 846.5,-4.5"/>
<text text-anchor="start" x="857.5" y="-20.3" font-family="Arial" font-weight="bold" font-size="14.00">IndexScheduler</text>
<polygon fill="none" stroke="black" points="845.5,-4 845.5,-43 979.5,-43 979.5,-4 845.5,-4"/>
</a>
</g>
</g>
<!-- ndQuery&#45;&gt;ndIndexScheduler -->
<g id="edge1" class="edge"><title>ndQuery&#45;&gt;ndIndexScheduler</title>
<path fill="none" stroke="black" stroke-dasharray="5,2" d="M83.1204,-85.777C86.2526,-84.7145 89.4005,-83.7695 92.5,-83 229.823,-48.9057 646.325,-32.5319 827.173,-26.8813"/>
<polygon fill="black" stroke="black" points="837.435,-26.5643 827.579,-31.371 832.437,-26.7187 827.44,-26.8731 827.44,-26.8731 827.44,-26.8731 832.437,-26.7187 827.301,-22.3753 837.435,-26.5643 837.435,-26.5643"/>
</g>
<!-- ndProcessingTasks -->
<g id="node2" class="node"><title>ndProcessingTasks</title>
<g id="a_node2_2"><a xlink:href="https://github.com/meilisearch/meilisearch//blob/master/src/lib.rs#:~:text=struct%20ProcessingTasks" xlink:title="&lt;TABLE&gt;">
<polygon fill="lightblue" stroke="none" points="110.5,-87.5 110.5,-124.5 254.5,-124.5 254.5,-87.5 110.5,-87.5"/>
<polygon fill="none" stroke="black" points="110.5,-87.5 110.5,-124.5 254.5,-124.5 254.5,-87.5 110.5,-87.5"/>
<text text-anchor="start" x="121.5" y="-103.3" font-family="Arial" font-weight="bold" font-size="14.00">ProcessingTasks</text>
<polygon fill="none" stroke="black" points="109.5,-87 109.5,-126 255.5,-126 255.5,-87 109.5,-87"/>
</a>
</g>
</g>
<!-- ndProcessingTasks&#45;&gt;ndIndexScheduler -->
<g id="edge2" class="edge"><title>ndProcessingTasks&#45;&gt;ndIndexScheduler</title>
<path fill="none" stroke="black" d="M263.817,-84.5755C266.741,-84.0129 269.642,-83.4849 272.5,-83 468.381,-49.7655 701.416,-34.4613 825.142,-28.2234"/>
<polygon fill="black" stroke="black" points="825.148,-28.2232 830.943,-23.9315 837.133,-27.6301 831.338,-31.9218 825.148,-28.2232"/>
</g>
<!-- ndMustStopProcessing -->
<g id="node3" class="node"><title>ndMustStopProcessing</title>
<g id="a_node3_3"><a xlink:href="https://github.com/meilisearch/meilisearch//blob/master/src/lib.rs#:~:text=struct%20MustStopProcessing" xlink:title="&lt;TABLE&gt;">
<polygon fill="lightblue" stroke="none" points="291.5,-87.5 291.5,-124.5 460.5,-124.5 460.5,-87.5 291.5,-87.5"/>
<polygon fill="none" stroke="black" points="291.5,-87.5 291.5,-124.5 460.5,-124.5 460.5,-87.5 291.5,-87.5"/>
<text text-anchor="start" x="302.5" y="-103.3" font-family="Arial" font-weight="bold" font-size="14.00">MustStopProcessing</text>
<polygon fill="none" stroke="black" points="290,-87 290,-126 461,-126 461,-87 290,-87"/>
</a>
</g>
</g>
<!-- ndMustStopProcessing&#45;&gt;ndIndexScheduler -->
<g id="edge3" class="edge"><title>ndMustStopProcessing&#45;&gt;ndIndexScheduler</title>
<path fill="none" stroke="black" d="M469.185,-84.6973C472.324,-84.1081 475.436,-83.5403 478.5,-83 598.101,-61.9119 737.421,-44.3641 825.286,-34.149"/>
<polygon fill="black" stroke="black" points="825.414,-34.1342 830.915,-29.4719 837.335,-32.7567 831.834,-37.419 825.414,-34.1342"/>
</g>
<!-- ndBreakpoint -->
<g id="node4" class="node"><title>ndBreakpoint</title>
<g id="a_node4_4"><a xlink:href="https://github.com/meilisearch/meilisearch//blob/master/src/lib.rs#:~:text=enum%20Breakpoint" xlink:title="&lt;TABLE&gt;">
<polygon fill="yellow" stroke="none" points="496.5,-87.5 496.5,-124.5 595.5,-124.5 595.5,-87.5 496.5,-87.5"/>
<polygon fill="none" stroke="black" points="496.5,-87.5 496.5,-124.5 595.5,-124.5 595.5,-87.5 496.5,-87.5"/>
<text text-anchor="start" x="507.5" y="-103.3" font-family="Arial" font-weight="bold" font-size="14.00">Breakpoint</text>
<polygon fill="none" stroke="black" points="495,-87 495,-126 596,-126 596,-87 495,-87"/>
</a>
</g>
</g>
<!-- ndBreakpoint&#45;&gt;ndIndexScheduler -->
<g id="edge4" class="edge"><title>ndBreakpoint&#45;&gt;ndIndexScheduler</title>
<path fill="none" stroke="black" stroke-dasharray="5,2" d="M604.336,-85.5274C607.425,-84.6372 610.493,-83.7883 613.5,-83 683.985,-64.5227 765.194,-48.9913 825.174,-38.5859"/>
<polygon fill="black" stroke="black" points="825.432,-38.5417 830.668,-33.5832 837.259,-36.509 832.023,-41.4676 825.432,-38.5417"/>
</g>
<!-- ndIndexSchedulerOptions -->
<g id="node5" class="node"><title>ndIndexSchedulerOptions</title>
<g id="a_node5_5"><a xlink:href="https://github.com/meilisearch/meilisearch//blob/master/src/lib.rs#:~:text=struct%20IndexSchedulerOptions" xlink:title="&lt;TABLE&gt;">
<polygon fill="lightblue" stroke="none" points="631.5,-87.5 631.5,-124.5 818.5,-124.5 818.5,-87.5 631.5,-87.5"/>
<polygon fill="none" stroke="black" points="631.5,-87.5 631.5,-124.5 818.5,-124.5 818.5,-87.5 631.5,-87.5"/>
<text text-anchor="start" x="642.5" y="-103.3" font-family="Arial" font-weight="bold" font-size="14.00">IndexSchedulerOptions</text>
<polygon fill="none" stroke="black" points="630,-87 630,-126 819,-126 819,-87 630,-87"/>
</a>
</g>
</g>
<!-- ndIndexSchedulerOptions&#45;&gt;ndIndexScheduler -->
<g id="edge5" class="edge"><title>ndIndexSchedulerOptions&#45;&gt;ndIndexScheduler</title>
<path fill="none" stroke="black" stroke-dasharray="5,2" d="M776.868,-82.937C799.792,-73.0602 826.856,-61.3999 850.754,-51.1033"/>
<polygon fill="black" stroke="black" points="860.087,-47.0824 852.683,-55.172 855.495,-49.0608 850.903,-51.0393 850.903,-51.0393 850.903,-51.0393 855.495,-49.0608 849.122,-46.9066 860.087,-47.0824 860.087,-47.0824"/>
</g>
<!-- ndTickOutcome -->
<g id="node7" class="node"><title>ndTickOutcome</title>
<g id="a_node7_6"><a xlink:href="https://github.com/meilisearch/meilisearch//blob/master/src/lib.rs#:~:text=enum%20TickOutcome" xlink:title="&lt;TABLE&gt;">
<polygon fill="yellow" stroke="none" points="854.5,-87.5 854.5,-124.5 970.5,-124.5 970.5,-87.5 854.5,-87.5"/>
<polygon fill="none" stroke="black" points="854.5,-87.5 854.5,-124.5 970.5,-124.5 970.5,-87.5 854.5,-87.5"/>
<text text-anchor="start" x="865.5" y="-103.3" font-family="Arial" font-weight="bold" font-size="14.00">TickOutcome</text>
<polygon fill="none" stroke="black" points="853.5,-87 853.5,-126 971.5,-126 971.5,-87 853.5,-87"/>
</a>
</g>
</g>
<!-- ndTickOutcome&#45;&gt;ndIndexScheduler -->
<g id="edge6" class="edge"><title>ndTickOutcome&#45;&gt;ndIndexScheduler</title>
<path fill="none" stroke="black" d="M912.5,-82.937C912.5,-75.0164 912.5,-65.9488 912.5,-57.3574"/>
<polygon fill="black" stroke="black" points="912.5,-47.2229 917,-57.2229 912.5,-52.2229 912.5,-57.2229 912.5,-57.2229 912.5,-57.2229 912.5,-52.2229 908,-57.223 912.5,-47.2229 912.5,-47.2229"/>
</g>
<!-- ndIndexBudget -->
<g id="node8" class="node"><title>ndIndexBudget</title>
<g id="a_node8_7"><a xlink:href="https://github.com/meilisearch/meilisearch//blob/master/src/lib.rs#:~:text=struct%20IndexBudget" xlink:title="&lt;TABLE&gt;">
<polygon fill="lightblue" stroke="none" points="1007.5,-87.5 1007.5,-124.5 1118.5,-124.5 1118.5,-87.5 1007.5,-87.5"/>
<polygon fill="none" stroke="black" points="1007.5,-87.5 1007.5,-124.5 1118.5,-124.5 1118.5,-87.5 1007.5,-87.5"/>
<text text-anchor="start" x="1018.5" y="-103.3" font-family="Arial" font-weight="bold" font-size="14.00">IndexBudget</text>
<polygon fill="none" stroke="black" points="1006,-87 1006,-126 1119,-126 1119,-87 1006,-87"/>
</a>
</g>
</g>
<!-- ndIndexBudget&#45;&gt;ndIndexScheduler -->
<g id="edge7" class="edge"><title>ndIndexBudget&#45;&gt;ndIndexScheduler</title>
<path fill="none" stroke="black" d="M1020.72,-82.937C1002.91,-73.3224 981.977,-62.0178 963.289,-51.9262"/>
<polygon fill="black" stroke="black" points="954.319,-47.0824 965.256,-47.8743 958.719,-49.4581 963.118,-51.8339 963.118,-51.8339 963.118,-51.8339 958.719,-49.4581 960.98,-55.7935 954.319,-47.0824 954.319,-47.0824"/>
</g>
<!-- ndBatch -->
<g id="node9" class="node"><title>ndBatch</title>
<g id="a_node9_8"><a xlink:href="https://github.com/meilisearch/meilisearch//blob/master/src/batch.rs#:~:text=enum%20Batch" xlink:title="&lt;TABLE&gt;">
<polygon fill="yellow" stroke="none" points="1154.5,-87.5 1154.5,-124.5 1217.5,-124.5 1217.5,-87.5 1154.5,-87.5"/>
<polygon fill="none" stroke="black" points="1154.5,-87.5 1154.5,-124.5 1217.5,-124.5 1217.5,-87.5 1154.5,-87.5"/>
<text text-anchor="start" x="1165.5" y="-103.3" font-family="Arial" font-weight="bold" font-size="14.00">Batch</text>
<polygon fill="none" stroke="black" points="1153,-87 1153,-126 1218,-126 1218,-87 1153,-87"/>
</a>
</g>
</g>
<!-- ndBatch&#45;&gt;ndIndexScheduler -->
<g id="edge8" class="edge"><title>ndBatch&#45;&gt;ndIndexScheduler</title>
<path fill="none" stroke="black" stroke-dasharray="5,2" d="M1144.81,-86.1713C1142.02,-85.0453 1139.23,-83.9758 1136.5,-83 1091.47,-66.921 1039.92,-53.153 997.631,-43.0203"/>
<polygon fill="black" stroke="black" points="987.648,-40.6541 998.416,-38.5817 992.513,-41.8073 997.378,-42.9604 997.378,-42.9604 997.378,-42.9604 992.513,-41.8073 996.34,-47.3391 987.648,-40.6541 987.648,-40.6541"/>
</g>
<!-- ndDocumentOperation -->
<g id="node10" class="node"><title>ndDocumentOperation</title>
<g id="a_node10_9"><a xlink:href="https://github.com/meilisearch/meilisearch//blob/master/src/batch.rs#:~:text=enum%20DocumentOperation" xlink:title="&lt;TABLE&gt;">
<polygon fill="yellow" stroke="none" points="2013.5,-336.5 2013.5,-373.5 2176.5,-373.5 2176.5,-336.5 2013.5,-336.5"/>
<polygon fill="none" stroke="black" points="2013.5,-336.5 2013.5,-373.5 2176.5,-373.5 2176.5,-336.5 2013.5,-336.5"/>
<text text-anchor="start" x="2024.5" y="-352.3" font-family="Arial" font-weight="bold" font-size="14.00">DocumentOperation</text>
<polygon fill="none" stroke="black" points="2012,-336 2012,-375 2177,-375 2177,-336 2012,-336"/>
</a>
</g>
</g>
<!-- ndIndexOperation -->
<g id="node11" class="node"><title>ndIndexOperation</title>
<g id="a_node11_10"><a xlink:href="https://github.com/meilisearch/meilisearch//blob/master/src/batch.rs#:~:text=enum%20IndexOperation" xlink:title="&lt;TABLE&gt;">
<polygon fill="yellow" stroke="none" points="1253.5,-87.5 1253.5,-124.5 1383.5,-124.5 1383.5,-87.5 1253.5,-87.5"/>
<polygon fill="none" stroke="black" points="1253.5,-87.5 1253.5,-124.5 1383.5,-124.5 1383.5,-87.5 1253.5,-87.5"/>
<text text-anchor="start" x="1264.5" y="-103.3" font-family="Arial" font-weight="bold" font-size="14.00">IndexOperation</text>
<polygon fill="none" stroke="black" points="1252.5,-87 1252.5,-126 1384.5,-126 1384.5,-87 1252.5,-87"/>
</a>
</g>
</g>
<!-- ndIndexOperation&#45;&gt;ndIndexScheduler -->
<g id="edge9" class="edge"><title>ndIndexOperation&#45;&gt;ndIndexScheduler</title>
<path fill="none" stroke="black" stroke-dasharray="5,2" d="M1244.37,-85.0664C1241.38,-84.3492 1238.41,-83.6573 1235.5,-83 1155.42,-64.9298 1063.2,-48.6737 997.85,-37.9113"/>
<polygon fill="black" stroke="black" points="987.598,-36.2317 998.194,-33.4078 992.533,-37.0401 997.467,-37.8486 997.467,-37.8486 997.467,-37.8486 992.533,-37.0401 996.739,-42.2894 987.598,-36.2317 987.598,-36.2317"/>
</g>
<!-- ndDateField -->
<g id="node12" class="node"><title>ndDateField</title>
<g id="a_node12_11"><a xlink:href="https://github.com/meilisearch/meilisearch//blob/master/src/error.rs#:~:text=enum%20DateField" xlink:title="&lt;TABLE&gt;">
<polygon fill="yellow" stroke="none" points="2212.5,-336.5 2212.5,-373.5 2300.5,-373.5 2300.5,-336.5 2212.5,-336.5"/>
<polygon fill="none" stroke="black" points="2212.5,-336.5 2212.5,-373.5 2300.5,-373.5 2300.5,-336.5 2212.5,-336.5"/>
<text text-anchor="start" x="2223.5" y="-352.3" font-family="Arial" font-weight="bold" font-size="14.00">DateField</text>
<polygon fill="none" stroke="black" points="2211.5,-336 2211.5,-375 2301.5,-375 2301.5,-336 2211.5,-336"/>
</a>
</g>
</g>
<!-- ndError -->
<g id="node13" class="node"><title>ndError</title>
<g id="a_node13_12"><a xlink:href="https://github.com/meilisearch/meilisearch//blob/master/src/error.rs#:~:text=enum%20Error" xlink:title="&lt;TABLE&gt;">
<polygon fill="yellow" stroke="none" points="2337.5,-336.5 2337.5,-373.5 2396.5,-373.5 2396.5,-336.5 2337.5,-336.5"/>
<polygon fill="none" stroke="black" points="2337.5,-336.5 2337.5,-373.5 2396.5,-373.5 2396.5,-336.5 2337.5,-336.5"/>
<text text-anchor="start" x="2348.5" y="-352.3" font-family="Arial" font-weight="bold" font-size="14.00">Error</text>
<polygon fill="none" stroke="black" points="2336,-336 2336,-375 2397,-375 2397,-336 2336,-336"/>
</a>
</g>
</g>
<!-- ndAutobatchKind -->
<g id="node14" class="node"><title>ndAutobatchKind</title>
<g id="a_node14_13"><a xlink:href="https://github.com/meilisearch/meilisearch//blob/master/src/autobatcher.rs#:~:text=enum%20AutobatchKind" xlink:title="&lt;TABLE&gt;">
<polygon fill="yellow" stroke="none" points="1404.5,-170.5 1404.5,-207.5 1530.5,-207.5 1530.5,-170.5 1404.5,-170.5"/>
<polygon fill="none" stroke="black" points="1404.5,-170.5 1404.5,-207.5 1530.5,-207.5 1530.5,-170.5 1404.5,-170.5"/>
<text text-anchor="start" x="1415.5" y="-186.3" font-family="Arial" font-weight="bold" font-size="14.00">AutobatchKind</text>
<polygon fill="none" stroke="black" points="1403.5,-170 1403.5,-209 1531.5,-209 1531.5,-170 1403.5,-170"/>
</a>
</g>
</g>
<!-- ndBatchKind -->
<g id="node15" class="node"><title>ndBatchKind</title>
<g id="a_node15_14"><a xlink:href="https://github.com/meilisearch/meilisearch//blob/master/src/autobatcher.rs#:~:text=enum%20BatchKind" xlink:title="&lt;TABLE&gt;">
<polygon fill="yellow" stroke="none" points="1420.5,-87.5 1420.5,-124.5 1515.5,-124.5 1515.5,-87.5 1420.5,-87.5"/>
<polygon fill="none" stroke="black" points="1420.5,-87.5 1420.5,-124.5 1515.5,-124.5 1515.5,-87.5 1420.5,-87.5"/>
<text text-anchor="start" x="1431.5" y="-103.3" font-family="Arial" font-weight="bold" font-size="14.00">BatchKind</text>
<polygon fill="none" stroke="black" points="1419,-87 1419,-126 1516,-126 1516,-87 1419,-87"/>
</a>
</g>
</g>
<!-- ndAutobatchKind&#45;&gt;ndBatchKind -->
<g id="edge10" class="edge"><title>ndAutobatchKind&#45;&gt;ndBatchKind</title>
<path fill="none" stroke="black" stroke-dasharray="5,2" d="M1467.5,-165.937C1467.5,-158.016 1467.5,-148.949 1467.5,-140.357"/>
<polygon fill="black" stroke="black" points="1467.5,-130.223 1472,-140.223 1467.5,-135.223 1467.5,-140.223 1467.5,-140.223 1467.5,-140.223 1467.5,-135.223 1463,-140.223 1467.5,-130.223 1467.5,-130.223"/>
</g>
<!-- ndBatchKind&#45;&gt;ndIndexScheduler -->
<g id="edge11" class="edge"><title>ndBatchKind&#45;&gt;ndIndexScheduler</title>
<path fill="none" stroke="black" stroke-dasharray="5,2" d="M1410.84,-85.3408C1407.7,-84.4873 1404.57,-83.6986 1401.5,-83 1262.2,-51.2925 1096.43,-36.0542 998.078,-29.294"/>
<polygon fill="black" stroke="black" points="987.894,-28.6078 998.174,-24.7903 992.882,-28.944 997.871,-29.2801 997.871,-29.2801 997.871,-29.2801 992.882,-28.944 997.568,-33.77 987.894,-28.6078 987.894,-28.6078"/>
</g>
<!-- ndIndexMapper -->
<g id="node16" class="node"><title>ndIndexMapper</title>
<g id="a_node16_15"><a xlink:href="https://github.com/meilisearch/meilisearch//blob/master/src/index_mapper/mod.rs#:~:text=struct%20IndexMapper" xlink:title="&lt;TABLE&gt;">
<polygon fill="lightblue" stroke="none" points="1551.5,-87.5 1551.5,-124.5 1665.5,-124.5 1665.5,-87.5 1551.5,-87.5"/>
<polygon fill="none" stroke="black" points="1551.5,-87.5 1551.5,-124.5 1665.5,-124.5 1665.5,-87.5 1551.5,-87.5"/>
<text text-anchor="start" x="1562.5" y="-103.3" font-family="Arial" font-weight="bold" font-size="14.00">IndexMapper</text>
<polygon fill="none" stroke="black" points="1550.5,-87 1550.5,-126 1666.5,-126 1666.5,-87 1550.5,-87"/>
</a>
</g>
</g>
<!-- ndIndexMapper&#45;&gt;ndIndexScheduler -->
<g id="edge12" class="edge"><title>ndIndexMapper&#45;&gt;ndIndexScheduler</title>
<path fill="none" stroke="black" d="M1542.42,-84.9055C1539.42,-84.2132 1536.44,-83.5727 1533.5,-83 1345.46,-46.3102 1120.72,-32.3923 999.825,-27.2947"/>
<polygon fill="black" stroke="black" points="999.732,-27.291 993.574,-31.0422 987.742,-26.8002 993.901,-23.0489 999.732,-27.291"/>
</g>
<!-- ndIndexStatus -->
<g id="node17" class="node"><title>ndIndexStatus</title>
<g id="a_node17_16"><a xlink:href="https://github.com/meilisearch/meilisearch//blob/master/src/index_mapper/mod.rs#:~:text=enum%20IndexStatus" xlink:title="&lt;TABLE&gt;">
<polygon fill="yellow" stroke="none" points="1657.5,-253.5 1657.5,-290.5 1762.5,-290.5 1762.5,-253.5 1657.5,-253.5"/>
<polygon fill="none" stroke="black" points="1657.5,-253.5 1657.5,-290.5 1762.5,-290.5 1762.5,-253.5 1657.5,-253.5"/>
<text text-anchor="start" x="1668.5" y="-269.3" font-family="Arial" font-weight="bold" font-size="14.00">IndexStatus</text>
<polygon fill="none" stroke="black" points="1656,-253 1656,-292 1763,-292 1763,-253 1656,-253"/>
</a>
</g>
</g>
<!-- ndIndexMap -->
<g id="node18" class="node"><title>ndIndexMap</title>
<g id="a_node18_17"><a xlink:href="https://github.com/meilisearch/meilisearch//blob/master/src/index_mapper/index_map.rs#:~:text=struct%20IndexMap" xlink:title="&lt;TABLE&gt;">
<polygon fill="lightblue" stroke="none" points="1728.5,-170.5 1728.5,-207.5 1819.5,-207.5 1819.5,-170.5 1728.5,-170.5"/>
<polygon fill="none" stroke="black" points="1728.5,-170.5 1728.5,-207.5 1819.5,-207.5 1819.5,-170.5 1728.5,-170.5"/>
<text text-anchor="start" x="1739.5" y="-186.3" font-family="Arial" font-weight="bold" font-size="14.00">IndexMap</text>
<polygon fill="none" stroke="black" points="1727,-170 1727,-209 1820,-209 1820,-170 1727,-170"/>
</a>
</g>
</g>
<!-- ndIndexStatus&#45;&gt;ndIndexMap -->
<g id="edge13" class="edge"><title>ndIndexStatus&#45;&gt;ndIndexMap</title>
<path fill="none" stroke="black" d="M1727.33,-248.937C1734.14,-240.32 1742.02,-230.346 1749.32,-221.104"/>
<polygon fill="black" stroke="black" points="1755.55,-213.223 1752.88,-223.859 1752.45,-217.146 1749.35,-221.069 1749.35,-221.069 1749.35,-221.069 1752.45,-217.146 1745.82,-218.279 1755.55,-213.223 1755.55,-213.223"/>
</g>
<!-- ndIndexMap&#45;&gt;ndIndexMapper -->
<g id="edge14" class="edge"><title>ndIndexMap&#45;&gt;ndIndexMapper</title>
<path fill="none" stroke="black" d="M1727.54,-165.937C1708.31,-156.497 1685.76,-145.428 1665.49,-135.478"/>
<polygon fill="black" stroke="black" points="1665.27,-135.37 1658.12,-136.317 1654.5,-130.082 1661.65,-129.136 1665.27,-135.37"/>
</g>
<!-- ndReopenableIndex -->
<g id="node20" class="node"><title>ndReopenableIndex</title>
<g id="a_node20_18"><a xlink:href="https://github.com/meilisearch/meilisearch//blob/master/src/index_mapper/index_map.rs#:~:text=struct%20ReopenableIndex" xlink:title="&lt;TABLE&gt;">
<polygon fill="lightblue" stroke="none" points="1702.5,-87.5 1702.5,-124.5 1845.5,-124.5 1845.5,-87.5 1702.5,-87.5"/>
<polygon fill="none" stroke="black" points="1702.5,-87.5 1702.5,-124.5 1845.5,-124.5 1845.5,-87.5 1702.5,-87.5"/>
<text text-anchor="start" x="1713.5" y="-103.3" font-family="Arial" font-weight="bold" font-size="14.00">ReopenableIndex</text>
<polygon fill="none" stroke="black" points="1701,-87 1701,-126 1846,-126 1846,-87 1701,-87"/>
</a>
</g>
</g>
<!-- ndIndexMap&#45;&gt;ndReopenableIndex -->
<g id="edge15" class="edge"><title>ndIndexMap&#45;&gt;ndReopenableIndex</title>
<path fill="none" stroke="black" stroke-dasharray="5,2" d="M1773.5,-165.937C1773.5,-158.016 1773.5,-148.949 1773.5,-140.357"/>
<polygon fill="black" stroke="black" points="1773.5,-130.223 1778,-140.223 1773.5,-135.223 1773.5,-140.223 1773.5,-140.223 1773.5,-140.223 1773.5,-135.223 1769,-140.223 1773.5,-130.223 1773.5,-130.223"/>
</g>
<!-- ndClosingIndex -->
<g id="node19" class="node"><title>ndClosingIndex</title>
<g id="a_node19_19"><a xlink:href="https://github.com/meilisearch/meilisearch//blob/master/src/index_mapper/index_map.rs#:~:text=struct%20ClosingIndex" xlink:title="&lt;TABLE&gt;">
<polygon fill="lightblue" stroke="none" points="1770.5,-4.5 1770.5,-41.5 1884.5,-41.5 1884.5,-4.5 1770.5,-4.5"/>
<polygon fill="none" stroke="black" points="1770.5,-4.5 1770.5,-41.5 1884.5,-41.5 1884.5,-4.5 1770.5,-4.5"/>
<text text-anchor="start" x="1781.5" y="-20.3" font-family="Arial" font-weight="bold" font-size="14.00">ClosingIndex</text>
<polygon fill="none" stroke="black" points="1769.5,-4 1769.5,-43 1885.5,-43 1885.5,-4 1769.5,-4"/>
</a>
</g>
</g>
<!-- ndClosingIndex&#45;&gt;ndIndexMap -->
<g id="edge16" class="edge"><title>ndClosingIndex&#45;&gt;ndIndexMap</title>
<path fill="none" stroke="black" d="M1845.7,-47.2293C1860.95,-69.2365 1878.08,-103.125 1863.5,-130 1857.24,-141.537 1847.61,-151.154 1836.94,-159.034"/>
<polygon fill="black" stroke="black" points="1836.87,-159.083 1834.13,-165.753 1826.92,-165.788 1829.66,-159.118 1836.87,-159.083"/>
</g>
<!-- ndReopenableIndex&#45;&gt;ndClosingIndex -->
<g id="edge17" class="edge"><title>ndReopenableIndex&#45;&gt;ndClosingIndex</title>
<path fill="none" stroke="black" d="M1788.54,-82.937C1794.17,-74.4942 1800.67,-64.7481 1806.72,-55.6646"/>
<polygon fill="black" stroke="black" points="1812.35,-47.2229 1810.55,-58.0396 1809.58,-51.3832 1806.8,-55.5435 1806.8,-55.5435 1806.8,-55.5435 1809.58,-51.3832 1803.06,-53.0473 1812.35,-47.2229 1812.35,-47.2229"/>
</g>
<!-- ndLru -->
<g id="node21" class="node"><title>ndLru</title>
<g id="a_node21_20"><a xlink:href="https://github.com/meilisearch/meilisearch//blob/master/src/lru.rs#:~:text=struct%20Lru" xlink:title="&lt;TABLE&gt;">
<polygon fill="lightblue" stroke="none" points="1747.5,-336.5 1747.5,-373.5 1794.5,-373.5 1794.5,-336.5 1747.5,-336.5"/>
<polygon fill="none" stroke="black" points="1747.5,-336.5 1747.5,-373.5 1794.5,-373.5 1794.5,-336.5 1747.5,-336.5"/>
<text text-anchor="start" x="1758.5" y="-352.3" font-family="Arial" font-weight="bold" font-size="14.00">Lru</text>
<polygon fill="none" stroke="black" points="1746,-336 1746,-375 1795,-375 1795,-336 1746,-336"/>
</a>
</g>
</g>
<!-- ndLruMap -->
<g id="node22" class="node"><title>ndLruMap</title>
<g id="a_node22_21"><a xlink:href="https://github.com/meilisearch/meilisearch//blob/master/src/lru.rs#:~:text=struct%20LruMap" xlink:title="&lt;TABLE&gt;">
<polygon fill="lightblue" stroke="none" points="1798.5,-253.5 1798.5,-290.5 1875.5,-290.5 1875.5,-253.5 1798.5,-253.5"/>
<polygon fill="none" stroke="black" points="1798.5,-253.5 1798.5,-290.5 1875.5,-290.5 1875.5,-253.5 1798.5,-253.5"/>
<text text-anchor="start" x="1809.5" y="-269.3" font-family="Arial" font-weight="bold" font-size="14.00">LruMap</text>
<polygon fill="none" stroke="black" points="1797,-253 1797,-292 1876,-292 1876,-253 1797,-253"/>
</a>
</g>
</g>
<!-- ndLru&#45;&gt;ndLruMap -->
<g id="edge18" class="edge"><title>ndLru&#45;&gt;ndLruMap</title>
<path fill="none" stroke="black" d="M1788.88,-331.937C1795.48,-323.842 1803.05,-314.55 1810.19,-305.792"/>
<polygon fill="black" stroke="black" points="1810.4,-305.526 1811.09,-298.348 1817.99,-296.223 1817.3,-303.401 1810.4,-305.526"/>
</g>
<!-- ndLruMap&#45;&gt;ndIndexMap -->
<g id="edge19" class="edge"><title>ndLruMap&#45;&gt;ndIndexMap</title>
<path fill="none" stroke="black" d="M1818.95,-248.937C1812.66,-240.842 1805.43,-231.55 1798.62,-222.792"/>
<polygon fill="black" stroke="black" points="1798.54,-222.695 1791.7,-220.415 1791.17,-213.223 1798.01,-215.503 1798.54,-222.695"/>
</g>
<!-- ndInsertionOutcome -->
<g id="node23" class="node"><title>ndInsertionOutcome</title>
<g id="a_node23_22"><a xlink:href="https://github.com/meilisearch/meilisearch//blob/master/src/lru.rs#:~:text=enum%20InsertionOutcome" xlink:title="&lt;TABLE&gt;">
<polygon fill="yellow" stroke="none" points="1830.5,-336.5 1830.5,-373.5 1977.5,-373.5 1977.5,-336.5 1830.5,-336.5"/>
<polygon fill="none" stroke="black" points="1830.5,-336.5 1830.5,-373.5 1977.5,-373.5 1977.5,-336.5 1830.5,-336.5"/>
<text text-anchor="start" x="1841.5" y="-352.3" font-family="Arial" font-weight="bold" font-size="14.00">InsertionOutcome</text>
<polygon fill="none" stroke="black" points="1829,-336 1829,-375 1978,-375 1978,-336 1829,-336"/>
</a>
</g>
</g>
<!-- ndInsertionOutcome&#45;&gt;ndLruMap -->
<g id="edge20" class="edge"><title>ndInsertionOutcome&#45;&gt;ndLruMap</title>
<path fill="none" stroke="black" d="M1884.84,-331.937C1877.71,-323.32 1869.46,-313.346 1861.81,-304.104"/>
<polygon fill="black" stroke="black" points="1855.3,-296.223 1865.14,-301.06 1858.48,-300.076 1861.67,-303.929 1861.67,-303.929 1861.67,-303.929 1858.48,-300.076 1858.2,-306.797 1855.3,-296.223 1855.3,-296.223"/>
</g>
</g>
</svg>
