<?xml version="1.0" encoding="UTF-8" standalone="no"?>
<!DOCTYPE svg PUBLIC "-//W3C//DTD SVG 1.1//EN"
 "http://www.w3.org/Graphics/SVG/1.1/DTD/svg11.dtd">
<!-- Generated by graphviz version 2.38.0 (20140413.2041)
 -->
<!-- Title: ml Pages: 1 -->
<svg width="2665pt" height="1232pt"
 viewBox="0.00 0.00 2664.50 1232.00" xmlns="http://www.w3.org/2000/svg" xmlns:xlink="http://www.w3.org/1999/xlink">
<g id="graph0" class="graph" transform="scale(1 1) rotate(0) translate(4 1228)">
<title>ml</title>
<polygon fill="white" stroke="none" points="-4,4 -4,-1228 2660.5,-1228 2660.5,4 -4,4"/>
<!-- ndQuery -->
<g id="node1" class="node"><title>ndQuery</title>
<g id="a_node1_0"><a xlink:href="https://github.com/meilisearch/meilisearch//blob/master/src/lib.rs#:~:text=struct%20Query" xlink:title="&lt;TABLE&gt;">
<polygon fill="lightblue" stroke="none" points="9.5,-657 9.5,-694 344.5,-694 344.5,-657 9.5,-657"/>
<polygon fill="none" stroke="black" points="9.5,-657 9.5,-694 344.5,-694 344.5,-657 9.5,-657"/>
<text text-anchor="start" x="155.5" y="-672.8" font-family="Arial" font-weight="bold" font-size="14.00">Query</text>
<polygon fill="white" stroke="none" points="9.5,-440 9.5,-657 344.5,-657 344.5,-440 9.5,-440"/>
<polygon fill="none" stroke="black" points="9.5,-440 9.5,-657 344.5,-657 344.5,-440 9.5,-440"/>
<text text-anchor="start" x="20.5" y="-634.8" font-family="Arial" font-size="14.00">+ limit: Option&lt;u32&gt;</text>
<text text-anchor="start" x="20.5" y="-619.8" font-family="Arial" font-size="14.00">+ from: Option&lt;u32&gt;</text>
<text text-anchor="start" x="20.5" y="-604.8" font-family="Arial" font-size="14.00">+ statuses: Option&lt;Vec&lt;Status&gt;&gt;</text>
<text text-anchor="start" x="20.5" y="-589.8" font-family="Arial" font-size="14.00">+ types: Option&lt;Vec&lt;Kind&gt;&gt;</text>
<text text-anchor="start" x="20.5" y="-574.8" font-family="Arial" font-size="14.00">+ index_uids: Option&lt;Vec&lt;String&gt;&gt;</text>
<text text-anchor="start" x="20.5" y="-559.8" font-family="Arial" font-size="14.00">+ uids: Option&lt;Vec&lt;TaskId&gt;&gt;</text>
<text text-anchor="start" x="20.5" y="-544.8" font-family="Arial" font-size="14.00">+ canceled_by: Option&lt;Vec&lt;TaskId&gt;&gt;</text>
<text text-anchor="start" x="20.5" y="-529.8" font-family="Arial" font-size="14.00">+ before_enqueued_at: Option&lt;OffsetDateTime&gt;</text>
<text text-anchor="start" x="20.5" y="-514.8" font-family="Arial" font-size="14.00">+ after_enqueued_at: Option&lt;OffsetDateTime&gt;</text>
<text text-anchor="start" x="20.5" y="-499.8" font-family="Arial" font-size="14.00">+ before_started_at: Option&lt;OffsetDateTime&gt;</text>
<text text-anchor="start" x="20.5" y="-484.8" font-family="Arial" font-size="14.00">+ after_started_at: Option&lt;OffsetDateTime&gt;</text>
<text text-anchor="start" x="20.5" y="-469.8" font-family="Arial" font-size="14.00">+ before_finished_at: Option&lt;OffsetDateTime&gt;</text>
<text text-anchor="start" x="20.5" y="-454.8" font-family="Arial" font-size="14.00">+ after_finished_at: Option&lt;OffsetDateTime&gt;</text>
<polygon fill="none" stroke="black" points="8,-439 8,-695 345,-695 345,-439 8,-439"/>
</a>
</g>
</g>
<!-- ndIndexScheduler -->
<g id="node6" class="node"><title>ndIndexScheduler</title>
<g id="a_node6_1"><a xlink:href="https://github.com/meilisearch/meilisearch//blob/master/src/lib.rs#:~:text=struct%20IndexScheduler" xlink:title="&lt;TABLE&gt;">
<polygon fill="lightblue" stroke="none" points="902.5,-356.5 902.5,-393.5 1414.5,-393.5 1414.5,-356.5 902.5,-356.5"/>
<polygon fill="none" stroke="black" points="902.5,-356.5 902.5,-393.5 1414.5,-393.5 1414.5,-356.5 902.5,-356.5"/>
<text text-anchor="start" x="1103.5" y="-372.3" font-family="Arial" font-weight="bold" font-size="14.00">IndexScheduler</text>
<polygon fill="white" stroke="none" points="902.5,-4.5 902.5,-356.5 1414.5,-356.5 1414.5,-4.5 902.5,-4.5"/>
<polygon fill="none" stroke="black" points="902.5,-4.5 902.5,-356.5 1414.5,-356.5 1414.5,-4.5 902.5,-4.5"/>
<text text-anchor="start" x="913.5" y="-334.3" font-family="Arial" font-size="14.00">&#45; env: Env</text>
<text text-anchor="start" x="913.5" y="-319.3" font-family="Arial" font-size="14.00">&#45; must_stop_processing: MustStopProcessing</text>
<text text-anchor="start" x="913.5" y="-304.3" font-family="Arial" font-size="14.00">&#45; processing_tasks: Arc&lt;RwLock&lt;ProcessingTasks&gt;&gt;</text>
<text text-anchor="start" x="913.5" y="-289.3" font-family="Arial" font-size="14.00">&#45; file_store: FileStore</text>
<text text-anchor="start" x="913.5" y="-274.3" font-family="Arial" font-size="14.00">&#45; all_tasks: Database&lt;OwnedType&lt;BEU32&gt;, SerdeJson&lt;Task&gt;&gt;</text>
<text text-anchor="start" x="913.5" y="-259.3" font-family="Arial" font-size="14.00">&#45; status: Database&lt;SerdeBincode&lt;Status&gt;, RoaringBitmapCodec&gt;</text>
<text text-anchor="start" x="913.5" y="-244.3" font-family="Arial" font-size="14.00">&#45; kind: Database&lt;SerdeBincode&lt;Kind&gt;, RoaringBitmapCodec&gt;</text>
<text text-anchor="start" x="913.5" y="-229.3" font-family="Arial" font-size="14.00">&#45; index_tasks: Database&lt;Str, RoaringBitmapCodec&gt;</text>
<text text-anchor="start" x="913.5" y="-214.3" font-family="Arial" font-size="14.00">&#45; canceled_by: Database&lt;OwnedType&lt;BEU32&gt;, RoaringBitmapCodec&gt;</text>
<text text-anchor="start" x="913.5" y="-199.3" font-family="Arial" font-size="14.00">&#45; enqueued_at: Database&lt;OwnedType&lt;BEI128&gt;, CboRoaringBitmapCodec&gt;</text>
<text text-anchor="start" x="913.5" y="-184.3" font-family="Arial" font-size="14.00">&#45; started_at: Database&lt;OwnedType&lt;BEI128&gt;, CboRoaringBitmapCodec&gt;</text>
<text text-anchor="start" x="913.5" y="-169.3" font-family="Arial" font-size="14.00">&#45; finished_at: Database&lt;OwnedType&lt;BEI128&gt;, CboRoaringBitmapCodec&gt;</text>
<text text-anchor="start" x="913.5" y="-154.3" font-family="Arial" font-size="14.00">&#45; index_mapper: IndexMapper</text>
<text text-anchor="start" x="913.5" y="-139.3" font-family="Arial" font-size="14.00">&#45; wake_up: Arc&lt;SignalEvent&gt;</text>
<text text-anchor="start" x="913.5" y="-124.3" font-family="Arial" font-size="14.00">&#45; autobatching_enabled: bool</text>
<text text-anchor="start" x="913.5" y="-109.3" font-family="Arial" font-size="14.00">&#45; dumps_path: PathBuf</text>
<text text-anchor="start" x="913.5" y="-94.3" font-family="Arial" font-size="14.00">&#45; snapshots_path: PathBuf</text>
<text text-anchor="start" x="913.5" y="-79.3" font-family="Arial" font-size="14.00">&#45; auth_path: PathBuf</text>
<text text-anchor="start" x="913.5" y="-64.3" font-family="Arial" font-size="14.00">&#45; version_file_path: PathBuf</text>
<text text-anchor="start" x="913.5" y="-49.3" font-family="Arial" font-size="14.00">&#45; test_breakpoint_sdr: crossbeam::channel::Sender&lt;(Breakpoint, bool)&gt;</text>
<text text-anchor="start" x="913.5" y="-34.3" font-family="Arial" font-size="14.00">&#45; planned_failures: Vec&lt;(usize, tests::FailureLocation)&gt;</text>
<text text-anchor="start" x="913.5" y="-19.3" font-family="Arial" font-size="14.00">&#45; run_loop_iteration: Arc&lt;RwLock&lt;usize&gt;&gt;</text>
<polygon fill="none" stroke="black" points="901.5,-4 901.5,-395 1415.5,-395 1415.5,-4 901.5,-4"/>
</a>
</g>
</g>
<!-- ndQuery&#45;&gt;ndIndexScheduler -->
<g id="edge1" class="edge"><title>ndQuery&#45;&gt;ndIndexScheduler</title>
<path fill="none" stroke="black" stroke-dasharray="5,2" d="M353.258,-439.104C356.007,-437.699 358.755,-436.33 361.5,-435 527.259,-354.694 725.967,-296.155 883.505,-257.65"/>
<polygon fill="black" stroke="black" points="893.345,-255.257 884.692,-261.992 888.487,-256.438 883.629,-257.62 883.629,-257.62 883.629,-257.62 888.487,-256.438 882.565,-253.247 893.345,-255.257 893.345,-255.257"/>
</g>
<!-- ndProcessingTasks -->
<g id="node2" class="node"><title>ndProcessingTasks</title>
<g id="a_node2_2"><a xlink:href="https://github.com/meilisearch/meilisearch//blob/master/src/lib.rs#:~:text=struct%20ProcessingTasks" xlink:title="&lt;TABLE&gt;">
<polygon fill="lightblue" stroke="none" points="380.5,-574 380.5,-611 583.5,-611 583.5,-574 380.5,-574"/>
<polygon fill="none" stroke="black" points="380.5,-574 380.5,-611 583.5,-611 583.5,-574 380.5,-574"/>
<text text-anchor="start" x="421" y="-589.8" font-family="Arial" font-weight="bold" font-size="14.00">ProcessingTasks</text>
<polygon fill="white" stroke="none" points="380.5,-522 380.5,-574 583.5,-574 583.5,-522 380.5,-522"/>
<polygon fill="none" stroke="black" points="380.5,-522 380.5,-574 583.5,-574 583.5,-522 380.5,-522"/>
<text text-anchor="start" x="391.5" y="-551.8" font-family="Arial" font-size="14.00">&#45; started_at: OffsetDateTime</text>
<text text-anchor="start" x="391.5" y="-536.8" font-family="Arial" font-size="14.00">&#45; processing: RoaringBitmap</text>
<polygon fill="none" stroke="black" points="379,-521.5 379,-612.5 584,-612.5 584,-521.5 379,-521.5"/>
</a>
</g>
</g>
<!-- ndProcessingTasks&#45;&gt;ndIndexScheduler -->
<g id="edge2" class="edge"><title>ndProcessingTasks&#45;&gt;ndIndexScheduler</title>
<path fill="none" stroke="black" d="M517.173,-517.215C538.873,-490.205 568.516,-457.622 600.5,-435 685.414,-374.941 788.078,-326.27 882.073,-289.159"/>
<polygon fill="black" stroke="black" points="882.317,-289.063 886.446,-283.152 893.492,-284.69 889.362,-290.602 882.317,-289.063"/>
</g>
<!-- ndMustStopProcessing -->
<g id="node3" class="node"><title>ndMustStopProcessing</title>
<g id="a_node3_3"><a xlink:href="https://github.com/meilisearch/meilisearch//blob/master/src/lib.rs#:~:text=struct%20MustStopProcessing" xlink:title="&lt;TABLE&gt;">
<polygon fill="lightblue" stroke="none" points="619.5,-567 619.5,-604 788.5,-604 788.5,-567 619.5,-567"/>
<polygon fill="none" stroke="black" points="619.5,-567 619.5,-604 788.5,-604 788.5,-567 619.5,-567"/>
<text text-anchor="start" x="630.5" y="-582.8" font-family="Arial" font-weight="bold" font-size="14.00">MustStopProcessing</text>
<polygon fill="white" stroke="none" points="619.5,-530 619.5,-567 788.5,-567 788.5,-530 619.5,-530"/>
<polygon fill="none" stroke="black" points="619.5,-530 619.5,-567 788.5,-567 788.5,-530 619.5,-530"/>
<text text-anchor="start" x="630.5" y="-544.8" font-family="Arial" font-size="14.00">&#45; Arc&lt;AtomicBool&gt;</text>
<polygon fill="none" stroke="black" points="618,-529 618,-605 789,-605 789,-529 618,-529"/>
</a>
</g>
</g>
<!-- ndMustStopProcessing&#45;&gt;ndIndexScheduler -->
<g id="edge3" class="edge"><title>ndMustStopProcessing&#45;&gt;ndIndexScheduler</title>
<path fill="none" stroke="black" d="M730.361,-524.804C749.371,-497.483 776.547,-461.854 805.5,-435 829.748,-412.51 856.364,-390.688 883.769,-369.993"/>
<polygon fill="black" stroke="black" points="883.883,-369.908 886.292,-363.111 893.493,-362.721 891.084,-369.518 883.883,-369.908"/>
</g>
<!-- ndBreakpoint -->
<g id="node4" class="node"><title>ndBreakpoint</title>
<g id="a_node4_4"><a xlink:href="https://github.com/meilisearch/meilisearch//blob/master/src/lib.rs#:~:text=enum%20Breakpoint" xlink:title="&lt;TABLE&gt;">
<polygon fill="yellow" stroke="none" points="824.5,-627 824.5,-664 1009.5,-664 1009.5,-627 824.5,-627"/>
<polygon fill="none" stroke="black" points="824.5,-627 824.5,-664 1009.5,-664 1009.5,-627 824.5,-627"/>
<text text-anchor="start" x="878.5" y="-642.8" font-family="Arial" font-weight="bold" font-size="14.00">Breakpoint</text>
<polygon fill="white" stroke="none" points="824.5,-470 824.5,-627 1009.5,-627 1009.5,-470 824.5,-470"/>
<polygon fill="none" stroke="black" points="824.5,-470 824.5,-627 1009.5,-627 1009.5,-470 824.5,-470"/>
<text text-anchor="start" x="835.5" y="-604.8" font-family="Arial" font-size="14.00">Init</text>
<text text-anchor="start" x="835.5" y="-589.8" font-family="Arial" font-size="14.00">Start</text>
<text text-anchor="start" x="835.5" y="-574.8" font-family="Arial" font-size="14.00">BatchCreated</text>
<text text-anchor="start" x="835.5" y="-559.8" font-family="Arial" font-size="14.00">BeforeProcessing</text>
<text text-anchor="start" x="835.5" y="-544.8" font-family="Arial" font-size="14.00">AfterProcessing</text>
<text text-anchor="start" x="835.5" y="-529.8" font-family="Arial" font-size="14.00">AbortedIndexation</text>
<text text-anchor="start" x="835.5" y="-514.8" font-family="Arial" font-size="14.00">ProcessBatchSucceeded</text>
<text text-anchor="start" x="835.5" y="-499.8" font-family="Arial" font-size="14.00">ProcessBatchFailed</text>
<text text-anchor="start" x="835.5" y="-484.8" font-family="Arial" font-size="14.00">InsideProcessBatch</text>
<polygon fill="none" stroke="black" points="823,-469 823,-665 1010,-665 1010,-469 823,-469"/>
</a>
</g>
</g>
<!-- ndBreakpoint&#45;&gt;ndIndexScheduler -->
<g id="edge4" class="edge"><title>ndBreakpoint&#45;&gt;ndIndexScheduler</title>
<path fill="none" stroke="black" stroke-dasharray="5,2" d="M983.589,-464.673C995.203,-447.132 1007.65,-428.334 1020.35,-409.146"/>
<polygon fill="black" stroke="black" points="1020.39,-409.087 1020.37,-401.876 1027.02,-399.082 1027.04,-406.293 1020.39,-409.087"/>
</g>
<!-- ndIndexSchedulerOptions -->
<g id="node5" class="node"><title>ndIndexSchedulerOptions</title>
<g id="a_node5_5"><a xlink:href="https://github.com/meilisearch/meilisearch//blob/master/src/lib.rs#:~:text=struct%20IndexSchedulerOptions" xlink:title="&lt;TABLE&gt;">
<polygon fill="lightblue" stroke="none" points="1045.5,-642 1045.5,-679 1271.5,-679 1271.5,-642 1045.5,-642"/>
<polygon fill="none" stroke="black" points="1045.5,-642 1045.5,-679 1271.5,-679 1271.5,-642 1045.5,-642"/>
<text text-anchor="start" x="1076" y="-657.8" font-family="Arial" font-weight="bold" font-size="14.00">IndexSchedulerOptions</text>
<polygon fill="white" stroke="none" points="1045.5,-455 1045.5,-642 1271.5,-642 1271.5,-455 1045.5,-455"/>
<polygon fill="none" stroke="black" points="1045.5,-455 1045.5,-642 1271.5,-642 1271.5,-455 1045.5,-455"/>
<text text-anchor="start" x="1056.5" y="-619.8" font-family="Arial" font-size="14.00">+ version_file_path: PathBuf</text>
<text text-anchor="start" x="1056.5" y="-604.8" font-family="Arial" font-size="14.00">+ auth_path: PathBuf</text>
<text text-anchor="start" x="1056.5" y="-589.8" font-family="Arial" font-size="14.00">+ tasks_path: PathBuf</text>
<text text-anchor="start" x="1056.5" y="-574.8" font-family="Arial" font-size="14.00">+ update_file_path: PathBuf</text>
<text text-anchor="start" x="1056.5" y="-559.8" font-family="Arial" font-size="14.00">+ indexes_path: PathBuf</text>
<text text-anchor="start" x="1056.5" y="-544.8" font-family="Arial" font-size="14.00">+ snapshots_path: PathBuf</text>
<text text-anchor="start" x="1056.5" y="-529.8" font-family="Arial" font-size="14.00">+ dumps_path: PathBuf</text>
<text text-anchor="start" x="1056.5" y="-514.8" font-family="Arial" font-size="14.00">+ task_db_size: usize</text>
<text text-anchor="start" x="1056.5" y="-499.8" font-family="Arial" font-size="14.00">+ index_size: usize</text>
<text text-anchor="start" x="1056.5" y="-484.8" font-family="Arial" font-size="14.00">+ indexer_config: IndexerConfig</text>
<text text-anchor="start" x="1056.5" y="-469.8" font-family="Arial" font-size="14.00">+ autobatching_enabled: bool</text>
<polygon fill="none" stroke="black" points="1044.5,-454 1044.5,-680 1272.5,-680 1272.5,-454 1044.5,-454"/>
</a>
</g>
</g>
<!-- ndIndexSchedulerOptions&#45;&gt;ndIndexScheduler -->
<g id="edge5" class="edge"><title>ndIndexSchedulerOptions&#45;&gt;ndIndexScheduler</title>
<path fill="none" stroke="black" stroke-dasharray="5,2" d="M1158.5,-449.851C1158.5,-436.731 1158.5,-423.081 1158.5,-409.227"/>
<polygon fill="black" stroke="black" points="1158.5,-399.108 1163,-409.108 1158.5,-404.108 1158.5,-409.108 1158.5,-409.108 1158.5,-409.108 1158.5,-404.108 1154,-409.108 1158.5,-399.108 1158.5,-399.108"/>
</g>
<!-- ndBatch -->
<g id="node7" class="node"><title>ndBatch</title>
<g id="a_node7_6"><a xlink:href="https://github.com/meilisearch/meilisearch//blob/master/src/batch.rs#:~:text=enum%20Batch" xlink:title="&lt;TABLE&gt;">
<polygon fill="yellow" stroke="none" points="1308.5,-627 1308.5,-664 1523.5,-664 1523.5,-627 1308.5,-627"/>
<polygon fill="none" stroke="black" points="1308.5,-627 1308.5,-664 1523.5,-664 1523.5,-627 1308.5,-627"/>
<text text-anchor="start" x="1395.5" y="-642.8" font-family="Arial" font-weight="bold" font-size="14.00">Batch</text>
<polygon fill="white" stroke="none" points="1308.5,-470 1308.5,-627 1523.5,-627 1523.5,-470 1308.5,-470"/>
<polygon fill="none" stroke="black" points="1308.5,-470 1308.5,-627 1523.5,-627 1523.5,-470 1308.5,-470"/>
<text text-anchor="start" x="1319.5" y="-604.8" font-family="Arial" font-size="14.00">TaskCancelation</text>
<text text-anchor="start" x="1319.5" y="-589.8" font-family="Arial" font-size="14.00">TaskDeletion(Task)</text>
<text text-anchor="start" x="1319.5" y="-574.8" font-family="Arial" font-size="14.00">SnapshotCreation(Vec&lt;Task&gt;)</text>
<text text-anchor="start" x="1319.5" y="-559.8" font-family="Arial" font-size="14.00">Dump(Task)</text>
<text text-anchor="start" x="1319.5" y="-544.8" font-family="Arial" font-size="14.00">IndexOperation</text>
<text text-anchor="start" x="1319.5" y="-529.8" font-family="Arial" font-size="14.00">IndexCreation</text>
<text text-anchor="start" x="1319.5" y="-514.8" font-family="Arial" font-size="14.00">IndexUpdate</text>
<text text-anchor="start" x="1319.5" y="-499.8" font-family="Arial" font-size="14.00">IndexDeletion</text>
<text text-anchor="start" x="1319.5" y="-484.8" font-family="Arial" font-size="14.00">IndexSwap</text>
<polygon fill="none" stroke="black" points="1307,-469 1307,-665 1524,-665 1524,-469 1307,-469"/>
</a>
</g>
</g>
<!-- ndBatch&#45;&gt;ndIndexScheduler -->
<g id="edge6" class="edge"><title>ndBatch&#45;&gt;ndIndexScheduler</title>
<path fill="none" stroke="black" stroke-dasharray="5,2" d="M1344.25,-464.673C1331.52,-446.569 1317.85,-427.125 1303.91,-407.297"/>
<polygon fill="black" stroke="black" points="1298.13,-399.082 1307.56,-404.673 1301.01,-403.172 1303.88,-407.262 1303.88,-407.262 1303.88,-407.262 1301.01,-403.172 1300.2,-409.85 1298.13,-399.082 1298.13,-399.082"/>
</g>
<!-- ndIndexOperation -->
<g id="node8" class="node"><title>ndIndexOperation</title>
<g id="a_node8_7"><a xlink:href="https://github.com/meilisearch/meilisearch//blob/master/src/batch.rs#:~:text=enum%20IndexOperation" xlink:title="&lt;TABLE&gt;">
<polygon fill="yellow" stroke="none" points="1558.5,-604 1558.5,-641 1764.5,-641 1764.5,-604 1558.5,-604"/>
<polygon fill="none" stroke="black" points="1558.5,-604 1558.5,-641 1764.5,-641 1764.5,-604 1558.5,-604"/>
<text text-anchor="start" x="1607.5" y="-619.8" font-family="Arial" font-weight="bold" font-size="14.00">IndexOperation</text>
<polygon fill="white" stroke="none" points="1558.5,-492 1558.5,-604 1764.5,-604 1764.5,-492 1558.5,-492"/>
<polygon fill="none" stroke="black" points="1558.5,-492 1558.5,-604 1764.5,-604 1764.5,-492 1558.5,-492"/>
<text text-anchor="start" x="1569.5" y="-581.8" font-family="Arial" font-size="14.00">DocumentImport</text>
<text text-anchor="start" x="1569.5" y="-566.8" font-family="Arial" font-size="14.00">DocumentDeletion</text>
<text text-anchor="start" x="1569.5" y="-551.8" font-family="Arial" font-size="14.00">DocumentClear</text>
<text text-anchor="start" x="1569.5" y="-536.8" font-family="Arial" font-size="14.00">Settings</text>
<text text-anchor="start" x="1569.5" y="-521.8" font-family="Arial" font-size="14.00">DocumentClearAndSetting</text>
<text text-anchor="start" x="1569.5" y="-506.8" font-family="Arial" font-size="14.00">SettingsAndDocumentImport</text>
<polygon fill="none" stroke="black" points="1557.5,-491.5 1557.5,-642.5 1765.5,-642.5 1765.5,-491.5 1557.5,-491.5"/>
</a>
</g>
</g>
<!-- ndIndexOperation&#45;&gt;ndIndexScheduler -->
<g id="edge7" class="edge"><title>ndIndexOperation&#45;&gt;ndIndexScheduler</title>
<path fill="none" stroke="black" stroke-dasharray="5,2" d="M1595.38,-487.337C1578.39,-469.18 1559.52,-450.626 1540.5,-435 1506.89,-407.385 1469.75,-380.649 1432.21,-355.726"/>
<polygon fill="black" stroke="black" points="1423.69,-350.102 1434.52,-351.854 1427.87,-352.856 1432.04,-355.61 1432.04,-355.61 1432.04,-355.61 1427.87,-352.856 1429.56,-359.366 1423.69,-350.102 1423.69,-350.102"/>
</g>
<!-- ndDateField -->
<g id="node9" class="node"><title>ndDateField</title>
<g id="a_node9_8"><a xlink:href="https://github.com/meilisearch/meilisearch//blob/master/src/error.rs#:~:text=enum%20DateField" xlink:title="&lt;TABLE&gt;">
<polygon fill="yellow" stroke="none" points="2010.5,-1016.5 2010.5,-1053.5 2155.5,-1053.5 2155.5,-1016.5 2010.5,-1016.5"/>
<polygon fill="none" stroke="black" points="2010.5,-1016.5 2010.5,-1053.5 2155.5,-1053.5 2155.5,-1016.5 2010.5,-1016.5"/>
<text text-anchor="start" x="2050" y="-1032.3" font-family="Arial" font-weight="bold" font-size="14.00">DateField</text>
<polygon fill="white" stroke="none" points="2010.5,-904.5 2010.5,-1016.5 2155.5,-1016.5 2155.5,-904.5 2010.5,-904.5"/>
<polygon fill="none" stroke="black" points="2010.5,-904.5 2010.5,-1016.5 2155.5,-1016.5 2155.5,-904.5 2010.5,-904.5"/>
<text text-anchor="start" x="2021.5" y="-994.3" font-family="Arial" font-size="14.00">BeforeEnqueuedAt</text>
<text text-anchor="start" x="2021.5" y="-979.3" font-family="Arial" font-size="14.00">AfterEnqueuedAt</text>
<text text-anchor="start" x="2021.5" y="-964.3" font-family="Arial" font-size="14.00">BeforeStartedAt</text>
<text text-anchor="start" x="2021.5" y="-949.3" font-family="Arial" font-size="14.00">AfterStartedAt</text>
<text text-anchor="start" x="2021.5" y="-934.3" font-family="Arial" font-size="14.00">BeforeFinishedAt</text>
<text text-anchor="start" x="2021.5" y="-919.3" font-family="Arial" font-size="14.00">AfterFinishedAt</text>
<polygon fill="none" stroke="black" points="2009,-904 2009,-1055 2156,-1055 2156,-904 2009,-904"/>
</a>
</g>
</g>
<!-- ndError -->
<g id="node10" class="node"><title>ndError</title>
<g id="a_node10_9"><a xlink:href="https://github.com/meilisearch/meilisearch//blob/master/src/error.rs#:~:text=enum%20Error" xlink:title="&lt;TABLE&gt;">
<polygon fill="yellow" stroke="none" points="2191.5,-1181.5 2191.5,-1218.5 2487.5,-1218.5 2487.5,-1181.5 2191.5,-1181.5"/>
<polygon fill="none" stroke="black" points="2191.5,-1181.5 2191.5,-1218.5 2487.5,-1218.5 2487.5,-1181.5 2191.5,-1181.5"/>
<text text-anchor="start" x="2321" y="-1197.3" font-family="Arial" font-weight="bold" font-size="14.00">Error</text>
<polygon fill="white" stroke="none" points="2191.5,-739.5 2191.5,-1181.5 2487.5,-1181.5 2487.5,-739.5 2191.5,-739.5"/>
<polygon fill="none" stroke="black" points="2191.5,-739.5 2191.5,-1181.5 2487.5,-1181.5 2487.5,-739.5 2191.5,-739.5"/>
<text text-anchor="start" x="2202.5" y="-1159.3" font-family="Arial" font-size="14.00">IndexNotFound(String)</text>
<text text-anchor="start" x="2202.5" y="-1144.3" font-family="Arial" font-size="14.00">IndexAlreadyExists(String)</text>
<text text-anchor="start" x="2202.5" y="-1129.3" font-family="Arial" font-size="14.00">SwapDuplicateIndexFound(String)</text>
<text text-anchor="start" x="2202.5" y="-1114.3" font-family="Arial" font-size="14.00">SwapDuplicateIndexesFound(Vec&lt;String&gt;)</text>
<text text-anchor="start" x="2202.5" y="-1099.3" font-family="Arial" font-size="14.00">SwapIndexNotFound(String)</text>
<text text-anchor="start" x="2202.5" y="-1084.3" font-family="Arial" font-size="14.00">SwapIndexesNotFound(Vec&lt;String&gt;)</text>
<text text-anchor="start" x="2202.5" y="-1069.3" font-family="Arial" font-size="14.00">CorruptedDump</text>
<text text-anchor="start" x="2202.5" y="-1054.3" font-family="Arial" font-size="14.00">InvalidTaskDate</text>
<text text-anchor="start" x="2202.5" y="-1039.3" font-family="Arial" font-size="14.00">InvalidTaskUids</text>
<text text-anchor="start" x="2202.5" y="-1024.3" font-family="Arial" font-size="14.00">InvalidTaskStatuses</text>
<text text-anchor="start" x="2202.5" y="-1009.3" font-family="Arial" font-size="14.00">InvalidTaskTypes</text>
<text text-anchor="start" x="2202.5" y="-994.3" font-family="Arial" font-size="14.00">InvalidTaskCanceledBy</text>
<text text-anchor="start" x="2202.5" y="-979.3" font-family="Arial" font-size="14.00">InvalidIndexUid</text>
<text text-anchor="start" x="2202.5" y="-964.3" font-family="Arial" font-size="14.00">TaskNotFound(TaskId)</text>
<text text-anchor="start" x="2202.5" y="-949.3" font-family="Arial" font-size="14.00">TaskDeletionWithEmptyQuery</text>
<text text-anchor="start" x="2202.5" y="-934.3" font-family="Arial" font-size="14.00">TaskCancelationWithEmptyQuery</text>
<text text-anchor="start" x="2202.5" y="-919.3" font-family="Arial" font-size="14.00">Dump(dump::Error)</text>
<text text-anchor="start" x="2202.5" y="-904.3" font-family="Arial" font-size="14.00">Heed(heed::Error)</text>
<text text-anchor="start" x="2202.5" y="-889.3" font-family="Arial" font-size="14.00">Milli(milli::Error)</text>
<text text-anchor="start" x="2202.5" y="-874.3" font-family="Arial" font-size="14.00">ProcessBatchPanicked</text>
<text text-anchor="start" x="2202.5" y="-859.3" font-family="Arial" font-size="14.00">FileStore(file_store::Error)</text>
<text text-anchor="start" x="2202.5" y="-844.3" font-family="Arial" font-size="14.00">IoError(std::io::Error)</text>
<text text-anchor="start" x="2202.5" y="-829.3" font-family="Arial" font-size="14.00">Persist(tempfile::PersistError)</text>
<text text-anchor="start" x="2202.5" y="-814.3" font-family="Arial" font-size="14.00">Anyhow(anyhow::Error)</text>
<text text-anchor="start" x="2202.5" y="-799.3" font-family="Arial" font-size="14.00">CreateBatch(Box&lt;Self&gt;)</text>
<text text-anchor="start" x="2202.5" y="-784.3" font-family="Arial" font-size="14.00">CorruptedTaskQueue</text>
<text text-anchor="start" x="2202.5" y="-769.3" font-family="Arial" font-size="14.00">TaskDatabaseUpdate(Box&lt;Self&gt;)</text>
<text text-anchor="start" x="2202.5" y="-754.3" font-family="Arial" font-size="14.00">HeedTransaction(heed::Error)</text>
<polygon fill="none" stroke="black" points="2190.5,-739 2190.5,-1220 2488.5,-1220 2488.5,-739 2190.5,-739"/>
</a>
</g>
</g>
<!-- ndAutobatchKind -->
<g id="node11" class="node"><title>ndAutobatchKind</title>
<g id="a_node11_10"><a xlink:href="https://github.com/meilisearch/meilisearch//blob/master/src/autobatcher.rs#:~:text=enum%20AutobatchKind" xlink:title="&lt;TABLE&gt;">
<polygon fill="yellow" stroke="none" points="1833.5,-1031.5 1833.5,-1068.5 1973.5,-1068.5 1973.5,-1031.5 1833.5,-1031.5"/>
<polygon fill="none" stroke="black" points="1833.5,-1031.5 1833.5,-1068.5 1973.5,-1068.5 1973.5,-1031.5 1833.5,-1031.5"/>
<text text-anchor="start" x="1851.5" y="-1047.3" font-family="Arial" font-weight="bold" font-size="14.00">AutobatchKind</text>
<polygon fill="white" stroke="none" points="1833.5,-889.5 1833.5,-1031.5 1973.5,-1031.5 1973.5,-889.5 1833.5,-889.5"/>
<polygon fill="none" stroke="black" points="1833.5,-889.5 1833.5,-1031.5 1973.5,-1031.5 1973.5,-889.5 1833.5,-889.5"/>
<text text-anchor="start" x="1844.5" y="-1009.3" font-family="Arial" font-size="14.00">DocumentImport</text>
<text text-anchor="start" x="1844.5" y="-994.3" font-family="Arial" font-size="14.00">DocumentDeletion</text>
<text text-anchor="start" x="1844.5" y="-979.3" font-family="Arial" font-size="14.00">DocumentClear</text>
<text text-anchor="start" x="1844.5" y="-964.3" font-family="Arial" font-size="14.00">Settings</text>
<text text-anchor="start" x="1844.5" y="-949.3" font-family="Arial" font-size="14.00">IndexCreation</text>
<text text-anchor="start" x="1844.5" y="-934.3" font-family="Arial" font-size="14.00">IndexDeletion</text>
<text text-anchor="start" x="1844.5" y="-919.3" font-family="Arial" font-size="14.00">IndexUpdate</text>
<text text-anchor="start" x="1844.5" y="-904.3" font-family="Arial" font-size="14.00">IndexSwap</text>
<polygon fill="none" stroke="black" points="1832.5,-889 1832.5,-1070 1974.5,-1070 1974.5,-889 1832.5,-889"/>
</a>
</g>
</g>
<!-- ndBatchKind -->
<g id="node12" class="node"><title>ndBatchKind</title>
<g id="a_node12_11"><a xlink:href="https://github.com/meilisearch/meilisearch//blob/master/src/autobatcher.rs#:~:text=enum%20BatchKind" xlink:title="&lt;TABLE&gt;">
<polygon fill="yellow" stroke="none" points="1800.5,-634 1800.5,-671 2006.5,-671 2006.5,-634 1800.5,-634"/>
<polygon fill="none" stroke="black" points="1800.5,-634 1800.5,-671 2006.5,-671 2006.5,-634 1800.5,-634"/>
<text text-anchor="start" x="1867" y="-649.8" font-family="Arial" font-weight="bold" font-size="14.00">BatchKind</text>
<polygon fill="white" stroke="none" points="1800.5,-462 1800.5,-634 2006.5,-634 2006.5,-462 1800.5,-462"/>
<polygon fill="none" stroke="black" points="1800.5,-462 1800.5,-634 2006.5,-634 2006.5,-462 1800.5,-462"/>
<text text-anchor="start" x="1811.5" y="-611.8" font-family="Arial" font-size="14.00">DocumentClear</text>
<text text-anchor="start" x="1811.5" y="-596.8" font-family="Arial" font-size="14.00">DocumentImport</text>
<text text-anchor="start" x="1811.5" y="-581.8" font-family="Arial" font-size="14.00">DocumentDeletion</text>
<text text-anchor="start" x="1811.5" y="-566.8" font-family="Arial" font-size="14.00">ClearAndSettings</text>
<text text-anchor="start" x="1811.5" y="-551.8" font-family="Arial" font-size="14.00">SettingsAndDocumentImport</text>
<text text-anchor="start" x="1811.5" y="-536.8" font-family="Arial" font-size="14.00">Settings</text>
<text text-anchor="start" x="1811.5" y="-521.8" font-family="Arial" font-size="14.00">IndexDeletion</text>
<text text-anchor="start" x="1811.5" y="-506.8" font-family="Arial" font-size="14.00">IndexCreation</text>
<text text-anchor="start" x="1811.5" y="-491.8" font-family="Arial" font-size="14.00">IndexUpdate</text>
<text text-anchor="start" x="1811.5" y="-476.8" font-family="Arial" font-size="14.00">IndexSwap</text>
<polygon fill="none" stroke="black" points="1799.5,-461.5 1799.5,-672.5 2007.5,-672.5 2007.5,-461.5 1799.5,-461.5"/>
</a>
</g>
</g>
<!-- ndAutobatchKind&#45;&gt;ndBatchKind -->
<g id="edge8" class="edge"><title>ndAutobatchKind&#45;&gt;ndBatchKind</title>
<path fill="none" stroke="black" stroke-dasharray="5,2" d="M1903.5,-884.838C1903.5,-826.11 1903.5,-749.87 1903.5,-686.895"/>
<polygon fill="black" stroke="black" points="1903.5,-676.506 1908,-686.506 1903.5,-681.506 1903.5,-686.506 1903.5,-686.506 1903.5,-686.506 1903.5,-681.506 1899,-686.507 1903.5,-676.506 1903.5,-676.506"/>
</g>
<!-- ndBatchKind&#45;&gt;ndIndexScheduler -->
<g id="edge9" class="edge"><title>ndBatchKind&#45;&gt;ndIndexScheduler</title>
<path fill="none" stroke="black" stroke-dasharray="5,2" d="M1811.3,-457.407C1802.04,-449.27 1792.39,-441.654 1782.5,-435 1676.97,-363.992 1547.03,-310.731 1433.1,-273.067"/>
<polygon fill="black" stroke="black" points="1423.53,-269.928 1434.43,-268.769 1428.28,-271.486 1433.03,-273.045 1433.03,-273.045 1433.03,-273.045 1428.28,-271.486 1431.63,-277.321 1423.53,-269.928 1423.53,-269.928"/>
</g>
<!-- ndIndexMapper -->
<g id="node13" class="node"><title>ndIndexMapper</title>
<g id="a_node13_12"><a xlink:href="https://github.com/meilisearch/meilisearch//blob/master/src/index_mapper.rs#:~:text=struct%20IndexMapper" xlink:title="&lt;TABLE&gt;">
<polygon fill="lightblue" stroke="none" points="2042.5,-597 2042.5,-634 2442.5,-634 2442.5,-597 2042.5,-597"/>
<polygon fill="none" stroke="black" points="2042.5,-597 2042.5,-634 2442.5,-634 2442.5,-597 2042.5,-597"/>
<text text-anchor="start" x="2196.5" y="-612.8" font-family="Arial" font-weight="bold" font-size="14.00">IndexMapper</text>
<polygon fill="white" stroke="none" points="2042.5,-500 2042.5,-597 2442.5,-597 2442.5,-500 2042.5,-500"/>
<polygon fill="none" stroke="black" points="2042.5,-500 2042.5,-597 2442.5,-597 2442.5,-500 2042.5,-500"/>
<text text-anchor="start" x="2053.5" y="-574.8" font-family="Arial" font-size="14.00">&#45; index_map: Arc&lt;RwLock&lt;HashMap&lt;Uuid, IndexStatus&gt;&gt;&gt;</text>
<text text-anchor="start" x="2053.5" y="-559.8" font-family="Arial" font-size="14.00">&#45; index_mapping: Database&lt;Str, UuidCodec&gt;</text>
<text text-anchor="start" x="2053.5" y="-544.8" font-family="Arial" font-size="14.00">&#45; base_path: PathBuf</text>
<text text-anchor="start" x="2053.5" y="-529.8" font-family="Arial" font-size="14.00">&#45; index_size: usize</text>
<text text-anchor="start" x="2053.5" y="-514.8" font-family="Arial" font-size="14.00">+ indexer_config: Arc&lt;IndexerConfig&gt;</text>
<polygon fill="none" stroke="black" points="2041.5,-499 2041.5,-635 2443.5,-635 2443.5,-499 2041.5,-499"/>
</a>
</g>
</g>
<!-- ndIndexMapper&#45;&gt;ndIndexScheduler -->
<g id="edge10" class="edge"><title>ndIndexMapper&#45;&gt;ndIndexScheduler</title>
<path fill="none" stroke="black" d="M2137.52,-494.901C2102.64,-473.487 2062.89,-451.355 2024.5,-435 1834.52,-354.056 1609.05,-294.057 1435.8,-255.019"/>
<polygon fill="black" stroke="black" points="1435.65,-254.986 1428.92,-257.577 1423.94,-252.361 1430.67,-249.77 1435.65,-254.986"/>
</g>
<!-- ndIndexStatus -->
<g id="node14" class="node"><title>ndIndexStatus</title>
<g id="a_node14_13"><a xlink:href="https://github.com/meilisearch/meilisearch//blob/master/src/index_mapper.rs#:~:text=enum%20IndexStatus" xlink:title="&lt;TABLE&gt;">
<polygon fill="yellow" stroke="none" points="2523.5,-986.5 2523.5,-1023.5 2647.5,-1023.5 2647.5,-986.5 2523.5,-986.5"/>
<polygon fill="none" stroke="black" points="2523.5,-986.5 2523.5,-1023.5 2647.5,-1023.5 2647.5,-986.5 2523.5,-986.5"/>
<text text-anchor="start" x="2544" y="-1002.3" font-family="Arial" font-weight="bold" font-size="14.00">IndexStatus</text>
<polygon fill="white" stroke="none" points="2523.5,-934.5 2523.5,-986.5 2647.5,-986.5 2647.5,-934.5 2523.5,-934.5"/>
<polygon fill="none" stroke="black" points="2523.5,-934.5 2523.5,-986.5 2647.5,-986.5 2647.5,-934.5 2523.5,-934.5"/>
<text text-anchor="start" x="2534.5" y="-964.3" font-family="Arial" font-size="14.00">BeingDeleted</text>
<text text-anchor="start" x="2534.5" y="-949.3" font-family="Arial" font-size="14.00">Available(Index)</text>
<polygon fill="none" stroke="black" points="2522.5,-934 2522.5,-1025 2648.5,-1025 2648.5,-934 2522.5,-934"/>
</a>
</g>
</g>
</g>
</svg>
