<?xml version="1.0" encoding="UTF-8" standalone="no"?>
<!DOCTYPE svg PUBLIC "-//W3C//DTD SVG 1.1//EN"
 "http://www.w3.org/Graphics/SVG/1.1/DTD/svg11.dtd">
<!-- Generated by graphviz version 2.38.0 (20140413.2041)
 -->
<!-- Title: ml Pages: 1 -->
<svg width="1014pt" height="557pt"
 viewBox="0.00 0.00 1014.00 557.00" xmlns="http://www.w3.org/2000/svg" xmlns:xlink="http://www.w3.org/1999/xlink">
<g id="graph0" class="graph" transform="scale(1 1) rotate(0) translate(4 553)">
<title>ml</title>
<polygon fill="white" stroke="none" points="-4,4 -4,-553 1010,-553 1010,4 -4,4"/>
<!-- ndAuthController -->
<g id="node1" class="node"><title>ndAuthController</title>
<g id="a_node1_0"><a xlink:href="https://github.com/meilisearch/meilisearch//blob/master/src/lib.rs#:~:text=struct%20AuthController" xlink:title="&lt;TABLE&gt;">
<polygon fill="lightblue" stroke="none" points="298.5,-56.5 298.5,-93.5 505.5,-93.5 505.5,-56.5 298.5,-56.5"/>
<polygon fill="none" stroke="black" points="298.5,-56.5 298.5,-93.5 505.5,-93.5 505.5,-56.5 298.5,-56.5"/>
<text text-anchor="start" x="350.5" y="-72.3" font-family="Arial" font-weight="bold" font-size="14.00">AuthController</text>
<polygon fill="white" stroke="none" points="298.5,-4.5 298.5,-56.5 505.5,-56.5 505.5,-4.5 298.5,-4.5"/>
<polygon fill="none" stroke="black" points="298.5,-4.5 298.5,-56.5 505.5,-56.5 505.5,-4.5 298.5,-4.5"/>
<text text-anchor="start" x="309.5" y="-34.3" font-family="Arial" font-size="14.00">&#45; store: Arc&lt;HeedAuthStore&gt;</text>
<text text-anchor="start" x="309.5" y="-19.3" font-family="Arial" font-size="14.00">&#45; master_key: Option&lt;String&gt;</text>
<polygon fill="none" stroke="black" points="297,-4 297,-95 506,-95 506,-4 297,-4"/>
</a>
</g>
</g>
<!-- ndAuthFilter -->
<g id="node2" class="node"><title>ndAuthFilter</title>
<g id="a_node2_1"><a xlink:href="https://github.com/meilisearch/meilisearch//blob/master/src/lib.rs#:~:text=struct%20AuthFilter" xlink:title="&lt;TABLE&gt;">
<polygon fill="lightblue" stroke="none" points="9.5,-214.5 9.5,-251.5 282.5,-251.5 282.5,-214.5 9.5,-214.5"/>
<polygon fill="none" stroke="black" points="9.5,-214.5 9.5,-251.5 282.5,-251.5 282.5,-214.5 9.5,-214.5"/>
<text text-anchor="start" x="112" y="-230.3" font-family="Arial" font-weight="bold" font-size="14.00">AuthFilter</text>
<polygon fill="white" stroke="none" points="9.5,-147.5 9.5,-214.5 282.5,-214.5 282.5,-147.5 9.5,-147.5"/>
<polygon fill="none" stroke="black" points="9.5,-147.5 9.5,-214.5 282.5,-214.5 282.5,-147.5 9.5,-147.5"/>
<text text-anchor="start" x="20.5" y="-192.3" font-family="Arial" font-size="14.00">&#45; search_rules: Option&lt;SearchRules&gt;</text>
<text text-anchor="start" x="20.5" y="-177.3" font-family="Arial" font-size="14.00">&#45; key_authorized_indexes: SearchRules</text>
<text text-anchor="start" x="20.5" y="-162.3" font-family="Arial" font-size="14.00">&#45; allow_index_creation: bool</text>
<polygon fill="none" stroke="black" points="8,-146.5 8,-252.5 283,-252.5 283,-146.5 8,-146.5"/>
</a>
</g>
</g>
<!-- ndAuthFilter&#45;&gt;ndAuthController -->
<g id="edge1" class="edge"><title>ndAuthFilter&#45;&gt;ndAuthController</title>
<path fill="none" stroke="black" d="M242.648,-142.337C264.279,-129.831 287.16,-116.603 308.615,-104.199"/>
<polygon fill="black" stroke="black" points="317.395,-99.1233 310.99,-108.024 313.066,-101.626 308.738,-104.128 308.738,-104.128 308.738,-104.128 313.066,-101.626 306.485,-100.233 317.395,-99.1233 317.395,-99.1233"/>
</g>
<!-- ndSearchRules -->
<g id="node3" class="node"><title>ndSearchRules</title>
<g id="a_node3_2"><a xlink:href="https://github.com/meilisearch/meilisearch//blob/master/src/lib.rs#:~:text=enum%20SearchRules" xlink:title="&lt;TABLE&gt;">
<polygon fill="yellow" stroke="none" points="59.5,-356.5 59.5,-393.5 478.5,-393.5 478.5,-356.5 59.5,-356.5"/>
<polygon fill="none" stroke="black" points="59.5,-356.5 59.5,-393.5 478.5,-393.5 478.5,-356.5 59.5,-356.5"/>
<text text-anchor="start" x="224.5" y="-372.3" font-family="Arial" font-weight="bold" font-size="14.00">SearchRules</text>
<polygon fill="white" stroke="none" points="59.5,-304.5 59.5,-356.5 478.5,-356.5 478.5,-304.5 59.5,-304.5"/>
<polygon fill="none" stroke="black" points="59.5,-304.5 59.5,-356.5 478.5,-356.5 478.5,-304.5 59.5,-304.5"/>
<text text-anchor="start" x="70.5" y="-334.3" font-family="Arial" font-size="14.00">Set(HashSet&lt;IndexUidPattern&gt;)</text>
<text text-anchor="start" x="70.5" y="-319.3" font-family="Arial" font-size="14.00">Map(HashMap&lt;IndexUidPattern, Option&lt;IndexSearchRules&gt;&gt;)</text>
<polygon fill="none" stroke="black" points="58,-304 58,-395 479,-395 479,-304 58,-304"/>
</a>
</g>
</g>
<!-- ndSearchRules&#45;&gt;ndAuthFilter -->
<g id="edge2" class="edge"><title>ndSearchRules&#45;&gt;ndAuthFilter</title>
<path fill="none" stroke="black" d="M227.884,-299.629C218.973,-288.907 209.399,-277.386 200.042,-266.128"/>
<polygon fill="black" stroke="black" points="199.922,-265.984 193.011,-263.926 192.252,-256.755 199.164,-258.813 199.922,-265.984"/>
</g>
<!-- ndIndexSearchRules -->
<g id="node4" class="node"><title>ndIndexSearchRules</title>
<g id="a_node4_3"><a xlink:href="https://github.com/meilisearch/meilisearch//blob/master/src/lib.rs#:~:text=struct%20IndexSearchRules" xlink:title="&lt;TABLE&gt;">
<polygon fill="lightblue" stroke="none" points="24.5,-492 24.5,-529 266.5,-529 266.5,-492 24.5,-492"/>
<polygon fill="none" stroke="black" points="24.5,-492 24.5,-529 266.5,-529 266.5,-492 24.5,-492"/>
<text text-anchor="start" x="82" y="-507.8" font-family="Arial" font-weight="bold" font-size="14.00">IndexSearchRules</text>
<polygon fill="white" stroke="none" points="24.5,-455 24.5,-492 266.5,-492 266.5,-455 24.5,-455"/>
<polygon fill="none" stroke="black" points="24.5,-455 24.5,-492 266.5,-492 266.5,-455 24.5,-455"/>
<text text-anchor="start" x="35.5" y="-469.8" font-family="Arial" font-size="14.00">+ filter: Option&lt;serde_json::Value&gt;</text>
<polygon fill="none" stroke="black" points="23.5,-454 23.5,-530 267.5,-530 267.5,-454 23.5,-454"/>
</a>
</g>
</g>
<!-- ndIndexSearchRules&#45;&gt;ndAuthFilter -->
<g id="edge3" class="edge"><title>ndIndexSearchRules&#45;&gt;ndAuthFilter</title>
<path fill="none" stroke="black" d="M81.3941,-449.943C64.9846,-435.943 49.4567,-418.756 40.5,-399 22.332,-358.926 23.117,-340.421 40.5,-300 46.0089,-287.19 54.0674,-275.257 63.3104,-264.421"/>
<polygon fill="black" stroke="black" points="70.2306,-256.729 66.8879,-267.173 66.8865,-260.446 63.5425,-264.164 63.5425,-264.164 63.5425,-264.164 66.8865,-260.446 60.197,-261.154 70.2306,-256.729 70.2306,-256.729"/>
</g>
<!-- ndIndexSearchRules&#45;&gt;ndSearchRules -->
<g id="edge4" class="edge"><title>ndIndexSearchRules&#45;&gt;ndSearchRules</title>
<path fill="none" stroke="black" d="M181.407,-449.984C192.866,-436.895 205.768,-422.157 218.06,-408.116"/>
<polygon fill="black" stroke="black" points="218.124,-408.043 219.067,-400.894 226.028,-399.014 225.086,-406.164 218.124,-408.043"/>
</g>
<!-- ndHeedAuthStore -->
<g id="node5" class="node"><title>ndHeedAuthStore</title>
<g id="a_node5_4"><a xlink:href="https://github.com/meilisearch/meilisearch//blob/master/src/store.rs#:~:text=struct%20HeedAuthStore" xlink:title="&lt;TABLE&gt;">
<polygon fill="lightblue" stroke="none" points="318.5,-221.5 318.5,-258.5 997.5,-258.5 997.5,-221.5 318.5,-221.5"/>
<polygon fill="none" stroke="black" points="318.5,-221.5 318.5,-258.5 997.5,-258.5 997.5,-221.5 318.5,-221.5"/>
<text text-anchor="start" x="605" y="-237.3" font-family="Arial" font-weight="bold" font-size="14.00">HeedAuthStore</text>
<polygon fill="white" stroke="none" points="318.5,-139.5 318.5,-221.5 997.5,-221.5 997.5,-139.5 318.5,-139.5"/>
<polygon fill="none" stroke="black" points="318.5,-139.5 318.5,-221.5 997.5,-221.5 997.5,-139.5 318.5,-139.5"/>
<text text-anchor="start" x="329.5" y="-199.3" font-family="Arial" font-size="14.00">&#45; env: Arc&lt;Env&gt;</text>
<text text-anchor="start" x="329.5" y="-184.3" font-family="Arial" font-size="14.00">&#45; keys: Database&lt;ByteSlice, SerdeJson&lt;Key&gt;&gt;</text>
<text text-anchor="start" x="329.5" y="-169.3" font-family="Arial" font-size="14.00">&#45; action_keyid_index_expiration: Database&lt;KeyIdActionCodec, SerdeJson&lt;Option&lt;OffsetDateTime&gt;&gt;&gt;</text>
<text text-anchor="start" x="329.5" y="-154.3" font-family="Arial" font-size="14.00">&#45; should_close_on_drop: bool</text>
<polygon fill="none" stroke="black" points="317,-139 317,-260 998,-260 998,-139 317,-139"/>
</a>
</g>
</g>
<!-- ndHeedAuthStore&#45;&gt;ndAuthController -->
<g id="edge5" class="edge"><title>ndHeedAuthStore&#45;&gt;ndAuthController</title>
<path fill="none" stroke="black" d="M547.447,-134.876C530.439,-125.043 512.999,-114.96 496.361,-105.342"/>
<polygon fill="black" stroke="black" points="495.945,-105.101 488.749,-105.561 485.557,-99.0952 492.753,-98.6353 495.945,-105.101"/>
</g>
<!-- ndAuthControllerError -->
<g id="node6" class="node"><title>ndAuthControllerError</title>
<g id="a_node6_5"><a xlink:href="https://github.com/meilisearch/meilisearch//blob/master/src/error.rs#:~:text=enum%20AuthControllerError" xlink:title="&lt;TABLE&gt;">
<polygon fill="yellow" stroke="none" points="302.5,-507 302.5,-544 628.5,-544 628.5,-507 302.5,-507"/>
<polygon fill="none" stroke="black" points="302.5,-507 302.5,-544 628.5,-544 628.5,-507 302.5,-507"/>
<text text-anchor="start" x="396" y="-522.8" font-family="Arial" font-weight="bold" font-size="14.00">AuthControllerError</text>
<polygon fill="white" stroke="none" points="302.5,-440 302.5,-507 628.5,-507 628.5,-440 302.5,-440"/>
<polygon fill="none" stroke="black" points="302.5,-440 302.5,-507 628.5,-507 628.5,-440 302.5,-440"/>
<text text-anchor="start" x="313.5" y="-484.8" font-family="Arial" font-size="14.00">ApiKeyNotFound(String)</text>
<text text-anchor="start" x="313.5" y="-469.8" font-family="Arial" font-size="14.00">ApiKeyAlreadyExists(String)</text>
<text text-anchor="start" x="313.5" y="-454.8" font-family="Arial" font-size="14.00">Internal(Box&lt;dyn Error + Send + Sync + &#39;static&gt;)</text>
<polygon fill="none" stroke="black" points="301.5,-439 301.5,-545 629.5,-545 629.5,-439 301.5,-439"/>
</a>
</g>
</g>
</g>
</svg>
