<?xml version="1.0" encoding="UTF-8" standalone="no"?>
<!DOCTYPE svg PUBLIC "-//W3C//DTD SVG 1.1//EN"
 "http://www.w3.org/Graphics/SVG/1.1/DTD/svg11.dtd">
<!-- Generated by graphviz version 2.38.0 (20140413.2041)
 -->
<!-- Title: ml Pages: 1 -->
<svg width="4064pt" height="470pt"
 viewBox="0.00 0.00 4063.50 470.00" xmlns="http://www.w3.org/2000/svg" xmlns:xlink="http://www.w3.org/1999/xlink">
<g id="graph0" class="graph" transform="scale(1 1) rotate(0) translate(4 466)">
<title>ml</title>
<polygon fill="white" stroke="none" points="-4,4 -4,-466 4059.5,-466 4059.5,4 -4,4"/>
<!-- ndDeserrError -->
<g id="node1" class="node"><title>ndDeserrError</title>
<g id="a_node1_0"><a xlink:href="https://github.com/meilisearch/meilisearch//blob/master/src/deserr/mod.rs#:~:text=struct%20DeserrError" xlink:title="&lt;TABLE&gt;">
<polygon fill="lightblue" stroke="none" points="226,-336.5 226,-373.5 333,-373.5 333,-336.5 226,-336.5"/>
<polygon fill="none" stroke="black" points="226,-336.5 226,-373.5 333,-373.5 333,-336.5 226,-336.5"/>
<text text-anchor="start" x="237" y="-352.3" font-family="Arial" font-weight="bold" font-size="14.00">DeserrError</text>
<polygon fill="none" stroke="black" points="224.5,-336 224.5,-375 333.5,-375 333.5,-336 224.5,-336"/>
</a>
</g>
</g>
<!-- ndParam -->
<g id="node2" class="node"><title>ndParam</title>
<g id="a_node2_1"><a xlink:href="https://github.com/meilisearch/meilisearch//blob/master/src/deserr/query_params.rs#:~:text=struct%20Param" xlink:title="&lt;TABLE&gt;">
<polygon fill="lightblue" stroke="none" points="430,-419.5 430,-456.5 498,-456.5 498,-419.5 430,-419.5"/>
<polygon fill="none" stroke="black" points="430,-419.5 430,-456.5 498,-456.5 498,-419.5 430,-419.5"/>
<text text-anchor="start" x="441" y="-435.3" font-family="Arial" font-weight="bold" font-size="14.00">Param</text>
<polygon fill="none" stroke="black" points="429,-419 429,-458 499,-458 499,-419 429,-419"/>
</a>
</g>
</g>
<!-- ndFromQueryParameter -->
<g id="node3" class="node"><title>ndFromQueryParameter</title>
<g id="a_node3_2"><a xlink:href="https://github.com/meilisearch/meilisearch//blob/master/src/deserr/query_params.rs#:~:text=trait%20FromQueryParameter" xlink:title="&lt;TABLE&gt;">
<polygon fill="lightgreen" stroke="none" points="600,-419.5 600,-456.5 774,-456.5 774,-419.5 600,-419.5"/>
<polygon fill="none" stroke="black" points="600,-419.5 600,-456.5 774,-456.5 774,-419.5 600,-419.5"/>
<text text-anchor="start" x="611" y="-435.3" font-family="Arial" font-weight="bold" font-size="14.00">FromQueryParameter</text>
<polygon fill="none" stroke="black" points="599,-419 599,-458 775,-458 775,-419 599,-419"/>
</a>
</g>
</g>
<!-- ndOptionStarOr -->
<g id="node17" class="node"><title>ndOptionStarOr</title>
<g id="a_node17_3"><a xlink:href="https://github.com/meilisearch/meilisearch//blob/master/src/star_or.rs#:~:text=enum%20OptionStarOr" xlink:title="&lt;TABLE&gt;">
<polygon fill="yellow" stroke="none" points="630,-336.5 630,-373.5 745,-373.5 745,-336.5 630,-336.5"/>
<polygon fill="none" stroke="black" points="630,-336.5 630,-373.5 745,-373.5 745,-336.5 630,-336.5"/>
<text text-anchor="start" x="641" y="-352.3" font-family="Arial" font-weight="bold" font-size="14.00">OptionStarOr</text>
<polygon fill="none" stroke="black" points="628.5,-336 628.5,-375 745.5,-375 745.5,-336 628.5,-336"/>
</a>
</g>
</g>
<!-- ndFromQueryParameter&#45;&gt;ndOptionStarOr -->
<g id="edge1" class="edge"><title>ndFromQueryParameter&#45;&gt;ndOptionStarOr</title>
<path fill="none" stroke="black" stroke-dasharray="5,2" d="M687,-414.937C687,-407.016 687,-397.949 687,-389.357"/>
<polygon fill="none" stroke="black" points="690.5,-389.223 687,-379.223 683.5,-389.223 690.5,-389.223"/>
</g>
<!-- ndResponseError -->
<g id="node4" class="node"><title>ndResponseError</title>
<g id="a_node4_4"><a xlink:href="https://github.com/meilisearch/meilisearch//blob/master/src/error.rs#:~:text=struct%20ResponseError" xlink:title="&lt;TABLE&gt;">
<polygon fill="lightblue" stroke="none" points="781,-336.5 781,-373.5 910,-373.5 910,-336.5 781,-336.5"/>
<polygon fill="none" stroke="black" points="781,-336.5 781,-373.5 910,-373.5 910,-336.5 781,-336.5"/>
<text text-anchor="start" x="792" y="-352.3" font-family="Arial" font-weight="bold" font-size="14.00">ResponseError</text>
<polygon fill="none" stroke="black" points="779.5,-336 779.5,-375 910.5,-375 910.5,-336 779.5,-336"/>
</a>
</g>
</g>
<!-- ndTask -->
<g id="node25" class="node"><title>ndTask</title>
<g id="a_node25_5"><a xlink:href="https://github.com/meilisearch/meilisearch//blob/master/src/tasks.rs#:~:text=struct%20Task" xlink:title="&lt;TABLE&gt;">
<polygon fill="lightblue" stroke="none" points="1041,-253.5 1041,-290.5 1097,-290.5 1097,-253.5 1041,-253.5"/>
<polygon fill="none" stroke="black" points="1041,-253.5 1041,-290.5 1097,-290.5 1097,-253.5 1041,-253.5"/>
<text text-anchor="start" x="1052" y="-269.3" font-family="Arial" font-weight="bold" font-size="14.00">Task</text>
<polygon fill="none" stroke="black" points="1040,-253 1040,-292 1098,-292 1098,-253 1040,-253"/>
</a>
</g>
</g>
<!-- ndResponseError&#45;&gt;ndTask -->
<g id="edge2" class="edge"><title>ndResponseError&#45;&gt;ndTask</title>
<path fill="none" stroke="black" d="M907.396,-331.937C943.022,-319.054 987.039,-303.138 1020.13,-291.17"/>
<polygon fill="black" stroke="black" points="1020.51,-291.034 1024.79,-285.232 1031.8,-286.953 1027.51,-292.755 1020.51,-291.034"/>
</g>
<!-- ndErrorCode -->
<g id="node5" class="node"><title>ndErrorCode</title>
<g id="a_node5_6"><a xlink:href="https://github.com/meilisearch/meilisearch//blob/master/src/error.rs#:~:text=trait%20ErrorCode" xlink:title="&lt;TABLE&gt;">
<polygon fill="lightgreen" stroke="none" points="264,-419.5 264,-456.5 360,-456.5 360,-419.5 264,-419.5"/>
<polygon fill="none" stroke="black" points="264,-419.5 264,-456.5 360,-456.5 360,-419.5 264,-419.5"/>
<text text-anchor="start" x="275" y="-435.3" font-family="Arial" font-weight="bold" font-size="14.00">ErrorCode</text>
<polygon fill="none" stroke="black" points="263,-419 263,-458 361,-458 361,-419 263,-419"/>
</a>
</g>
</g>
<!-- ndErrorCode&#45;&gt;ndDeserrError -->
<g id="edge3" class="edge"><title>ndErrorCode&#45;&gt;ndDeserrError</title>
<path fill="none" stroke="black" stroke-dasharray="5,2" d="M302.808,-414.937C299.474,-406.755 295.642,-397.35 292.041,-388.509"/>
<polygon fill="none" stroke="black" points="295.272,-387.163 288.257,-379.223 288.789,-389.804 295.272,-387.163"/>
</g>
<!-- ndDocumentFormatError -->
<g id="node12" class="node"><title>ndDocumentFormatError</title>
<g id="a_node12_7"><a xlink:href="https://github.com/meilisearch/meilisearch//blob/master/src/document_formats.rs#:~:text=enum%20DocumentFormatError" xlink:title="&lt;TABLE&gt;">
<polygon fill="yellow" stroke="none" points="9,-336.5 9,-373.5 189,-373.5 189,-336.5 9,-336.5"/>
<polygon fill="none" stroke="black" points="9,-336.5 9,-373.5 189,-373.5 189,-336.5 9,-336.5"/>
<text text-anchor="start" x="20" y="-352.3" font-family="Arial" font-weight="bold" font-size="14.00">DocumentFormatError</text>
<polygon fill="none" stroke="black" points="8,-336 8,-375 190,-375 190,-336 8,-336"/>
</a>
</g>
</g>
<!-- ndErrorCode&#45;&gt;ndDocumentFormatError -->
<g id="edge4" class="edge"><title>ndErrorCode&#45;&gt;ndDocumentFormatError</title>
<path fill="none" stroke="black" stroke-dasharray="5,2" d="M254.92,-415.793C228.127,-405.605 195.973,-393.377 167.842,-382.679"/>
<polygon fill="none" stroke="black" points="169.061,-379.398 158.47,-379.115 166.572,-385.941 169.061,-379.398"/>
</g>
<!-- ndIndexUidFormatError -->
<g id="node15" class="node"><title>ndIndexUidFormatError</title>
<g id="a_node15_8"><a xlink:href="https://github.com/meilisearch/meilisearch//blob/master/src/index_uid.rs#:~:text=struct%20IndexUidFormatError" xlink:title="&lt;TABLE&gt;">
<polygon fill="lightblue" stroke="none" points="369,-336.5 369,-373.5 539,-373.5 539,-336.5 369,-336.5"/>
<polygon fill="none" stroke="black" points="369,-336.5 369,-373.5 539,-373.5 539,-336.5 369,-336.5"/>
<text text-anchor="start" x="380" y="-352.3" font-family="Arial" font-weight="bold" font-size="14.00">IndexUidFormatError</text>
<polygon fill="none" stroke="black" points="368,-336 368,-375 540,-375 540,-336 368,-336"/>
</a>
</g>
</g>
<!-- ndErrorCode&#45;&gt;ndIndexUidFormatError -->
<g id="edge5" class="edge"><title>ndErrorCode&#45;&gt;ndIndexUidFormatError</title>
<path fill="none" stroke="black" stroke-dasharray="5,2" d="M351.555,-414.937C368.187,-405.45 387.704,-394.317 405.216,-384.328"/>
<polygon fill="none" stroke="black" points="407.213,-387.218 414.165,-379.223 403.744,-381.138 407.213,-387.218"/>
</g>
<!-- ndIndexUidPatternFormatError -->
<g id="node24" class="node"><title>ndIndexUidPatternFormatError</title>
<g id="a_node24_9"><a xlink:href="https://github.com/meilisearch/meilisearch//blob/master/src/index_uid_pattern.rs#:~:text=struct%20IndexUidPatternFormatError" xlink:title="&lt;TABLE&gt;">
<polygon fill="lightblue" stroke="none" points="515,-253.5 515,-290.5 735,-290.5 735,-253.5 515,-253.5"/>
<polygon fill="none" stroke="black" points="515,-253.5 515,-290.5 735,-290.5 735,-253.5 515,-253.5"/>
<text text-anchor="start" x="526" y="-269.3" font-family="Arial" font-weight="bold" font-size="14.00">IndexUidPatternFormatError</text>
<polygon fill="none" stroke="black" points="514,-253 514,-292 736,-292 736,-253 514,-253"/>
</a>
</g>
</g>
<!-- ndErrorCode&#45;&gt;ndIndexUidPatternFormatError -->
<g id="edge6" class="edge"><title>ndErrorCode&#45;&gt;ndIndexUidPatternFormatError</title>
<path fill="none" stroke="black" stroke-dasharray="5,2" d="M369.195,-424.396C440.364,-408.012 553.103,-381.761 557,-379 582.787,-360.733 601.179,-329.307 612.28,-305.492"/>
<polygon fill="none" stroke="black" points="615.576,-306.695 616.453,-296.136 609.183,-303.843 615.576,-306.695"/>
</g>
<!-- ndErrorType -->
<g id="node6" class="node"><title>ndErrorType</title>
<g id="a_node6_10"><a xlink:href="https://github.com/meilisearch/meilisearch//blob/master/src/error.rs#:~:text=enum%20ErrorType" xlink:title="&lt;TABLE&gt;">
<polygon fill="yellow" stroke="none" points="1190,-419.5 1190,-456.5 1284,-456.5 1284,-419.5 1190,-419.5"/>
<polygon fill="none" stroke="black" points="1190,-419.5 1190,-456.5 1284,-456.5 1284,-419.5 1190,-419.5"/>
<text text-anchor="start" x="1201" y="-435.3" font-family="Arial" font-weight="bold" font-size="14.00">ErrorType</text>
<polygon fill="none" stroke="black" points="1189,-419 1189,-458 1285,-458 1285,-419 1189,-419"/>
</a>
</g>
</g>
<!-- ndParseOffsetDateTimeError -->
<g id="node7" class="node"><title>ndParseOffsetDateTimeError</title>
<g id="a_node7_11"><a xlink:href="https://github.com/meilisearch/meilisearch//blob/master/src/error.rs#:~:text=struct%20ParseOffsetDateTimeError" xlink:title="&lt;TABLE&gt;">
<polygon fill="lightblue" stroke="none" points="1321,-419.5 1321,-456.5 1528,-456.5 1528,-419.5 1321,-419.5"/>
<polygon fill="none" stroke="black" points="1321,-419.5 1321,-456.5 1528,-456.5 1528,-419.5 1321,-419.5"/>
<text text-anchor="start" x="1332" y="-435.3" font-family="Arial" font-weight="bold" font-size="14.00">ParseOffsetDateTimeError</text>
<polygon fill="none" stroke="black" points="1319.5,-419 1319.5,-458 1528.5,-458 1528.5,-419 1319.5,-419"/>
</a>
</g>
</g>
<!-- ndInvalidTaskDateError -->
<g id="node8" class="node"><title>ndInvalidTaskDateError</title>
<g id="a_node8_12"><a xlink:href="https://github.com/meilisearch/meilisearch//blob/master/src/error.rs#:~:text=struct%20InvalidTaskDateError" xlink:title="&lt;TABLE&gt;">
<polygon fill="lightblue" stroke="none" points="1564,-419.5 1564,-456.5 1734,-456.5 1734,-419.5 1564,-419.5"/>
<polygon fill="none" stroke="black" points="1564,-419.5 1564,-456.5 1734,-456.5 1734,-419.5 1564,-419.5"/>
<text text-anchor="start" x="1575" y="-435.3" font-family="Arial" font-weight="bold" font-size="14.00">InvalidTaskDateError</text>
<polygon fill="none" stroke="black" points="1563,-419 1563,-458 1735,-458 1735,-419 1563,-419"/>
</a>
</g>
</g>
<!-- ndDeserrParseBoolError -->
<g id="node9" class="node"><title>ndDeserrParseBoolError</title>
<g id="a_node9_13"><a xlink:href="https://github.com/meilisearch/meilisearch//blob/master/src/error.rs#:~:text=struct%20DeserrParseBoolError" xlink:title="&lt;TABLE&gt;">
<polygon fill="lightblue" stroke="none" points="1771,-419.5 1771,-456.5 1950,-456.5 1950,-419.5 1771,-419.5"/>
<polygon fill="none" stroke="black" points="1771,-419.5 1771,-456.5 1950,-456.5 1950,-419.5 1771,-419.5"/>
<text text-anchor="start" x="1782" y="-435.3" font-family="Arial" font-weight="bold" font-size="14.00">DeserrParseBoolError</text>
<polygon fill="none" stroke="black" points="1769.5,-419 1769.5,-458 1950.5,-458 1950.5,-419 1769.5,-419"/>
</a>
</g>
</g>
<!-- ndDeserrParseIntError -->
<g id="node10" class="node"><title>ndDeserrParseIntError</title>
<g id="a_node10_14"><a xlink:href="https://github.com/meilisearch/meilisearch//blob/master/src/error.rs#:~:text=struct%20DeserrParseIntError" xlink:title="&lt;TABLE&gt;">
<polygon fill="lightblue" stroke="none" points="1986,-419.5 1986,-456.5 2150,-456.5 2150,-419.5 1986,-419.5"/>
<polygon fill="none" stroke="black" points="1986,-419.5 1986,-456.5 2150,-456.5 2150,-419.5 1986,-419.5"/>
<text text-anchor="start" x="1997" y="-435.3" font-family="Arial" font-weight="bold" font-size="14.00">DeserrParseIntError</text>
<polygon fill="none" stroke="black" points="1985,-419 1985,-458 2151,-458 2151,-419 1985,-419"/>
</a>
</g>
</g>
<!-- ndPayloadType -->
<g id="node11" class="node"><title>ndPayloadType</title>
<g id="a_node11_15"><a xlink:href="https://github.com/meilisearch/meilisearch//blob/master/src/document_formats.rs#:~:text=enum%20PayloadType" xlink:title="&lt;TABLE&gt;">
<polygon fill="yellow" stroke="none" points="43,-419.5 43,-456.5 156,-456.5 156,-419.5 43,-419.5"/>
<polygon fill="none" stroke="black" points="43,-419.5 43,-456.5 156,-456.5 156,-419.5 43,-419.5"/>
<text text-anchor="start" x="54" y="-435.3" font-family="Arial" font-weight="bold" font-size="14.00">PayloadType</text>
<polygon fill="none" stroke="black" points="41.5,-419 41.5,-458 156.5,-458 156.5,-419 41.5,-419"/>
</a>
</g>
</g>
<!-- ndPayloadType&#45;&gt;ndDocumentFormatError -->
<g id="edge7" class="edge"><title>ndPayloadType&#45;&gt;ndDocumentFormatError</title>
<path fill="none" stroke="black" d="M99,-414.937C99,-407.626 99,-399.337 99,-391.348"/>
<polygon fill="black" stroke="black" points="99.0001,-391.223 95,-385.223 99,-379.223 103,-385.223 99.0001,-391.223"/>
</g>
<!-- ndVersionFileError -->
<g id="node13" class="node"><title>ndVersionFileError</title>
<g id="a_node13_16"><a xlink:href="https://github.com/meilisearch/meilisearch//blob/master/src/versioning.rs#:~:text=enum%20VersionFileError" xlink:title="&lt;TABLE&gt;">
<polygon fill="yellow" stroke="none" points="2187,-419.5 2187,-456.5 2324,-456.5 2324,-419.5 2187,-419.5"/>
<polygon fill="none" stroke="black" points="2187,-419.5 2187,-456.5 2324,-456.5 2324,-419.5 2187,-419.5"/>
<text text-anchor="start" x="2198" y="-435.3" font-family="Arial" font-weight="bold" font-size="14.00">VersionFileError</text>
<polygon fill="none" stroke="black" points="2185.5,-419 2185.5,-458 2324.5,-458 2324.5,-419 2185.5,-419"/>
</a>
</g>
</g>
<!-- ndIndexUid -->
<g id="node14" class="node"><title>ndIndexUid</title>
<g id="a_node14_17"><a xlink:href="https://github.com/meilisearch/meilisearch//blob/master/src/index_uid.rs#:~:text=struct%20IndexUid" xlink:title="&lt;TABLE&gt;">
<polygon fill="lightblue" stroke="none" points="396,-253.5 396,-290.5 479,-290.5 479,-253.5 396,-253.5"/>
<polygon fill="none" stroke="black" points="396,-253.5 396,-290.5 479,-290.5 479,-253.5 396,-253.5"/>
<text text-anchor="start" x="407" y="-269.3" font-family="Arial" font-weight="bold" font-size="14.00">IndexUid</text>
<polygon fill="none" stroke="black" points="394.5,-253 394.5,-292 479.5,-292 479.5,-253 394.5,-253"/>
</a>
</g>
</g>
<!-- ndIndexUidPattern -->
<g id="node23" class="node"><title>ndIndexUidPattern</title>
<g id="a_node23_18"><a xlink:href="https://github.com/meilisearch/meilisearch//blob/master/src/index_uid_pattern.rs#:~:text=struct%20IndexUidPattern" xlink:title="&lt;TABLE&gt;">
<polygon fill="lightblue" stroke="none" points="464,-170.5 464,-207.5 598,-207.5 598,-170.5 464,-170.5"/>
<polygon fill="none" stroke="black" points="464,-170.5 464,-207.5 598,-207.5 598,-170.5 464,-170.5"/>
<text text-anchor="start" x="475" y="-186.3" font-family="Arial" font-weight="bold" font-size="14.00">IndexUidPattern</text>
<polygon fill="none" stroke="black" points="463,-170 463,-209 599,-209 599,-170 463,-170"/>
</a>
</g>
</g>
<!-- ndIndexUid&#45;&gt;ndIndexUidPattern -->
<g id="edge8" class="edge"><title>ndIndexUid&#45;&gt;ndIndexUidPattern</title>
<path fill="none" stroke="black" stroke-dasharray="5,2" d="M463.184,-248.937C473.588,-239.972 485.697,-229.537 496.78,-219.987"/>
<polygon fill="black" stroke="black" points="504.63,-213.223 499.992,-223.16 500.842,-216.487 497.055,-219.751 497.055,-219.751 497.055,-219.751 500.842,-216.487 494.117,-216.342 504.63,-213.223 504.63,-213.223"/>
</g>
<!-- ndIndexUidFormatError&#45;&gt;ndIndexUid -->
<g id="edge9" class="edge"><title>ndIndexUidFormatError&#45;&gt;ndIndexUid</title>
<path fill="none" stroke="black" d="M449.265,-331.937C447.584,-323.929 445.657,-314.749 443.837,-306.074"/>
<polygon fill="black" stroke="black" points="441.769,-296.223 448.227,-305.085 442.796,-301.116 443.823,-306.01 443.823,-306.01 443.823,-306.01 442.796,-301.116 439.419,-306.934 441.769,-296.223 441.769,-296.223"/>
</g>
<!-- ndStarOr -->
<g id="node16" class="node"><title>ndStarOr</title>
<g id="a_node16_19"><a xlink:href="https://github.com/meilisearch/meilisearch//blob/master/src/star_or.rs#:~:text=enum%20StarOr" xlink:title="&lt;TABLE&gt;">
<polygon fill="yellow" stroke="none" points="2360,-419.5 2360,-456.5 2428,-456.5 2428,-419.5 2360,-419.5"/>
<polygon fill="none" stroke="black" points="2360,-419.5 2360,-456.5 2428,-456.5 2428,-419.5 2360,-419.5"/>
<text text-anchor="start" x="2371" y="-435.3" font-family="Arial" font-weight="bold" font-size="14.00">StarOr</text>
<polygon fill="none" stroke="black" points="2359,-419 2359,-458 2429,-458 2429,-419 2359,-419"/>
</a>
</g>
</g>
<!-- ndOptionStarOrList -->
<g id="node18" class="node"><title>ndOptionStarOrList</title>
<g id="a_node18_20"><a xlink:href="https://github.com/meilisearch/meilisearch//blob/master/src/star_or.rs#:~:text=enum%20OptionStarOrList" xlink:title="&lt;TABLE&gt;">
<polygon fill="yellow" stroke="none" points="2464,-419.5 2464,-456.5 2604,-456.5 2604,-419.5 2464,-419.5"/>
<polygon fill="none" stroke="black" points="2464,-419.5 2464,-456.5 2604,-456.5 2604,-419.5 2464,-419.5"/>
<text text-anchor="start" x="2475" y="-435.3" font-family="Arial" font-weight="bold" font-size="14.00">OptionStarOrList</text>
<polygon fill="none" stroke="black" points="2463,-419 2463,-458 2605,-458 2605,-419 2463,-419"/>
</a>
</g>
</g>
<!-- ndCreateApiKey -->
<g id="node19" class="node"><title>ndCreateApiKey</title>
<g id="a_node19_21"><a xlink:href="https://github.com/meilisearch/meilisearch//blob/master/src/keys.rs#:~:text=struct%20CreateApiKey" xlink:title="&lt;TABLE&gt;">
<polygon fill="lightblue" stroke="none" points="543,-4.5 543,-41.5 661,-41.5 661,-4.5 543,-4.5"/>
<polygon fill="none" stroke="black" points="543,-4.5 543,-41.5 661,-41.5 661,-4.5 543,-4.5"/>
<text text-anchor="start" x="554" y="-20.3" font-family="Arial" font-weight="bold" font-size="14.00">CreateApiKey</text>
<polygon fill="none" stroke="black" points="542,-4 542,-43 662,-43 662,-4 542,-4"/>
</a>
</g>
</g>
<!-- ndPatchApiKey -->
<g id="node20" class="node"><title>ndPatchApiKey</title>
<g id="a_node20_22"><a xlink:href="https://github.com/meilisearch/meilisearch//blob/master/src/keys.rs#:~:text=struct%20PatchApiKey" xlink:title="&lt;TABLE&gt;">
<polygon fill="lightblue" stroke="none" points="2640,-419.5 2640,-456.5 2752,-456.5 2752,-419.5 2640,-419.5"/>
<polygon fill="none" stroke="black" points="2640,-419.5 2640,-456.5 2752,-456.5 2752,-419.5 2640,-419.5"/>
<text text-anchor="start" x="2651" y="-435.3" font-family="Arial" font-weight="bold" font-size="14.00">PatchApiKey</text>
<polygon fill="none" stroke="black" points="2639,-419 2639,-458 2753,-458 2753,-419 2639,-419"/>
</a>
</g>
</g>
<!-- ndKey -->
<g id="node21" class="node"><title>ndKey</title>
<g id="a_node21_23"><a xlink:href="https://github.com/meilisearch/meilisearch//blob/master/src/keys.rs#:~:text=struct%20Key" xlink:title="&lt;TABLE&gt;">
<polygon fill="lightblue" stroke="none" points="577,-87.5 577,-124.5 627,-124.5 627,-87.5 577,-87.5"/>
<polygon fill="none" stroke="black" points="577,-87.5 577,-124.5 627,-124.5 627,-87.5 577,-87.5"/>
<text text-anchor="start" x="588" y="-103.3" font-family="Arial" font-weight="bold" font-size="14.00">Key</text>
<polygon fill="none" stroke="black" points="576,-87 576,-126 628,-126 628,-87 576,-87"/>
</a>
</g>
</g>
<!-- ndKey&#45;&gt;ndCreateApiKey -->
<g id="edge10" class="edge"><title>ndKey&#45;&gt;ndCreateApiKey</title>
<path fill="none" stroke="black" d="M602,-82.937C602,-75.0164 602,-65.9488 602,-57.3574"/>
<polygon fill="black" stroke="black" points="602,-47.2229 606.5,-57.2229 602,-52.2229 602,-57.2229 602,-57.2229 602,-57.2229 602,-52.2229 597.5,-57.223 602,-47.2229 602,-47.2229"/>
</g>
<!-- ndAction -->
<g id="node22" class="node"><title>ndAction</title>
<g id="a_node22_24"><a xlink:href="https://github.com/meilisearch/meilisearch//blob/master/src/keys.rs#:~:text=enum%20Action" xlink:title="&lt;TABLE&gt;">
<polygon fill="yellow" stroke="none" points="635,-170.5 635,-207.5 702,-207.5 702,-170.5 635,-170.5"/>
<polygon fill="none" stroke="black" points="635,-170.5 635,-207.5 702,-207.5 702,-170.5 635,-170.5"/>
<text text-anchor="start" x="646" y="-186.3" font-family="Arial" font-weight="bold" font-size="14.00">Action</text>
<polygon fill="none" stroke="black" points="633.5,-170 633.5,-209 702.5,-209 702.5,-170 633.5,-170"/>
</a>
</g>
</g>
<!-- ndAction&#45;&gt;ndCreateApiKey -->
<g id="edge11" class="edge"><title>ndAction&#45;&gt;ndCreateApiKey</title>
<path fill="none" stroke="black" d="M665.829,-165.823C663.096,-143.854 657.192,-109.993 645,-83 640.95,-74.0345 635.373,-65.0983 629.577,-57.0069"/>
<polygon fill="black" stroke="black" points="629.452,-56.8426 622.643,-54.4692 622.215,-47.2708 629.024,-49.6442 629.452,-56.8426"/>
</g>
<!-- ndAction&#45;&gt;ndKey -->
<g id="edge12" class="edge"><title>ndAction&#45;&gt;ndKey</title>
<path fill="none" stroke="black" d="M649.615,-165.937C643.02,-157.842 635.448,-148.55 628.312,-139.792"/>
<polygon fill="black" stroke="black" points="628.095,-139.526 621.204,-137.401 620.515,-130.223 627.406,-132.348 628.095,-139.526"/>
</g>
<!-- ndIndexUidPattern&#45;&gt;ndCreateApiKey -->
<g id="edge13" class="edge"><title>ndIndexUidPattern&#45;&gt;ndCreateApiKey</title>
<path fill="none" stroke="black" d="M534.483,-165.827C538.433,-143.862 546.067,-110.004 559,-83 563.288,-74.0475 569.006,-65.0671 574.87,-56.9232"/>
<polygon fill="black" stroke="black" points="575.043,-56.6938 575.469,-49.4953 582.278,-47.1199 581.852,-54.3185 575.043,-56.6938"/>
</g>
<!-- ndIndexUidPattern&#45;&gt;ndKey -->
<g id="edge14" class="edge"><title>ndIndexUidPattern&#45;&gt;ndKey</title>
<path fill="none" stroke="black" d="M550.777,-165.937C557.949,-157.755 566.193,-148.35 573.942,-139.509"/>
<polygon fill="black" stroke="black" points="574.172,-139.247 575.119,-132.098 582.082,-130.223 581.135,-137.372 574.172,-139.247"/>
</g>
<!-- ndIndexUidPatternFormatError&#45;&gt;ndIndexUidPattern -->
<g id="edge15" class="edge"><title>ndIndexUidPatternFormatError&#45;&gt;ndIndexUidPattern</title>
<path fill="none" stroke="black" d="M598.816,-248.937C588.412,-239.972 576.303,-229.537 565.22,-219.987"/>
<polygon fill="black" stroke="black" points="557.37,-213.223 567.883,-216.342 561.158,-216.487 564.945,-219.751 564.945,-219.751 564.945,-219.751 561.158,-216.487 562.008,-223.16 557.37,-213.223 557.37,-213.223"/>
</g>
<!-- ndKindWithContent -->
<g id="node26" class="node"><title>ndKindWithContent</title>
<g id="a_node26_25"><a xlink:href="https://github.com/meilisearch/meilisearch//blob/master/src/tasks.rs#:~:text=enum%20KindWithContent" xlink:title="&lt;TABLE&gt;">
<polygon fill="yellow" stroke="none" points="946,-336.5 946,-373.5 1086,-373.5 1086,-336.5 946,-336.5"/>
<polygon fill="none" stroke="black" points="946,-336.5 946,-373.5 1086,-373.5 1086,-336.5 946,-336.5"/>
<text text-anchor="start" x="957" y="-352.3" font-family="Arial" font-weight="bold" font-size="14.00">KindWithContent</text>
<polygon fill="none" stroke="black" points="945,-336 945,-375 1087,-375 1087,-336 945,-336"/>
</a>
</g>
</g>
<!-- ndKindWithContent&#45;&gt;ndTask -->
<g id="edge16" class="edge"><title>ndKindWithContent&#45;&gt;ndTask</title>
<path fill="none" stroke="black" d="M1030.76,-331.937C1035.95,-324.016 1041.88,-314.949 1047.5,-306.357"/>
<polygon fill="black" stroke="black" points="1047.56,-306.264 1047.5,-299.054 1054.13,-296.223 1054.19,-303.434 1047.56,-306.264"/>
</g>
<!-- ndIndexSwap -->
<g id="node27" class="node"><title>ndIndexSwap</title>
<g id="a_node27_26"><a xlink:href="https://github.com/meilisearch/meilisearch//blob/master/src/tasks.rs#:~:text=struct%20IndexSwap" xlink:title="&lt;TABLE&gt;">
<polygon fill="lightblue" stroke="none" points="2789,-419.5 2789,-456.5 2888,-456.5 2888,-419.5 2789,-419.5"/>
<polygon fill="none" stroke="black" points="2789,-419.5 2789,-456.5 2888,-456.5 2888,-419.5 2789,-419.5"/>
<text text-anchor="start" x="2800" y="-435.3" font-family="Arial" font-weight="bold" font-size="14.00">IndexSwap</text>
<polygon fill="none" stroke="black" points="2787.5,-419 2787.5,-458 2888.5,-458 2888.5,-419 2787.5,-419"/>
</a>
</g>
</g>
<!-- ndStatus -->
<g id="node28" class="node"><title>ndStatus</title>
<g id="a_node28_27"><a xlink:href="https://github.com/meilisearch/meilisearch//blob/master/src/tasks.rs#:~:text=enum%20Status" xlink:title="&lt;TABLE&gt;">
<polygon fill="yellow" stroke="none" points="1161,-336.5 1161,-373.5 1228,-373.5 1228,-336.5 1161,-336.5"/>
<polygon fill="none" stroke="black" points="1161,-336.5 1161,-373.5 1228,-373.5 1228,-336.5 1161,-336.5"/>
<text text-anchor="start" x="1172" y="-352.3" font-family="Arial" font-weight="bold" font-size="14.00">Status</text>
<polygon fill="none" stroke="black" points="1159.5,-336 1159.5,-375 1228.5,-375 1228.5,-336 1159.5,-336"/>
</a>
</g>
</g>
<!-- ndStatus&#45;&gt;ndTask -->
<g id="edge17" class="edge"><title>ndStatus&#45;&gt;ndTask</title>
<path fill="none" stroke="black" d="M1159.18,-331.937C1145.35,-322.972 1129.24,-312.537 1114.5,-302.987"/>
<polygon fill="black" stroke="black" points="1114.14,-302.749 1106.93,-302.843 1104.07,-296.223 1111.28,-296.129 1114.14,-302.749"/>
</g>
<!-- ndParseTaskStatusError -->
<g id="node29" class="node"><title>ndParseTaskStatusError</title>
<g id="a_node29_28"><a xlink:href="https://github.com/meilisearch/meilisearch//blob/master/src/tasks.rs#:~:text=struct%20ParseTaskStatusError" xlink:title="&lt;TABLE&gt;">
<polygon fill="lightblue" stroke="none" points="2924,-419.5 2924,-456.5 3102,-456.5 3102,-419.5 2924,-419.5"/>
<polygon fill="none" stroke="black" points="2924,-419.5 2924,-456.5 3102,-456.5 3102,-419.5 2924,-419.5"/>
<text text-anchor="start" x="2935" y="-435.3" font-family="Arial" font-weight="bold" font-size="14.00">ParseTaskStatusError</text>
<polygon fill="none" stroke="black" points="2923,-419 2923,-458 3103,-458 3103,-419 2923,-419"/>
</a>
</g>
</g>
<!-- ndKind -->
<g id="node30" class="node"><title>ndKind</title>
<g id="a_node30_29"><a xlink:href="https://github.com/meilisearch/meilisearch//blob/master/src/tasks.rs#:~:text=enum%20Kind" xlink:title="&lt;TABLE&gt;">
<polygon fill="yellow" stroke="none" points="989,-419.5 989,-456.5 1044,-456.5 1044,-419.5 989,-419.5"/>
<polygon fill="none" stroke="black" points="989,-419.5 989,-456.5 1044,-456.5 1044,-419.5 989,-419.5"/>
<text text-anchor="start" x="1000" y="-435.3" font-family="Arial" font-weight="bold" font-size="14.00">Kind</text>
<polygon fill="none" stroke="black" points="987.5,-419 987.5,-458 1044.5,-458 1044.5,-419 987.5,-419"/>
</a>
</g>
</g>
<!-- ndKind&#45;&gt;ndKindWithContent -->
<g id="edge18" class="edge"><title>ndKind&#45;&gt;ndKindWithContent</title>
<path fill="none" stroke="black" d="M1016,-414.937C1016,-407.016 1016,-397.949 1016,-389.357"/>
<polygon fill="black" stroke="black" points="1016,-379.223 1020.5,-389.223 1016,-384.223 1016,-389.223 1016,-389.223 1016,-389.223 1016,-384.223 1011.5,-389.223 1016,-379.223 1016,-379.223"/>
</g>
<!-- ndParseTaskKindError -->
<g id="node31" class="node"><title>ndParseTaskKindError</title>
<g id="a_node31_30"><a xlink:href="https://github.com/meilisearch/meilisearch//blob/master/src/tasks.rs#:~:text=struct%20ParseTaskKindError" xlink:title="&lt;TABLE&gt;">
<polygon fill="lightblue" stroke="none" points="3138,-419.5 3138,-456.5 3304,-456.5 3304,-419.5 3138,-419.5"/>
<polygon fill="none" stroke="black" points="3138,-419.5 3138,-456.5 3304,-456.5 3304,-419.5 3138,-419.5"/>
<text text-anchor="start" x="3149" y="-435.3" font-family="Arial" font-weight="bold" font-size="14.00">ParseTaskKindError</text>
<polygon fill="none" stroke="black" points="3137,-419 3137,-458 3305,-458 3305,-419 3137,-419"/>
</a>
</g>
</g>
<!-- ndDetails -->
<g id="node32" class="node"><title>ndDetails</title>
<g id="a_node32_31"><a xlink:href="https://github.com/meilisearch/meilisearch//blob/master/src/tasks.rs#:~:text=enum%20Details" xlink:title="&lt;TABLE&gt;">
<polygon fill="yellow" stroke="none" points="1084,-419.5 1084,-456.5 1154,-456.5 1154,-419.5 1084,-419.5"/>
<polygon fill="none" stroke="black" points="1084,-419.5 1084,-456.5 1154,-456.5 1154,-419.5 1084,-419.5"/>
<text text-anchor="start" x="1095" y="-435.3" font-family="Arial" font-weight="bold" font-size="14.00">Details</text>
<polygon fill="none" stroke="black" points="1083,-419 1083,-458 1155,-458 1155,-419 1083,-419"/>
</a>
</g>
</g>
<!-- ndDetails&#45;&gt;ndTask -->
<g id="edge19" class="edge"><title>ndDetails&#45;&gt;ndTask</title>
<path fill="none" stroke="black" d="M1118.35,-414.654C1117.14,-392.857 1113.69,-359.381 1104,-332 1100.93,-323.332 1096.5,-314.538 1091.82,-306.492"/>
<polygon fill="black" stroke="black" points="1091.69,-306.277 1085.13,-303.273 1085.38,-296.067 1091.94,-299.071 1091.69,-306.277"/>
</g>
<!-- ndDetails&#45;&gt;ndKindWithContent -->
<g id="edge20" class="edge"><title>ndDetails&#45;&gt;ndKindWithContent</title>
<path fill="none" stroke="black" d="M1090.31,-414.937C1078.69,-405.798 1065.12,-395.132 1052.79,-385.432"/>
<polygon fill="black" stroke="black" points="1044.89,-379.223 1055.54,-381.867 1048.82,-382.314 1052.76,-385.405 1052.76,-385.405 1052.76,-385.405 1048.82,-382.314 1049.97,-388.942 1044.89,-379.223 1044.89,-379.223"/>
</g>
<!-- ndMinWordSizeTyposSetting -->
<g id="node33" class="node"><title>ndMinWordSizeTyposSetting</title>
<g id="a_node33_32"><a xlink:href="https://github.com/meilisearch/meilisearch//blob/master/src/settings.rs#:~:text=struct%20MinWordSizeTyposSetting" xlink:title="&lt;TABLE&gt;">
<polygon fill="lightblue" stroke="none" points="3340,-419.5 3340,-456.5 3546,-456.5 3546,-419.5 3340,-419.5"/>
<polygon fill="none" stroke="black" points="3340,-419.5 3340,-456.5 3546,-456.5 3546,-419.5 3340,-419.5"/>
<text text-anchor="start" x="3351" y="-435.3" font-family="Arial" font-weight="bold" font-size="14.00">MinWordSizeTyposSetting</text>
<polygon fill="none" stroke="black" points="3339,-419 3339,-458 3547,-458 3547,-419 3339,-419"/>
</a>
</g>
</g>
<!-- ndTypoSettings -->
<g id="node34" class="node"><title>ndTypoSettings</title>
<g id="a_node34_33"><a xlink:href="https://github.com/meilisearch/meilisearch//blob/master/src/settings.rs#:~:text=struct%20TypoSettings" xlink:title="&lt;TABLE&gt;">
<polygon fill="lightblue" stroke="none" points="3386,-336.5 3386,-373.5 3501,-373.5 3501,-336.5 3386,-336.5"/>
<polygon fill="none" stroke="black" points="3386,-336.5 3386,-373.5 3501,-373.5 3501,-336.5 3386,-336.5"/>
<text text-anchor="start" x="3397" y="-352.3" font-family="Arial" font-weight="bold" font-size="14.00">TypoSettings</text>
<polygon fill="none" stroke="black" points="3384.5,-336 3384.5,-375 3501.5,-375 3501.5,-336 3384.5,-336"/>
</a>
</g>
</g>
<!-- ndMinWordSizeTyposSetting&#45;&gt;ndTypoSettings -->
<g id="edge21" class="edge"><title>ndMinWordSizeTyposSetting&#45;&gt;ndTypoSettings</title>
<path fill="none" stroke="black" d="M3443,-414.937C3443,-407.626 3443,-399.337 3443,-391.348"/>
<polygon fill="black" stroke="black" points="3443,-391.223 3439,-385.223 3443,-379.223 3447,-385.223 3443,-391.223"/>
</g>
<!-- ndSettings -->
<g id="node37" class="node"><title>ndSettings</title>
<g id="a_node37_34"><a xlink:href="https://github.com/meilisearch/meilisearch//blob/master/src/settings.rs#:~:text=struct%20Settings" xlink:title="&lt;TABLE&gt;">
<polygon fill="lightblue" stroke="none" points="3658,-253.5 3658,-290.5 3738,-290.5 3738,-253.5 3658,-253.5"/>
<polygon fill="none" stroke="black" points="3658,-253.5 3658,-290.5 3738,-290.5 3738,-253.5 3658,-253.5"/>
<text text-anchor="start" x="3669" y="-269.3" font-family="Arial" font-weight="bold" font-size="14.00">Settings</text>
<polygon fill="none" stroke="black" points="3657,-253 3657,-292 3739,-292 3739,-253 3657,-253"/>
</a>
</g>
</g>
<!-- ndTypoSettings&#45;&gt;ndSettings -->
<g id="edge22" class="edge"><title>ndTypoSettings&#45;&gt;ndSettings</title>
<path fill="none" stroke="black" d="M3509.67,-333.324C3549.12,-320.792 3598.72,-305.037 3637.11,-292.841"/>
<polygon fill="black" stroke="black" points="3637.21,-292.811 3641.71,-287.182 3648.64,-289.178 3644.14,-294.807 3637.21,-292.811"/>
</g>
<!-- ndFacetingSettings -->
<g id="node35" class="node"><title>ndFacetingSettings</title>
<g id="a_node35_35"><a xlink:href="https://github.com/meilisearch/meilisearch//blob/master/src/settings.rs#:~:text=struct%20FacetingSettings" xlink:title="&lt;TABLE&gt;">
<polygon fill="lightblue" stroke="none" points="3537,-336.5 3537,-373.5 3677,-373.5 3677,-336.5 3537,-336.5"/>
<polygon fill="none" stroke="black" points="3537,-336.5 3537,-373.5 3677,-373.5 3677,-336.5 3537,-336.5"/>
<text text-anchor="start" x="3548" y="-352.3" font-family="Arial" font-weight="bold" font-size="14.00">FacetingSettings</text>
<polygon fill="none" stroke="black" points="3536,-336 3536,-375 3678,-375 3678,-336 3536,-336"/>
</a>
</g>
</g>
<!-- ndFacetingSettings&#45;&gt;ndSettings -->
<g id="edge23" class="edge"><title>ndFacetingSettings&#45;&gt;ndSettings</title>
<path fill="none" stroke="black" d="M3632.35,-331.937C3641.93,-323.407 3653.01,-313.547 3663.3,-304.384"/>
<polygon fill="black" stroke="black" points="3663.51,-304.201 3665.33,-297.224 3672.47,-296.223 3670.65,-303.2 3663.51,-304.201"/>
</g>
<!-- ndPaginationSettings -->
<g id="node36" class="node"><title>ndPaginationSettings</title>
<g id="a_node36_36"><a xlink:href="https://github.com/meilisearch/meilisearch//blob/master/src/settings.rs#:~:text=struct%20PaginationSettings" xlink:title="&lt;TABLE&gt;">
<polygon fill="lightblue" stroke="none" points="3713,-336.5 3713,-373.5 3867,-373.5 3867,-336.5 3713,-336.5"/>
<polygon fill="none" stroke="black" points="3713,-336.5 3713,-373.5 3867,-373.5 3867,-336.5 3713,-336.5"/>
<text text-anchor="start" x="3724" y="-352.3" font-family="Arial" font-weight="bold" font-size="14.00">PaginationSettings</text>
<polygon fill="none" stroke="black" points="3712,-336 3712,-375 3868,-375 3868,-336 3712,-336"/>
</a>
</g>
</g>
<!-- ndPaginationSettings&#45;&gt;ndSettings -->
<g id="edge24" class="edge"><title>ndPaginationSettings&#45;&gt;ndSettings</title>
<path fill="none" stroke="black" d="M3764.37,-331.937C3754.68,-323.407 3743.49,-313.547 3733.08,-304.384"/>
<polygon fill="black" stroke="black" points="3732.82,-304.153 3725.67,-303.19 3723.81,-296.223 3730.96,-297.186 3732.82,-304.153"/>
</g>
<!-- ndFacets -->
<g id="node38" class="node"><title>ndFacets</title>
<g id="a_node38_37"><a xlink:href="https://github.com/meilisearch/meilisearch//blob/master/src/settings.rs#:~:text=struct%20Facets" xlink:title="&lt;TABLE&gt;">
<polygon fill="lightblue" stroke="none" points="3583,-419.5 3583,-456.5 3652,-456.5 3652,-419.5 3583,-419.5"/>
<polygon fill="none" stroke="black" points="3583,-419.5 3583,-456.5 3652,-456.5 3652,-419.5 3583,-419.5"/>
<text text-anchor="start" x="3594" y="-435.3" font-family="Arial" font-weight="bold" font-size="14.00">Facets</text>
<polygon fill="none" stroke="black" points="3581.5,-419 3581.5,-458 3652.5,-458 3652.5,-419 3581.5,-419"/>
</a>
</g>
</g>
<!-- ndRankingRuleView -->
<g id="node39" class="node"><title>ndRankingRuleView</title>
<g id="a_node39_38"><a xlink:href="https://github.com/meilisearch/meilisearch//blob/master/src/settings.rs#:~:text=enum%20RankingRuleView" xlink:title="&lt;TABLE&gt;">
<polygon fill="yellow" stroke="none" points="3904,-336.5 3904,-373.5 4047,-373.5 4047,-336.5 3904,-336.5"/>
<polygon fill="none" stroke="black" points="3904,-336.5 3904,-373.5 4047,-373.5 4047,-336.5 3904,-336.5"/>
<text text-anchor="start" x="3915" y="-352.3" font-family="Arial" font-weight="bold" font-size="14.00">RankingRuleView</text>
<polygon fill="none" stroke="black" points="3902.5,-336 3902.5,-375 4047.5,-375 4047.5,-336 3902.5,-336"/>
</a>
</g>
</g>
<!-- ndRankingRuleView&#45;&gt;ndSettings -->
<g id="edge25" class="edge"><title>ndRankingRuleView&#45;&gt;ndSettings</title>
<path fill="none" stroke="black" d="M3897.84,-331.937C3853.98,-319.113 3799.85,-303.282 3758.98,-291.333"/>
<polygon fill="black" stroke="black" points="3758.81,-291.283 3751.93,-293.438 3747.3,-287.915 3754.18,-285.76 3758.81,-291.283"/>
</g>
</g>
</svg>
