<?xml version="1.0" encoding="UTF-8" standalone="no"?>
<!DOCTYPE svg PUBLIC "-//W3C//DTD SVG 1.1//EN"
 "http://www.w3.org/Graphics/SVG/1.1/DTD/svg11.dtd">
<!-- Generated by graphviz version 2.38.0 (20140413.2041)
 -->
<!-- Title: ml Pages: 1 -->
<svg width="4006pt" height="387pt"
 viewBox="0.00 0.00 4005.50 387.00" xmlns="http://www.w3.org/2000/svg" xmlns:xlink="http://www.w3.org/1999/xlink">
<g id="graph0" class="graph" transform="scale(1 1) rotate(0) translate(4 383)">
<title>ml</title>
<polygon fill="white" stroke="none" points="-4,4 -4,-383 4001.5,-383 4001.5,4 -4,4"/>
<!-- ndDeserrError -->
<g id="node1" class="node"><title>ndDeserrError</title>
<g id="a_node1_0"><a xlink:href="https://github.com/meilisearch/meilisearch//blob/master/src/deserr/mod.rs#:~:text=struct%20DeserrError" xlink:title="&lt;TABLE&gt;">
<polygon fill="lightblue" stroke="none" points="216,-253.5 216,-290.5 323,-290.5 323,-253.5 216,-253.5"/>
<polygon fill="none" stroke="black" points="216,-253.5 216,-290.5 323,-290.5 323,-253.5 216,-253.5"/>
<text text-anchor="start" x="227" y="-269.3" font-family="Arial" font-weight="bold" font-size="14.00">DeserrError</text>
<polygon fill="none" stroke="black" points="214.5,-253 214.5,-292 323.5,-292 323.5,-253 214.5,-253"/>
</a>
</g>
</g>
<!-- ndParam -->
<g id="node2" class="node"><title>ndParam</title>
<g id="a_node2_1"><a xlink:href="https://github.com/meilisearch/meilisearch//blob/master/src/deserr/query_params.rs#:~:text=struct%20Param" xlink:title="&lt;TABLE&gt;">
<polygon fill="lightblue" stroke="none" points="542,-336.5 542,-373.5 610,-373.5 610,-336.5 542,-336.5"/>
<polygon fill="none" stroke="black" points="542,-336.5 542,-373.5 610,-373.5 610,-336.5 542,-336.5"/>
<text text-anchor="start" x="553" y="-352.3" font-family="Arial" font-weight="bold" font-size="14.00">Param</text>
<polygon fill="none" stroke="black" points="541,-336 541,-375 611,-375 611,-336 541,-336"/>
</a>
</g>
</g>
<!-- ndFromQueryParameter -->
<g id="node3" class="node"><title>ndFromQueryParameter</title>
<g id="a_node3_2"><a xlink:href="https://github.com/meilisearch/meilisearch//blob/master/src/deserr/query_params.rs#:~:text=trait%20FromQueryParameter" xlink:title="&lt;TABLE&gt;">
<polygon fill="lightgreen" stroke="none" points="646,-336.5 646,-373.5 820,-373.5 820,-336.5 646,-336.5"/>
<polygon fill="none" stroke="black" points="646,-336.5 646,-373.5 820,-373.5 820,-336.5 646,-336.5"/>
<text text-anchor="start" x="657" y="-352.3" font-family="Arial" font-weight="bold" font-size="14.00">FromQueryParameter</text>
<polygon fill="none" stroke="black" points="645,-336 645,-375 821,-375 821,-336 645,-336"/>
</a>
</g>
</g>
<!-- ndOptionStarOr -->
<g id="node17" class="node"><title>ndOptionStarOr</title>
<g id="a_node17_3"><a xlink:href="https://github.com/meilisearch/meilisearch//blob/master/src/star_or.rs#:~:text=enum%20OptionStarOr" xlink:title="&lt;TABLE&gt;">
<polygon fill="yellow" stroke="none" points="676,-253.5 676,-290.5 791,-290.5 791,-253.5 676,-253.5"/>
<polygon fill="none" stroke="black" points="676,-253.5 676,-290.5 791,-290.5 791,-253.5 676,-253.5"/>
<text text-anchor="start" x="687" y="-269.3" font-family="Arial" font-weight="bold" font-size="14.00">OptionStarOr</text>
<polygon fill="none" stroke="black" points="674.5,-253 674.5,-292 791.5,-292 791.5,-253 674.5,-253"/>
</a>
</g>
</g>
<!-- ndFromQueryParameter&#45;&gt;ndOptionStarOr -->
<g id="edge1" class="edge"><title>ndFromQueryParameter&#45;&gt;ndOptionStarOr</title>
<path fill="none" stroke="black" stroke-dasharray="5,2" d="M733,-331.937C733,-324.016 733,-314.949 733,-306.357"/>
<polygon fill="none" stroke="black" points="736.5,-306.223 733,-296.223 729.5,-306.223 736.5,-306.223"/>
</g>
<!-- ndResponseError -->
<g id="node4" class="node"><title>ndResponseError</title>
<g id="a_node4_4"><a xlink:href="https://github.com/meilisearch/meilisearch//blob/master/src/error.rs#:~:text=struct%20ResponseError" xlink:title="&lt;TABLE&gt;">
<polygon fill="lightblue" stroke="none" points="827,-253.5 827,-290.5 956,-290.5 956,-253.5 827,-253.5"/>
<polygon fill="none" stroke="black" points="827,-253.5 827,-290.5 956,-290.5 956,-253.5 827,-253.5"/>
<text text-anchor="start" x="838" y="-269.3" font-family="Arial" font-weight="bold" font-size="14.00">ResponseError</text>
<polygon fill="none" stroke="black" points="825.5,-253 825.5,-292 956.5,-292 956.5,-253 825.5,-253"/>
</a>
</g>
</g>
<!-- ndTask -->
<g id="node23" class="node"><title>ndTask</title>
<g id="a_node23_5"><a xlink:href="https://github.com/meilisearch/meilisearch//blob/master/src/tasks.rs#:~:text=struct%20Task" xlink:title="&lt;TABLE&gt;">
<polygon fill="lightblue" stroke="none" points="1087,-170.5 1087,-207.5 1143,-207.5 1143,-170.5 1087,-170.5"/>
<polygon fill="none" stroke="black" points="1087,-170.5 1087,-207.5 1143,-207.5 1143,-170.5 1087,-170.5"/>
<text text-anchor="start" x="1098" y="-186.3" font-family="Arial" font-weight="bold" font-size="14.00">Task</text>
<polygon fill="none" stroke="black" points="1086,-170 1086,-209 1144,-209 1144,-170 1086,-170"/>
</a>
</g>
</g>
<!-- ndResponseError&#45;&gt;ndTask -->
<g id="edge2" class="edge"><title>ndResponseError&#45;&gt;ndTask</title>
<path fill="none" stroke="black" d="M953.396,-248.937C989.022,-236.054 1033.04,-220.138 1066.13,-208.17"/>
<polygon fill="black" stroke="black" points="1066.51,-208.034 1070.79,-202.232 1077.8,-203.953 1073.51,-209.755 1066.51,-208.034"/>
</g>
<!-- ndErrorCode -->
<g id="node5" class="node"><title>ndErrorCode</title>
<g id="a_node5_6"><a xlink:href="https://github.com/meilisearch/meilisearch//blob/master/src/error.rs#:~:text=trait%20ErrorCode" xlink:title="&lt;TABLE&gt;">
<polygon fill="lightgreen" stroke="none" points="221,-336.5 221,-373.5 317,-373.5 317,-336.5 221,-336.5"/>
<polygon fill="none" stroke="black" points="221,-336.5 221,-373.5 317,-373.5 317,-336.5 221,-336.5"/>
<text text-anchor="start" x="232" y="-352.3" font-family="Arial" font-weight="bold" font-size="14.00">ErrorCode</text>
<polygon fill="none" stroke="black" points="220,-336 220,-375 318,-375 318,-336 220,-336"/>
</a>
</g>
</g>
<!-- ndErrorCode&#45;&gt;ndDeserrError -->
<g id="edge3" class="edge"><title>ndErrorCode&#45;&gt;ndDeserrError</title>
<path fill="none" stroke="black" stroke-dasharray="5,2" d="M269,-331.937C269,-324.016 269,-314.949 269,-306.357"/>
<polygon fill="none" stroke="black" points="272.5,-306.223 269,-296.223 265.5,-306.223 272.5,-306.223"/>
</g>
<!-- ndDocumentFormatError -->
<g id="node12" class="node"><title>ndDocumentFormatError</title>
<g id="a_node12_7"><a xlink:href="https://github.com/meilisearch/meilisearch//blob/master/src/document_formats.rs#:~:text=enum%20DocumentFormatError" xlink:title="&lt;TABLE&gt;">
<polygon fill="yellow" stroke="none" points="359,-253.5 359,-290.5 539,-290.5 539,-253.5 359,-253.5"/>
<polygon fill="none" stroke="black" points="359,-253.5 359,-290.5 539,-290.5 539,-253.5 359,-253.5"/>
<text text-anchor="start" x="370" y="-269.3" font-family="Arial" font-weight="bold" font-size="14.00">DocumentFormatError</text>
<polygon fill="none" stroke="black" points="358,-253 358,-292 540,-292 540,-253 358,-253"/>
</a>
</g>
</g>
<!-- ndErrorCode&#45;&gt;ndDocumentFormatError -->
<g id="edge4" class="edge"><title>ndErrorCode&#45;&gt;ndDocumentFormatError</title>
<path fill="none" stroke="black" stroke-dasharray="5,2" d="M319.14,-331.937C340.991,-322.104 366.771,-310.503 389.578,-300.24"/>
<polygon fill="none" stroke="black" points="391.134,-303.378 398.817,-296.082 388.261,-296.994 391.134,-303.378"/>
</g>
<!-- ndIndexUidFormatError -->
<g id="node15" class="node"><title>ndIndexUidFormatError</title>
<g id="a_node15_8"><a xlink:href="https://github.com/meilisearch/meilisearch//blob/master/src/index_uid.rs#:~:text=struct%20IndexUidFormatError" xlink:title="&lt;TABLE&gt;">
<polygon fill="lightblue" stroke="none" points="9,-253.5 9,-290.5 179,-290.5 179,-253.5 9,-253.5"/>
<polygon fill="none" stroke="black" points="9,-253.5 9,-290.5 179,-290.5 179,-253.5 9,-253.5"/>
<text text-anchor="start" x="20" y="-269.3" font-family="Arial" font-weight="bold" font-size="14.00">IndexUidFormatError</text>
<polygon fill="none" stroke="black" points="8,-253 8,-292 180,-292 180,-253 8,-253"/>
</a>
</g>
</g>
<!-- ndErrorCode&#45;&gt;ndIndexUidFormatError -->
<g id="edge5" class="edge"><title>ndErrorCode&#45;&gt;ndIndexUidFormatError</title>
<path fill="none" stroke="black" stroke-dasharray="5,2" d="M220.253,-331.937C199.103,-322.148 174.168,-310.606 152.068,-300.377"/>
<polygon fill="none" stroke="black" points="153.334,-297.107 142.789,-296.082 150.394,-303.459 153.334,-297.107"/>
</g>
<!-- ndErrorType -->
<g id="node6" class="node"><title>ndErrorType</title>
<g id="a_node6_9"><a xlink:href="https://github.com/meilisearch/meilisearch//blob/master/src/error.rs#:~:text=enum%20ErrorType" xlink:title="&lt;TABLE&gt;">
<polygon fill="yellow" stroke="none" points="1236,-336.5 1236,-373.5 1330,-373.5 1330,-336.5 1236,-336.5"/>
<polygon fill="none" stroke="black" points="1236,-336.5 1236,-373.5 1330,-373.5 1330,-336.5 1236,-336.5"/>
<text text-anchor="start" x="1247" y="-352.3" font-family="Arial" font-weight="bold" font-size="14.00">ErrorType</text>
<polygon fill="none" stroke="black" points="1235,-336 1235,-375 1331,-375 1331,-336 1235,-336"/>
</a>
</g>
</g>
<!-- ndParseOffsetDateTimeError -->
<g id="node7" class="node"><title>ndParseOffsetDateTimeError</title>
<g id="a_node7_10"><a xlink:href="https://github.com/meilisearch/meilisearch//blob/master/src/error.rs#:~:text=struct%20ParseOffsetDateTimeError" xlink:title="&lt;TABLE&gt;">
<polygon fill="lightblue" stroke="none" points="1367,-336.5 1367,-373.5 1574,-373.5 1574,-336.5 1367,-336.5"/>
<polygon fill="none" stroke="black" points="1367,-336.5 1367,-373.5 1574,-373.5 1574,-336.5 1367,-336.5"/>
<text text-anchor="start" x="1378" y="-352.3" font-family="Arial" font-weight="bold" font-size="14.00">ParseOffsetDateTimeError</text>
<polygon fill="none" stroke="black" points="1365.5,-336 1365.5,-375 1574.5,-375 1574.5,-336 1365.5,-336"/>
</a>
</g>
</g>
<!-- ndInvalidTaskDateError -->
<g id="node8" class="node"><title>ndInvalidTaskDateError</title>
<g id="a_node8_11"><a xlink:href="https://github.com/meilisearch/meilisearch//blob/master/src/error.rs#:~:text=struct%20InvalidTaskDateError" xlink:title="&lt;TABLE&gt;">
<polygon fill="lightblue" stroke="none" points="1610,-336.5 1610,-373.5 1780,-373.5 1780,-336.5 1610,-336.5"/>
<polygon fill="none" stroke="black" points="1610,-336.5 1610,-373.5 1780,-373.5 1780,-336.5 1610,-336.5"/>
<text text-anchor="start" x="1621" y="-352.3" font-family="Arial" font-weight="bold" font-size="14.00">InvalidTaskDateError</text>
<polygon fill="none" stroke="black" points="1609,-336 1609,-375 1781,-375 1781,-336 1609,-336"/>
</a>
</g>
</g>
<!-- ndDeserrParseBoolError -->
<g id="node9" class="node"><title>ndDeserrParseBoolError</title>
<g id="a_node9_12"><a xlink:href="https://github.com/meilisearch/meilisearch//blob/master/src/error.rs#:~:text=struct%20DeserrParseBoolError" xlink:title="&lt;TABLE&gt;">
<polygon fill="lightblue" stroke="none" points="1817,-336.5 1817,-373.5 1996,-373.5 1996,-336.5 1817,-336.5"/>
<polygon fill="none" stroke="black" points="1817,-336.5 1817,-373.5 1996,-373.5 1996,-336.5 1817,-336.5"/>
<text text-anchor="start" x="1828" y="-352.3" font-family="Arial" font-weight="bold" font-size="14.00">DeserrParseBoolError</text>
<polygon fill="none" stroke="black" points="1815.5,-336 1815.5,-375 1996.5,-375 1996.5,-336 1815.5,-336"/>
</a>
</g>
</g>
<!-- ndDeserrParseIntError -->
<g id="node10" class="node"><title>ndDeserrParseIntError</title>
<g id="a_node10_13"><a xlink:href="https://github.com/meilisearch/meilisearch//blob/master/src/error.rs#:~:text=struct%20DeserrParseIntError" xlink:title="&lt;TABLE&gt;">
<polygon fill="lightblue" stroke="none" points="2032,-336.5 2032,-373.5 2196,-373.5 2196,-336.5 2032,-336.5"/>
<polygon fill="none" stroke="black" points="2032,-336.5 2032,-373.5 2196,-373.5 2196,-336.5 2032,-336.5"/>
<text text-anchor="start" x="2043" y="-352.3" font-family="Arial" font-weight="bold" font-size="14.00">DeserrParseIntError</text>
<polygon fill="none" stroke="black" points="2031,-336 2031,-375 2197,-375 2197,-336 2031,-336"/>
</a>
</g>
</g>
<!-- ndPayloadType -->
<g id="node11" class="node"><title>ndPayloadType</title>
<g id="a_node11_14"><a xlink:href="https://github.com/meilisearch/meilisearch//blob/master/src/document_formats.rs#:~:text=enum%20PayloadType" xlink:title="&lt;TABLE&gt;">
<polygon fill="yellow" stroke="none" points="393,-336.5 393,-373.5 506,-373.5 506,-336.5 393,-336.5"/>
<polygon fill="none" stroke="black" points="393,-336.5 393,-373.5 506,-373.5 506,-336.5 393,-336.5"/>
<text text-anchor="start" x="404" y="-352.3" font-family="Arial" font-weight="bold" font-size="14.00">PayloadType</text>
<polygon fill="none" stroke="black" points="391.5,-336 391.5,-375 506.5,-375 506.5,-336 391.5,-336"/>
</a>
</g>
</g>
<!-- ndPayloadType&#45;&gt;ndDocumentFormatError -->
<g id="edge6" class="edge"><title>ndPayloadType&#45;&gt;ndDocumentFormatError</title>
<path fill="none" stroke="black" d="M449,-331.937C449,-324.626 449,-316.337 449,-308.348"/>
<polygon fill="black" stroke="black" points="449,-308.223 445,-302.223 449,-296.223 453,-302.223 449,-308.223"/>
</g>
<!-- ndVersionFileError -->
<g id="node13" class="node"><title>ndVersionFileError</title>
<g id="a_node13_15"><a xlink:href="https://github.com/meilisearch/meilisearch//blob/master/src/versioning.rs#:~:text=enum%20VersionFileError" xlink:title="&lt;TABLE&gt;">
<polygon fill="yellow" stroke="none" points="2233,-336.5 2233,-373.5 2370,-373.5 2370,-336.5 2233,-336.5"/>
<polygon fill="none" stroke="black" points="2233,-336.5 2233,-373.5 2370,-373.5 2370,-336.5 2233,-336.5"/>
<text text-anchor="start" x="2244" y="-352.3" font-family="Arial" font-weight="bold" font-size="14.00">VersionFileError</text>
<polygon fill="none" stroke="black" points="2231.5,-336 2231.5,-375 2370.5,-375 2370.5,-336 2231.5,-336"/>
</a>
</g>
</g>
<!-- ndIndexUid -->
<g id="node14" class="node"><title>ndIndexUid</title>
<g id="a_node14_16"><a xlink:href="https://github.com/meilisearch/meilisearch//blob/master/src/index_uid.rs#:~:text=struct%20IndexUid" xlink:title="&lt;TABLE&gt;">
<polygon fill="lightblue" stroke="none" points="53,-170.5 53,-207.5 136,-207.5 136,-170.5 53,-170.5"/>
<polygon fill="none" stroke="black" points="53,-170.5 53,-207.5 136,-207.5 136,-170.5 53,-170.5"/>
<text text-anchor="start" x="64" y="-186.3" font-family="Arial" font-weight="bold" font-size="14.00">IndexUid</text>
<polygon fill="none" stroke="black" points="51.5,-170 51.5,-209 136.5,-209 136.5,-170 51.5,-170"/>
</a>
</g>
</g>
<!-- ndCreateApiKey -->
<g id="node19" class="node"><title>ndCreateApiKey</title>
<g id="a_node19_17"><a xlink:href="https://github.com/meilisearch/meilisearch//blob/master/src/keys.rs#:~:text=struct%20CreateApiKey" xlink:title="&lt;TABLE&gt;">
<polygon fill="lightblue" stroke="none" points="126,-4.5 126,-41.5 244,-41.5 244,-4.5 126,-4.5"/>
<polygon fill="none" stroke="black" points="126,-4.5 126,-41.5 244,-41.5 244,-4.5 126,-4.5"/>
<text text-anchor="start" x="137" y="-20.3" font-family="Arial" font-weight="bold" font-size="14.00">CreateApiKey</text>
<polygon fill="none" stroke="black" points="125,-4 125,-43 245,-43 245,-4 125,-4"/>
</a>
</g>
</g>
<!-- ndIndexUid&#45;&gt;ndCreateApiKey -->
<g id="edge7" class="edge"><title>ndIndexUid&#45;&gt;ndCreateApiKey</title>
<path fill="none" stroke="black" d="M106.653,-165.697C122.205,-137.668 148.72,-89.8832 166.544,-57.7607"/>
<polygon fill="black" stroke="black" points="166.632,-57.6027 166.045,-50.4155 172.454,-47.1098 173.041,-54.2971 166.632,-57.6027"/>
</g>
<!-- ndKey -->
<g id="node21" class="node"><title>ndKey</title>
<g id="a_node21_18"><a xlink:href="https://github.com/meilisearch/meilisearch//blob/master/src/keys.rs#:~:text=struct%20Key" xlink:title="&lt;TABLE&gt;">
<polygon fill="lightblue" stroke="none" points="191,-87.5 191,-124.5 241,-124.5 241,-87.5 191,-87.5"/>
<polygon fill="none" stroke="black" points="191,-87.5 191,-124.5 241,-124.5 241,-87.5 191,-87.5"/>
<text text-anchor="start" x="202" y="-103.3" font-family="Arial" font-weight="bold" font-size="14.00">Key</text>
<polygon fill="none" stroke="black" points="190,-87 190,-126 242,-126 242,-87 190,-87"/>
</a>
</g>
</g>
<!-- ndIndexUid&#45;&gt;ndKey -->
<g id="edge8" class="edge"><title>ndIndexUid&#45;&gt;ndKey</title>
<path fill="none" stroke="black" d="M127.984,-165.937C141.487,-156.972 157.203,-146.537 171.587,-136.987"/>
<polygon fill="black" stroke="black" points="171.778,-136.86 174.564,-130.209 181.775,-130.223 178.989,-136.874 171.778,-136.86"/>
</g>
<!-- ndIndexUidFormatError&#45;&gt;ndIndexUid -->
<g id="edge9" class="edge"><title>ndIndexUidFormatError&#45;&gt;ndIndexUid</title>
<path fill="none" stroke="black" d="M94,-248.937C94,-241.016 94,-231.949 94,-223.357"/>
<polygon fill="black" stroke="black" points="94,-213.223 98.5001,-223.223 94,-218.223 94.0001,-223.223 94.0001,-223.223 94.0001,-223.223 94,-218.223 89.5001,-223.223 94,-213.223 94,-213.223"/>
</g>
<!-- ndStarOr -->
<g id="node16" class="node"><title>ndStarOr</title>
<g id="a_node16_19"><a xlink:href="https://github.com/meilisearch/meilisearch//blob/master/src/star_or.rs#:~:text=enum%20StarOr" xlink:title="&lt;TABLE&gt;">
<polygon fill="yellow" stroke="none" points="172,-170.5 172,-207.5 240,-207.5 240,-170.5 172,-170.5"/>
<polygon fill="none" stroke="black" points="172,-170.5 172,-207.5 240,-207.5 240,-170.5 172,-170.5"/>
<text text-anchor="start" x="183" y="-186.3" font-family="Arial" font-weight="bold" font-size="14.00">StarOr</text>
<polygon fill="none" stroke="black" points="171,-170 171,-209 241,-209 241,-170 171,-170"/>
</a>
</g>
</g>
<!-- ndStarOr&#45;&gt;ndCreateApiKey -->
<g id="edge10" class="edge"><title>ndStarOr&#45;&gt;ndCreateApiKey</title>
<path fill="none" stroke="black" d="M189.571,-165.784C183.048,-155.408 176.317,-142.632 173,-130 166.884,-106.709 170.134,-79.7183 174.784,-58.8674"/>
<polygon fill="black" stroke="black" points="174.821,-58.719 172.381,-51.9333 177.706,-47.0711 180.146,-53.8568 174.821,-58.719"/>
</g>
<!-- ndStarOr&#45;&gt;ndKey -->
<g id="edge11" class="edge"><title>ndStarOr&#45;&gt;ndKey</title>
<path fill="none" stroke="black" d="M208.786,-165.937C209.688,-158.626 210.711,-150.337 211.698,-142.348"/>
<polygon fill="black" stroke="black" points="211.724,-142.133 208.49,-135.688 213.195,-130.223 216.429,-136.668 211.724,-142.133"/>
</g>
<!-- ndOptionStarOrList -->
<g id="node18" class="node"><title>ndOptionStarOrList</title>
<g id="a_node18_20"><a xlink:href="https://github.com/meilisearch/meilisearch//blob/master/src/star_or.rs#:~:text=enum%20OptionStarOrList" xlink:title="&lt;TABLE&gt;">
<polygon fill="yellow" stroke="none" points="2406,-336.5 2406,-373.5 2546,-373.5 2546,-336.5 2406,-336.5"/>
<polygon fill="none" stroke="black" points="2406,-336.5 2406,-373.5 2546,-373.5 2546,-336.5 2406,-336.5"/>
<text text-anchor="start" x="2417" y="-352.3" font-family="Arial" font-weight="bold" font-size="14.00">OptionStarOrList</text>
<polygon fill="none" stroke="black" points="2405,-336 2405,-375 2547,-375 2547,-336 2405,-336"/>
</a>
</g>
</g>
<!-- ndPatchApiKey -->
<g id="node20" class="node"><title>ndPatchApiKey</title>
<g id="a_node20_21"><a xlink:href="https://github.com/meilisearch/meilisearch//blob/master/src/keys.rs#:~:text=struct%20PatchApiKey" xlink:title="&lt;TABLE&gt;">
<polygon fill="lightblue" stroke="none" points="2582,-336.5 2582,-373.5 2694,-373.5 2694,-336.5 2582,-336.5"/>
<polygon fill="none" stroke="black" points="2582,-336.5 2582,-373.5 2694,-373.5 2694,-336.5 2582,-336.5"/>
<text text-anchor="start" x="2593" y="-352.3" font-family="Arial" font-weight="bold" font-size="14.00">PatchApiKey</text>
<polygon fill="none" stroke="black" points="2581,-336 2581,-375 2695,-375 2695,-336 2581,-336"/>
</a>
</g>
</g>
<!-- ndKey&#45;&gt;ndCreateApiKey -->
<g id="edge12" class="edge"><title>ndKey&#45;&gt;ndCreateApiKey</title>
<path fill="none" stroke="black" d="M207.365,-82.937C204.267,-74.8423 200.71,-65.5497 197.359,-56.7916"/>
<polygon fill="black" stroke="black" points="193.696,-47.2229 201.474,-54.9539 195.484,-51.8926 197.271,-56.5623 197.271,-56.5623 197.271,-56.5623 195.484,-51.8926 193.068,-58.1708 193.696,-47.2229 193.696,-47.2229"/>
</g>
<!-- ndAction -->
<g id="node22" class="node"><title>ndAction</title>
<g id="a_node22_22"><a xlink:href="https://github.com/meilisearch/meilisearch//blob/master/src/keys.rs#:~:text=enum%20Action" xlink:title="&lt;TABLE&gt;">
<polygon fill="yellow" stroke="none" points="277,-170.5 277,-207.5 344,-207.5 344,-170.5 277,-170.5"/>
<polygon fill="none" stroke="black" points="277,-170.5 277,-207.5 344,-207.5 344,-170.5 277,-170.5"/>
<text text-anchor="start" x="288" y="-186.3" font-family="Arial" font-weight="bold" font-size="14.00">Action</text>
<polygon fill="none" stroke="black" points="275.5,-170 275.5,-209 344.5,-209 344.5,-170 275.5,-170"/>
</a>
</g>
</g>
<!-- ndAction&#45;&gt;ndCreateApiKey -->
<g id="edge13" class="edge"><title>ndAction&#45;&gt;ndCreateApiKey</title>
<path fill="none" stroke="black" d="M302.456,-165.831C294.198,-143.254 279.368,-108.39 259,-83 250.768,-72.7384 240.417,-63.1568 230.086,-54.8388"/>
<polygon fill="black" stroke="black" points="229.765,-54.5916 222.57,-54.1 220.257,-47.2699 227.452,-47.7616 229.765,-54.5916"/>
</g>
<!-- ndAction&#45;&gt;ndKey -->
<g id="edge14" class="edge"><title>ndAction&#45;&gt;ndKey</title>
<path fill="none" stroke="black" d="M283.816,-165.937C273.816,-157.32 262.241,-147.346 251.515,-138.104"/>
<polygon fill="black" stroke="black" points="251.46,-138.056 244.304,-137.17 242.37,-130.223 249.526,-131.109 251.46,-138.056"/>
</g>
<!-- ndKindWithContent -->
<g id="node24" class="node"><title>ndKindWithContent</title>
<g id="a_node24_23"><a xlink:href="https://github.com/meilisearch/meilisearch//blob/master/src/tasks.rs#:~:text=enum%20KindWithContent" xlink:title="&lt;TABLE&gt;">
<polygon fill="yellow" stroke="none" points="992,-253.5 992,-290.5 1132,-290.5 1132,-253.5 992,-253.5"/>
<polygon fill="none" stroke="black" points="992,-253.5 992,-290.5 1132,-290.5 1132,-253.5 992,-253.5"/>
<text text-anchor="start" x="1003" y="-269.3" font-family="Arial" font-weight="bold" font-size="14.00">KindWithContent</text>
<polygon fill="none" stroke="black" points="991,-253 991,-292 1133,-292 1133,-253 991,-253"/>
</a>
</g>
</g>
<!-- ndKindWithContent&#45;&gt;ndTask -->
<g id="edge15" class="edge"><title>ndKindWithContent&#45;&gt;ndTask</title>
<path fill="none" stroke="black" d="M1076.76,-248.937C1081.95,-241.016 1087.88,-231.949 1093.5,-223.357"/>
<polygon fill="black" stroke="black" points="1093.56,-223.264 1093.5,-216.054 1100.13,-213.223 1100.19,-220.434 1093.56,-223.264"/>
</g>
<!-- ndIndexSwap -->
<g id="node25" class="node"><title>ndIndexSwap</title>
<g id="a_node25_24"><a xlink:href="https://github.com/meilisearch/meilisearch//blob/master/src/tasks.rs#:~:text=struct%20IndexSwap" xlink:title="&lt;TABLE&gt;">
<polygon fill="lightblue" stroke="none" points="2731,-336.5 2731,-373.5 2830,-373.5 2830,-336.5 2731,-336.5"/>
<polygon fill="none" stroke="black" points="2731,-336.5 2731,-373.5 2830,-373.5 2830,-336.5 2731,-336.5"/>
<text text-anchor="start" x="2742" y="-352.3" font-family="Arial" font-weight="bold" font-size="14.00">IndexSwap</text>
<polygon fill="none" stroke="black" points="2729.5,-336 2729.5,-375 2830.5,-375 2830.5,-336 2729.5,-336"/>
</a>
</g>
</g>
<!-- ndStatus -->
<g id="node26" class="node"><title>ndStatus</title>
<g id="a_node26_25"><a xlink:href="https://github.com/meilisearch/meilisearch//blob/master/src/tasks.rs#:~:text=enum%20Status" xlink:title="&lt;TABLE&gt;">
<polygon fill="yellow" stroke="none" points="1207,-253.5 1207,-290.5 1274,-290.5 1274,-253.5 1207,-253.5"/>
<polygon fill="none" stroke="black" points="1207,-253.5 1207,-290.5 1274,-290.5 1274,-253.5 1207,-253.5"/>
<text text-anchor="start" x="1218" y="-269.3" font-family="Arial" font-weight="bold" font-size="14.00">Status</text>
<polygon fill="none" stroke="black" points="1205.5,-253 1205.5,-292 1274.5,-292 1274.5,-253 1205.5,-253"/>
</a>
</g>
</g>
<!-- ndStatus&#45;&gt;ndTask -->
<g id="edge16" class="edge"><title>ndStatus&#45;&gt;ndTask</title>
<path fill="none" stroke="black" d="M1205.18,-248.937C1191.35,-239.972 1175.24,-229.537 1160.5,-219.987"/>
<polygon fill="black" stroke="black" points="1160.14,-219.749 1152.93,-219.843 1150.07,-213.223 1157.28,-213.129 1160.14,-219.749"/>
</g>
<!-- ndParseTaskStatusError -->
<g id="node27" class="node"><title>ndParseTaskStatusError</title>
<g id="a_node27_26"><a xlink:href="https://github.com/meilisearch/meilisearch//blob/master/src/tasks.rs#:~:text=struct%20ParseTaskStatusError" xlink:title="&lt;TABLE&gt;">
<polygon fill="lightblue" stroke="none" points="2866,-336.5 2866,-373.5 3044,-373.5 3044,-336.5 2866,-336.5"/>
<polygon fill="none" stroke="black" points="2866,-336.5 2866,-373.5 3044,-373.5 3044,-336.5 2866,-336.5"/>
<text text-anchor="start" x="2877" y="-352.3" font-family="Arial" font-weight="bold" font-size="14.00">ParseTaskStatusError</text>
<polygon fill="none" stroke="black" points="2865,-336 2865,-375 3045,-375 3045,-336 2865,-336"/>
</a>
</g>
</g>
<!-- ndKind -->
<g id="node28" class="node"><title>ndKind</title>
<g id="a_node28_27"><a xlink:href="https://github.com/meilisearch/meilisearch//blob/master/src/tasks.rs#:~:text=enum%20Kind" xlink:title="&lt;TABLE&gt;">
<polygon fill="yellow" stroke="none" points="1035,-336.5 1035,-373.5 1090,-373.5 1090,-336.5 1035,-336.5"/>
<polygon fill="none" stroke="black" points="1035,-336.5 1035,-373.5 1090,-373.5 1090,-336.5 1035,-336.5"/>
<text text-anchor="start" x="1046" y="-352.3" font-family="Arial" font-weight="bold" font-size="14.00">Kind</text>
<polygon fill="none" stroke="black" points="1033.5,-336 1033.5,-375 1090.5,-375 1090.5,-336 1033.5,-336"/>
</a>
</g>
</g>
<!-- ndKind&#45;&gt;ndKindWithContent -->
<g id="edge17" class="edge"><title>ndKind&#45;&gt;ndKindWithContent</title>
<path fill="none" stroke="black" d="M1062,-331.937C1062,-324.016 1062,-314.949 1062,-306.357"/>
<polygon fill="black" stroke="black" points="1062,-296.223 1066.5,-306.223 1062,-301.223 1062,-306.223 1062,-306.223 1062,-306.223 1062,-301.223 1057.5,-306.223 1062,-296.223 1062,-296.223"/>
</g>
<!-- ndParseTaskKindError -->
<g id="node29" class="node"><title>ndParseTaskKindError</title>
<g id="a_node29_28"><a xlink:href="https://github.com/meilisearch/meilisearch//blob/master/src/tasks.rs#:~:text=struct%20ParseTaskKindError" xlink:title="&lt;TABLE&gt;">
<polygon fill="lightblue" stroke="none" points="3080,-336.5 3080,-373.5 3246,-373.5 3246,-336.5 3080,-336.5"/>
<polygon fill="none" stroke="black" points="3080,-336.5 3080,-373.5 3246,-373.5 3246,-336.5 3080,-336.5"/>
<text text-anchor="start" x="3091" y="-352.3" font-family="Arial" font-weight="bold" font-size="14.00">ParseTaskKindError</text>
<polygon fill="none" stroke="black" points="3079,-336 3079,-375 3247,-375 3247,-336 3079,-336"/>
</a>
</g>
</g>
<!-- ndDetails -->
<g id="node30" class="node"><title>ndDetails</title>
<g id="a_node30_29"><a xlink:href="https://github.com/meilisearch/meilisearch//blob/master/src/tasks.rs#:~:text=enum%20Details" xlink:title="&lt;TABLE&gt;">
<polygon fill="yellow" stroke="none" points="1130,-336.5 1130,-373.5 1200,-373.5 1200,-336.5 1130,-336.5"/>
<polygon fill="none" stroke="black" points="1130,-336.5 1130,-373.5 1200,-373.5 1200,-336.5 1130,-336.5"/>
<text text-anchor="start" x="1141" y="-352.3" font-family="Arial" font-weight="bold" font-size="14.00">Details</text>
<polygon fill="none" stroke="black" points="1129,-336 1129,-375 1201,-375 1201,-336 1129,-336"/>
</a>
</g>
</g>
<!-- ndDetails&#45;&gt;ndTask -->
<g id="edge18" class="edge"><title>ndDetails&#45;&gt;ndTask</title>
<path fill="none" stroke="black" d="M1164.35,-331.654C1163.14,-309.857 1159.69,-276.381 1150,-249 1146.93,-240.332 1142.5,-231.538 1137.82,-223.492"/>
<polygon fill="black" stroke="black" points="1137.69,-223.277 1131.13,-220.273 1131.38,-213.067 1137.94,-216.071 1137.69,-223.277"/>
</g>
<!-- ndDetails&#45;&gt;ndKindWithContent -->
<g id="edge19" class="edge"><title>ndDetails&#45;&gt;ndKindWithContent</title>
<path fill="none" stroke="black" d="M1136.31,-331.937C1124.69,-322.798 1111.12,-312.132 1098.79,-302.432"/>
<polygon fill="black" stroke="black" points="1090.89,-296.223 1101.54,-298.867 1094.82,-299.314 1098.76,-302.405 1098.76,-302.405 1098.76,-302.405 1094.82,-299.314 1095.97,-305.942 1090.89,-296.223 1090.89,-296.223"/>
</g>
<!-- ndMinWordSizeTyposSetting -->
<g id="node31" class="node"><title>ndMinWordSizeTyposSetting</title>
<g id="a_node31_30"><a xlink:href="https://github.com/meilisearch/meilisearch//blob/master/src/settings.rs#:~:text=struct%20MinWordSizeTyposSetting" xlink:title="&lt;TABLE&gt;">
<polygon fill="lightblue" stroke="none" points="3282,-336.5 3282,-373.5 3488,-373.5 3488,-336.5 3282,-336.5"/>
<polygon fill="none" stroke="black" points="3282,-336.5 3282,-373.5 3488,-373.5 3488,-336.5 3282,-336.5"/>
<text text-anchor="start" x="3293" y="-352.3" font-family="Arial" font-weight="bold" font-size="14.00">MinWordSizeTyposSetting</text>
<polygon fill="none" stroke="black" points="3281,-336 3281,-375 3489,-375 3489,-336 3281,-336"/>
</a>
</g>
</g>
<!-- ndTypoSettings -->
<g id="node32" class="node"><title>ndTypoSettings</title>
<g id="a_node32_31"><a xlink:href="https://github.com/meilisearch/meilisearch//blob/master/src/settings.rs#:~:text=struct%20TypoSettings" xlink:title="&lt;TABLE&gt;">
<polygon fill="lightblue" stroke="none" points="3328,-253.5 3328,-290.5 3443,-290.5 3443,-253.5 3328,-253.5"/>
<polygon fill="none" stroke="black" points="3328,-253.5 3328,-290.5 3443,-290.5 3443,-253.5 3328,-253.5"/>
<text text-anchor="start" x="3339" y="-269.3" font-family="Arial" font-weight="bold" font-size="14.00">TypoSettings</text>
<polygon fill="none" stroke="black" points="3326.5,-253 3326.5,-292 3443.5,-292 3443.5,-253 3326.5,-253"/>
</a>
</g>
</g>
<!-- ndMinWordSizeTyposSetting&#45;&gt;ndTypoSettings -->
<g id="edge20" class="edge"><title>ndMinWordSizeTyposSetting&#45;&gt;ndTypoSettings</title>
<path fill="none" stroke="black" d="M3385,-331.937C3385,-324.626 3385,-316.337 3385,-308.348"/>
<polygon fill="black" stroke="black" points="3385,-308.223 3381,-302.223 3385,-296.223 3389,-302.223 3385,-308.223"/>
</g>
<!-- ndSettings -->
<g id="node35" class="node"><title>ndSettings</title>
<g id="a_node35_32"><a xlink:href="https://github.com/meilisearch/meilisearch//blob/master/src/settings.rs#:~:text=struct%20Settings" xlink:title="&lt;TABLE&gt;">
<polygon fill="lightblue" stroke="none" points="3600,-170.5 3600,-207.5 3680,-207.5 3680,-170.5 3600,-170.5"/>
<polygon fill="none" stroke="black" points="3600,-170.5 3600,-207.5 3680,-207.5 3680,-170.5 3600,-170.5"/>
<text text-anchor="start" x="3611" y="-186.3" font-family="Arial" font-weight="bold" font-size="14.00">Settings</text>
<polygon fill="none" stroke="black" points="3599,-170 3599,-209 3681,-209 3681,-170 3599,-170"/>
</a>
</g>
</g>
<!-- ndTypoSettings&#45;&gt;ndSettings -->
<g id="edge21" class="edge"><title>ndTypoSettings&#45;&gt;ndSettings</title>
<path fill="none" stroke="black" d="M3451.67,-250.324C3491.12,-237.792 3540.72,-222.037 3579.11,-209.841"/>
<polygon fill="black" stroke="black" points="3579.21,-209.811 3583.71,-204.182 3590.64,-206.178 3586.14,-211.807 3579.21,-209.811"/>
</g>
<!-- ndFacetingSettings -->
<g id="node33" class="node"><title>ndFacetingSettings</title>
<g id="a_node33_33"><a xlink:href="https://github.com/meilisearch/meilisearch//blob/master/src/settings.rs#:~:text=struct%20FacetingSettings" xlink:title="&lt;TABLE&gt;">
<polygon fill="lightblue" stroke="none" points="3479,-253.5 3479,-290.5 3619,-290.5 3619,-253.5 3479,-253.5"/>
<polygon fill="none" stroke="black" points="3479,-253.5 3479,-290.5 3619,-290.5 3619,-253.5 3479,-253.5"/>
<text text-anchor="start" x="3490" y="-269.3" font-family="Arial" font-weight="bold" font-size="14.00">FacetingSettings</text>
<polygon fill="none" stroke="black" points="3478,-253 3478,-292 3620,-292 3620,-253 3478,-253"/>
</a>
</g>
</g>
<!-- ndFacetingSettings&#45;&gt;ndSettings -->
<g id="edge22" class="edge"><title>ndFacetingSettings&#45;&gt;ndSettings</title>
<path fill="none" stroke="black" d="M3574.35,-248.937C3583.93,-240.407 3595.01,-230.547 3605.3,-221.384"/>
<polygon fill="black" stroke="black" points="3605.51,-221.201 3607.33,-214.224 3614.47,-213.223 3612.65,-220.2 3605.51,-221.201"/>
</g>
<!-- ndPaginationSettings -->
<g id="node34" class="node"><title>ndPaginationSettings</title>
<g id="a_node34_34"><a xlink:href="https://github.com/meilisearch/meilisearch//blob/master/src/settings.rs#:~:text=struct%20PaginationSettings" xlink:title="&lt;TABLE&gt;">
<polygon fill="lightblue" stroke="none" points="3655,-253.5 3655,-290.5 3809,-290.5 3809,-253.5 3655,-253.5"/>
<polygon fill="none" stroke="black" points="3655,-253.5 3655,-290.5 3809,-290.5 3809,-253.5 3655,-253.5"/>
<text text-anchor="start" x="3666" y="-269.3" font-family="Arial" font-weight="bold" font-size="14.00">PaginationSettings</text>
<polygon fill="none" stroke="black" points="3654,-253 3654,-292 3810,-292 3810,-253 3654,-253"/>
</a>
</g>
</g>
<!-- ndPaginationSettings&#45;&gt;ndSettings -->
<g id="edge23" class="edge"><title>ndPaginationSettings&#45;&gt;ndSettings</title>
<path fill="none" stroke="black" d="M3706.37,-248.937C3696.68,-240.407 3685.49,-230.547 3675.08,-221.384"/>
<polygon fill="black" stroke="black" points="3674.82,-221.153 3667.67,-220.19 3665.81,-213.223 3672.96,-214.186 3674.82,-221.153"/>
</g>
<!-- ndFacets -->
<g id="node36" class="node"><title>ndFacets</title>
<g id="a_node36_35"><a xlink:href="https://github.com/meilisearch/meilisearch//blob/master/src/settings.rs#:~:text=struct%20Facets" xlink:title="&lt;TABLE&gt;">
<polygon fill="lightblue" stroke="none" points="3525,-336.5 3525,-373.5 3594,-373.5 3594,-336.5 3525,-336.5"/>
<polygon fill="none" stroke="black" points="3525,-336.5 3525,-373.5 3594,-373.5 3594,-336.5 3525,-336.5"/>
<text text-anchor="start" x="3536" y="-352.3" font-family="Arial" font-weight="bold" font-size="14.00">Facets</text>
<polygon fill="none" stroke="black" points="3523.5,-336 3523.5,-375 3594.5,-375 3594.5,-336 3523.5,-336"/>
</a>
</g>
</g>
<!-- ndRankingRuleView -->
<g id="node37" class="node"><title>ndRankingRuleView</title>
<g id="a_node37_36"><a xlink:href="https://github.com/meilisearch/meilisearch//blob/master/src/settings.rs#:~:text=enum%20RankingRuleView" xlink:title="&lt;TABLE&gt;">
<polygon fill="yellow" stroke="none" points="3846,-253.5 3846,-290.5 3989,-290.5 3989,-253.5 3846,-253.5"/>
<polygon fill="none" stroke="black" points="3846,-253.5 3846,-290.5 3989,-290.5 3989,-253.5 3846,-253.5"/>
<text text-anchor="start" x="3857" y="-269.3" font-family="Arial" font-weight="bold" font-size="14.00">RankingRuleView</text>
<polygon fill="none" stroke="black" points="3844.5,-253 3844.5,-292 3989.5,-292 3989.5,-253 3844.5,-253"/>
</a>
</g>
</g>
<!-- ndRankingRuleView&#45;&gt;ndSettings -->
<g id="edge24" class="edge"><title>ndRankingRuleView&#45;&gt;ndSettings</title>
<path fill="none" stroke="black" d="M3839.84,-248.937C3795.98,-236.113 3741.85,-220.282 3700.98,-208.333"/>
<polygon fill="black" stroke="black" points="3700.81,-208.283 3693.93,-210.438 3689.3,-204.915 3696.18,-202.76 3700.81,-208.283"/>
</g>
</g>
</svg>
