<?xml version="1.0" encoding="UTF-8" standalone="no"?>
<!DOCTYPE svg PUBLIC "-//W3C//DTD SVG 1.1//EN"
 "http://www.w3.org/Graphics/SVG/1.1/DTD/svg11.dtd">
<!-- Generated by graphviz version 2.38.0 (20140413.2041)
 -->
<!-- Title: ml Pages: 1 -->
<svg width="1054pt" height="557pt"
 viewBox="0.00 0.00 1054.00 557.00" xmlns="http://www.w3.org/2000/svg" xmlns:xlink="http://www.w3.org/1999/xlink">
<g id="graph0" class="graph" transform="scale(1 1) rotate(0) translate(4 553)">
<title>ml</title>
<polygon fill="white" stroke="none" points="-4,4 -4,-553 1050,-553 1050,4 -4,4"/>
<!-- ndAuthController -->
<g id="node1" class="node"><title>ndAuthController</title>
<g id="a_node1_0"><a xlink:href="https://github.com/meilisearch/meilisearch//blob/master/src/lib.rs#:~:text=struct%20AuthController" xlink:title="&lt;TABLE&gt;">
<polygon fill="lightblue" stroke="none" points="354.5,-56.5 354.5,-93.5 561.5,-93.5 561.5,-56.5 354.5,-56.5"/>
<polygon fill="none" stroke="black" points="354.5,-56.5 354.5,-93.5 561.5,-93.5 561.5,-56.5 354.5,-56.5"/>
<text text-anchor="start" x="406.5" y="-72.3" font-family="Arial" font-weight="bold" font-size="14.00">AuthController</text>
<polygon fill="white" stroke="none" points="354.5,-4.5 354.5,-56.5 561.5,-56.5 561.5,-4.5 354.5,-4.5"/>
<polygon fill="none" stroke="black" points="354.5,-4.5 354.5,-56.5 561.5,-56.5 561.5,-4.5 354.5,-4.5"/>
<text text-anchor="start" x="365.5" y="-34.3" font-family="Arial" font-size="14.00">&#45; store: Arc&lt;HeedAuthStore&gt;</text>
<text text-anchor="start" x="365.5" y="-19.3" font-family="Arial" font-size="14.00">&#45; master_key: Option&lt;String&gt;</text>
<polygon fill="none" stroke="black" points="353,-4 353,-95 562,-95 562,-4 353,-4"/>
</a>
</g>
</g>
<!-- ndAuthFilter -->
<g id="node2" class="node"><title>ndAuthFilter</title>
<g id="a_node2_1"><a xlink:href="https://github.com/meilisearch/meilisearch//blob/master/src/lib.rs#:~:text=struct%20AuthFilter" xlink:title="&lt;TABLE&gt;">
<polygon fill="lightblue" stroke="none" points="115.5,-206.5 115.5,-243.5 321.5,-243.5 321.5,-206.5 115.5,-206.5"/>
<polygon fill="none" stroke="black" points="115.5,-206.5 115.5,-243.5 321.5,-243.5 321.5,-206.5 115.5,-206.5"/>
<text text-anchor="start" x="184.5" y="-222.3" font-family="Arial" font-weight="bold" font-size="14.00">AuthFilter</text>
<polygon fill="white" stroke="none" points="115.5,-154.5 115.5,-206.5 321.5,-206.5 321.5,-154.5 115.5,-154.5"/>
<polygon fill="none" stroke="black" points="115.5,-154.5 115.5,-206.5 321.5,-206.5 321.5,-154.5 115.5,-154.5"/>
<text text-anchor="start" x="126.5" y="-184.3" font-family="Arial" font-size="14.00">+ search_rules: SearchRules</text>
<text text-anchor="start" x="126.5" y="-169.3" font-family="Arial" font-size="14.00">+ allow_index_creation: bool</text>
<polygon fill="none" stroke="black" points="114.5,-154 114.5,-245 322.5,-245 322.5,-154 114.5,-154"/>
</a>
</g>
</g>
<!-- ndAuthFilter&#45;&gt;ndAuthController -->
<g id="edge1" class="edge"><title>ndAuthFilter&#45;&gt;ndAuthController</title>
<path fill="none" stroke="black" d="M297.089,-149.834C320.475,-135.352 346.239,-119.398 370.147,-104.593"/>
<polygon fill="black" stroke="black" points="378.864,-99.195 372.731,-108.286 374.613,-101.827 370.362,-104.46 370.362,-104.46 370.362,-104.46 374.613,-101.827 367.993,-100.634 378.864,-99.195 378.864,-99.195"/>
</g>
<!-- ndSearchRules -->
<g id="node3" class="node"><title>ndSearchRules</title>
<g id="a_node3_2"><a xlink:href="https://github.com/meilisearch/meilisearch//blob/master/src/lib.rs#:~:text=enum%20SearchRules" xlink:title="&lt;TABLE&gt;">
<polygon fill="yellow" stroke="none" points="9.5,-356.5 9.5,-393.5 428.5,-393.5 428.5,-356.5 9.5,-356.5"/>
<polygon fill="none" stroke="black" points="9.5,-356.5 9.5,-393.5 428.5,-393.5 428.5,-356.5 9.5,-356.5"/>
<text text-anchor="start" x="174.5" y="-372.3" font-family="Arial" font-weight="bold" font-size="14.00">SearchRules</text>
<polygon fill="white" stroke="none" points="9.5,-304.5 9.5,-356.5 428.5,-356.5 428.5,-304.5 9.5,-304.5"/>
<polygon fill="none" stroke="black" points="9.5,-304.5 9.5,-356.5 428.5,-356.5 428.5,-304.5 9.5,-304.5"/>
<text text-anchor="start" x="20.5" y="-334.3" font-family="Arial" font-size="14.00">Set(HashSet&lt;IndexUidPattern&gt;)</text>
<text text-anchor="start" x="20.5" y="-319.3" font-family="Arial" font-size="14.00">Map(HashMap&lt;IndexUidPattern, Option&lt;IndexSearchRules&gt;&gt;)</text>
<polygon fill="none" stroke="black" points="8,-304 8,-395 429,-395 429,-304 8,-304"/>
</a>
</g>
</g>
<!-- ndSearchRules&#45;&gt;ndAuthFilter -->
<g id="edge2" class="edge"><title>ndSearchRules&#45;&gt;ndAuthFilter</title>
<path fill="none" stroke="black" d="M218.5,-299.629C218.5,-287.315 218.5,-273.946 218.5,-261.132"/>
<polygon fill="black" stroke="black" points="218.5,-261.067 214.5,-255.067 218.5,-249.067 222.5,-255.067 218.5,-261.067"/>
</g>
<!-- ndIndexSearchRules -->
<g id="node4" class="node"><title>ndIndexSearchRules</title>
<g id="a_node4_3"><a xlink:href="https://github.com/meilisearch/meilisearch//blob/master/src/lib.rs#:~:text=struct%20IndexSearchRules" xlink:title="&lt;TABLE&gt;">
<polygon fill="lightblue" stroke="none" points="97.5,-492 97.5,-529 339.5,-529 339.5,-492 97.5,-492"/>
<polygon fill="none" stroke="black" points="97.5,-492 97.5,-529 339.5,-529 339.5,-492 97.5,-492"/>
<text text-anchor="start" x="155" y="-507.8" font-family="Arial" font-weight="bold" font-size="14.00">IndexSearchRules</text>
<polygon fill="white" stroke="none" points="97.5,-455 97.5,-492 339.5,-492 339.5,-455 97.5,-455"/>
<polygon fill="none" stroke="black" points="97.5,-455 97.5,-492 339.5,-492 339.5,-455 97.5,-455"/>
<text text-anchor="start" x="108.5" y="-469.8" font-family="Arial" font-size="14.00">+ filter: Option&lt;serde_json::Value&gt;</text>
<polygon fill="none" stroke="black" points="96.5,-454 96.5,-530 340.5,-530 340.5,-454 96.5,-454"/>
</a>
</g>
</g>
<!-- ndIndexSearchRules&#45;&gt;ndSearchRules -->
<g id="edge3" class="edge"><title>ndIndexSearchRules&#45;&gt;ndSearchRules</title>
<path fill="none" stroke="black" d="M218.5,-449.984C218.5,-437.892 218.5,-424.393 218.5,-411.337"/>
<polygon fill="black" stroke="black" points="218.5,-411.014 214.5,-405.014 218.5,-399.014 222.5,-405.014 218.5,-411.014"/>
</g>
<!-- ndHeedAuthStore -->
<g id="node5" class="node"><title>ndHeedAuthStore</title>
<g id="a_node5_4"><a xlink:href="https://github.com/meilisearch/meilisearch//blob/master/src/store.rs#:~:text=struct%20HeedAuthStore" xlink:title="&lt;TABLE&gt;">
<polygon fill="lightblue" stroke="none" points="358.5,-221.5 358.5,-258.5 1037.5,-258.5 1037.5,-221.5 358.5,-221.5"/>
<polygon fill="none" stroke="black" points="358.5,-221.5 358.5,-258.5 1037.5,-258.5 1037.5,-221.5 358.5,-221.5"/>
<text text-anchor="start" x="645" y="-237.3" font-family="Arial" font-weight="bold" font-size="14.00">HeedAuthStore</text>
<polygon fill="white" stroke="none" points="358.5,-139.5 358.5,-221.5 1037.5,-221.5 1037.5,-139.5 358.5,-139.5"/>
<polygon fill="none" stroke="black" points="358.5,-139.5 358.5,-221.5 1037.5,-221.5 1037.5,-139.5 358.5,-139.5"/>
<text text-anchor="start" x="369.5" y="-199.3" font-family="Arial" font-size="14.00">&#45; env: Arc&lt;Env&gt;</text>
<text text-anchor="start" x="369.5" y="-184.3" font-family="Arial" font-size="14.00">&#45; keys: Database&lt;ByteSlice, SerdeJson&lt;Key&gt;&gt;</text>
<text text-anchor="start" x="369.5" y="-169.3" font-family="Arial" font-size="14.00">&#45; action_keyid_index_expiration: Database&lt;KeyIdActionCodec, SerdeJson&lt;Option&lt;OffsetDateTime&gt;&gt;&gt;</text>
<text text-anchor="start" x="369.5" y="-154.3" font-family="Arial" font-size="14.00">&#45; should_close_on_drop: bool</text>
<polygon fill="none" stroke="black" points="357,-139 357,-260 1038,-260 1038,-139 357,-139"/>
</a>
</g>
</g>
<!-- ndHeedAuthStore&#45;&gt;ndAuthController -->
<g id="edge4" class="edge"><title>ndHeedAuthStore&#45;&gt;ndAuthController</title>
<path fill="none" stroke="black" d="M594.326,-134.876C578.532,-125.136 562.342,-115.152 546.878,-105.617"/>
<polygon fill="black" stroke="black" points="546.517,-105.394 539.311,-105.649 536.303,-99.0952 543.51,-98.8399 546.517,-105.394"/>
</g>
<!-- ndAuthControllerError -->
<g id="node6" class="node"><title>ndAuthControllerError</title>
<g id="a_node6_5"><a xlink:href="https://github.com/meilisearch/meilisearch//blob/master/src/error.rs#:~:text=enum%20AuthControllerError" xlink:title="&lt;TABLE&gt;">
<polygon fill="yellow" stroke="none" points="375.5,-507 375.5,-544 701.5,-544 701.5,-507 375.5,-507"/>
<polygon fill="none" stroke="black" points="375.5,-507 375.5,-544 701.5,-544 701.5,-507 375.5,-507"/>
<text text-anchor="start" x="469" y="-522.8" font-family="Arial" font-weight="bold" font-size="14.00">AuthControllerError</text>
<polygon fill="white" stroke="none" points="375.5,-440 375.5,-507 701.5,-507 701.5,-440 375.5,-440"/>
<polygon fill="none" stroke="black" points="375.5,-440 375.5,-507 701.5,-507 701.5,-440 375.5,-440"/>
<text text-anchor="start" x="386.5" y="-484.8" font-family="Arial" font-size="14.00">ApiKeyNotFound(String)</text>
<text text-anchor="start" x="386.5" y="-469.8" font-family="Arial" font-size="14.00">ApiKeyAlreadyExists(String)</text>
<text text-anchor="start" x="386.5" y="-454.8" font-family="Arial" font-size="14.00">Internal(Box&lt;dyn Error + Send + Sync + &#39;static&gt;)</text>
<polygon fill="none" stroke="black" points="374.5,-439 374.5,-545 702.5,-545 702.5,-439 374.5,-439"/>
</a>
</g>
</g>
</g>
</svg>
