<?xml version="1.0" encoding="UTF-8" standalone="no"?>
<!DOCTYPE svg PUBLIC "-//W3C//DTD SVG 1.1//EN"
 "http://www.w3.org/Graphics/SVG/1.1/DTD/svg11.dtd">
<!-- Generated by graphviz version 2.38.0 (20140413.2041)
 -->
<!-- Title: ml Pages: 1 -->
<svg width="1022pt" height="557pt"
 viewBox="0.00 0.00 1021.50 557.00" xmlns="http://www.w3.org/2000/svg" xmlns:xlink="http://www.w3.org/1999/xlink">
<g id="graph0" class="graph" transform="scale(1 1) rotate(0) translate(4 553)">
<title>ml</title>
<polygon fill="white" stroke="none" points="-4,4 -4,-553 1017.5,-553 1017.5,4 -4,4"/>
<!-- ndAuthController -->
<g id="node1" class="node"><title>ndAuthController</title>
<g id="a_node1_0"><a xlink:href="https://github.com/meilisearch/meilisearch//blob/master/src/lib.rs#:~:text=struct%20AuthController" xlink:title="&lt;TABLE&gt;">
<polygon fill="lightblue" stroke="none" points="322,-56.5 322,-93.5 529,-93.5 529,-56.5 322,-56.5"/>
<polygon fill="none" stroke="black" points="322,-56.5 322,-93.5 529,-93.5 529,-56.5 322,-56.5"/>
<text text-anchor="start" x="374" y="-72.3" font-family="Arial" font-weight="bold" font-size="14.00">AuthController</text>
<polygon fill="white" stroke="none" points="322,-4.5 322,-56.5 529,-56.5 529,-4.5 322,-4.5"/>
<polygon fill="none" stroke="black" points="322,-4.5 322,-56.5 529,-56.5 529,-4.5 322,-4.5"/>
<text text-anchor="start" x="333" y="-34.3" font-family="Arial" font-size="14.00">&#45; store: Arc&lt;HeedAuthStore&gt;</text>
<text text-anchor="start" x="333" y="-19.3" font-family="Arial" font-size="14.00">&#45; master_key: Option&lt;String&gt;</text>
<polygon fill="none" stroke="black" points="320.5,-4 320.5,-95 529.5,-95 529.5,-4 320.5,-4"/>
</a>
</g>
</g>
<!-- ndAuthFilter -->
<g id="node2" class="node"><title>ndAuthFilter</title>
<g id="a_node2_1"><a xlink:href="https://github.com/meilisearch/meilisearch//blob/master/src/lib.rs#:~:text=struct%20AuthFilter" xlink:title="&lt;TABLE&gt;">
<polygon fill="lightblue" stroke="none" points="83,-206.5 83,-243.5 289,-243.5 289,-206.5 83,-206.5"/>
<polygon fill="none" stroke="black" points="83,-206.5 83,-243.5 289,-243.5 289,-206.5 83,-206.5"/>
<text text-anchor="start" x="152" y="-222.3" font-family="Arial" font-weight="bold" font-size="14.00">AuthFilter</text>
<polygon fill="white" stroke="none" points="83,-154.5 83,-206.5 289,-206.5 289,-154.5 83,-154.5"/>
<polygon fill="none" stroke="black" points="83,-154.5 83,-206.5 289,-206.5 289,-154.5 83,-154.5"/>
<text text-anchor="start" x="94" y="-184.3" font-family="Arial" font-size="14.00">+ search_rules: SearchRules</text>
<text text-anchor="start" x="94" y="-169.3" font-family="Arial" font-size="14.00">+ allow_index_creation: bool</text>
<polygon fill="none" stroke="black" points="82,-154 82,-245 290,-245 290,-154 82,-154"/>
</a>
</g>
</g>
<!-- ndAuthFilter&#45;&gt;ndAuthController -->
<g id="edge1" class="edge"><title>ndAuthFilter&#45;&gt;ndAuthController</title>
<path fill="none" stroke="black" d="M264.589,-149.834C287.975,-135.352 313.739,-119.398 337.647,-104.593"/>
<polygon fill="black" stroke="black" points="346.364,-99.195 340.231,-108.286 342.113,-101.827 337.862,-104.46 337.862,-104.46 337.862,-104.46 342.113,-101.827 335.493,-100.634 346.364,-99.195 346.364,-99.195"/>
</g>
<!-- ndSearchRules -->
<g id="node3" class="node"><title>ndSearchRules</title>
<g id="a_node3_2"><a xlink:href="https://github.com/meilisearch/meilisearch//blob/master/src/lib.rs#:~:text=enum%20SearchRules" xlink:title="&lt;TABLE&gt;">
<polygon fill="yellow" stroke="none" points="9,-356.5 9,-393.5 363,-393.5 363,-356.5 9,-356.5"/>
<polygon fill="none" stroke="black" points="9,-356.5 9,-393.5 363,-393.5 363,-356.5 9,-356.5"/>
<text text-anchor="start" x="141.5" y="-372.3" font-family="Arial" font-weight="bold" font-size="14.00">SearchRules</text>
<polygon fill="white" stroke="none" points="9,-304.5 9,-356.5 363,-356.5 363,-304.5 9,-304.5"/>
<polygon fill="none" stroke="black" points="9,-304.5 9,-356.5 363,-356.5 363,-304.5 9,-304.5"/>
<text text-anchor="start" x="20" y="-334.3" font-family="Arial" font-size="14.00">Set(HashSet&lt;String&gt;)</text>
<text text-anchor="start" x="20" y="-319.3" font-family="Arial" font-size="14.00">Map(HashMap&lt;String, Option&lt;IndexSearchRules&gt;&gt;)</text>
<polygon fill="none" stroke="black" points="8,-304 8,-395 364,-395 364,-304 8,-304"/>
</a>
</g>
</g>
<!-- ndSearchRules&#45;&gt;ndAuthFilter -->
<g id="edge2" class="edge"><title>ndSearchRules&#45;&gt;ndAuthFilter</title>
<path fill="none" stroke="black" d="M186,-299.629C186,-287.315 186,-273.946 186,-261.132"/>
<polygon fill="black" stroke="black" points="186,-261.067 182,-255.067 186,-249.067 190,-255.067 186,-261.067"/>
</g>
<!-- ndIndexSearchRules -->
<g id="node4" class="node"><title>ndIndexSearchRules</title>
<g id="a_node4_3"><a xlink:href="https://github.com/meilisearch/meilisearch//blob/master/src/lib.rs#:~:text=struct%20IndexSearchRules" xlink:title="&lt;TABLE&gt;">
<polygon fill="lightblue" stroke="none" points="65,-492 65,-529 307,-529 307,-492 65,-492"/>
<polygon fill="none" stroke="black" points="65,-492 65,-529 307,-529 307,-492 65,-492"/>
<text text-anchor="start" x="122.5" y="-507.8" font-family="Arial" font-weight="bold" font-size="14.00">IndexSearchRules</text>
<polygon fill="white" stroke="none" points="65,-455 65,-492 307,-492 307,-455 65,-455"/>
<polygon fill="none" stroke="black" points="65,-455 65,-492 307,-492 307,-455 65,-455"/>
<text text-anchor="start" x="76" y="-469.8" font-family="Arial" font-size="14.00">+ filter: Option&lt;serde_json::Value&gt;</text>
<polygon fill="none" stroke="black" points="64,-454 64,-530 308,-530 308,-454 64,-454"/>
</a>
</g>
</g>
<!-- ndIndexSearchRules&#45;&gt;ndSearchRules -->
<g id="edge3" class="edge"><title>ndIndexSearchRules&#45;&gt;ndSearchRules</title>
<path fill="none" stroke="black" d="M186,-449.984C186,-437.892 186,-424.393 186,-411.337"/>
<polygon fill="black" stroke="black" points="186,-411.014 182,-405.014 186,-399.014 190,-405.014 186,-411.014"/>
</g>
<!-- ndHeedAuthStore -->
<g id="node5" class="node"><title>ndHeedAuthStore</title>
<g id="a_node5_4"><a xlink:href="https://github.com/meilisearch/meilisearch//blob/master/src/store.rs#:~:text=struct%20HeedAuthStore" xlink:title="&lt;TABLE&gt;">
<polygon fill="lightblue" stroke="none" points="326,-221.5 326,-258.5 1005,-258.5 1005,-221.5 326,-221.5"/>
<polygon fill="none" stroke="black" points="326,-221.5 326,-258.5 1005,-258.5 1005,-221.5 326,-221.5"/>
<text text-anchor="start" x="612.5" y="-237.3" font-family="Arial" font-weight="bold" font-size="14.00">HeedAuthStore</text>
<polygon fill="white" stroke="none" points="326,-139.5 326,-221.5 1005,-221.5 1005,-139.5 326,-139.5"/>
<polygon fill="none" stroke="black" points="326,-139.5 326,-221.5 1005,-221.5 1005,-139.5 326,-139.5"/>
<text text-anchor="start" x="337" y="-199.3" font-family="Arial" font-size="14.00">&#45; env: Arc&lt;Env&gt;</text>
<text text-anchor="start" x="337" y="-184.3" font-family="Arial" font-size="14.00">&#45; keys: Database&lt;ByteSlice, SerdeJson&lt;Key&gt;&gt;</text>
<text text-anchor="start" x="337" y="-169.3" font-family="Arial" font-size="14.00">&#45; action_keyid_index_expiration: Database&lt;KeyIdActionCodec, SerdeJson&lt;Option&lt;OffsetDateTime&gt;&gt;&gt;</text>
<text text-anchor="start" x="337" y="-154.3" font-family="Arial" font-size="14.00">&#45; should_close_on_drop: bool</text>
<polygon fill="none" stroke="black" points="324.5,-139 324.5,-260 1005.5,-260 1005.5,-139 324.5,-139"/>
</a>
</g>
</g>
<!-- ndHeedAuthStore&#45;&gt;ndAuthController -->
<g id="edge4" class="edge"><title>ndHeedAuthStore&#45;&gt;ndAuthController</title>
<path fill="none" stroke="black" d="M561.826,-134.876C546.032,-125.136 529.842,-115.152 514.378,-105.617"/>
<polygon fill="black" stroke="black" points="514.017,-105.394 506.811,-105.649 503.803,-99.0952 511.01,-98.8399 514.017,-105.394"/>
</g>
<!-- ndAuthControllerError -->
<g id="node6" class="node"><title>ndAuthControllerError</title>
<g id="a_node6_5"><a xlink:href="https://github.com/meilisearch/meilisearch//blob/master/src/error.rs#:~:text=enum%20AuthControllerError" xlink:title="&lt;TABLE&gt;">
<polygon fill="yellow" stroke="none" points="343,-507 343,-544 669,-544 669,-507 343,-507"/>
<polygon fill="none" stroke="black" points="343,-507 343,-544 669,-544 669,-507 343,-507"/>
<text text-anchor="start" x="436.5" y="-522.8" font-family="Arial" font-weight="bold" font-size="14.00">AuthControllerError</text>
<polygon fill="white" stroke="none" points="343,-440 343,-507 669,-507 669,-440 343,-440"/>
<polygon fill="none" stroke="black" points="343,-440 343,-507 669,-507 669,-440 343,-440"/>
<text text-anchor="start" x="354" y="-484.8" font-family="Arial" font-size="14.00">ApiKeyNotFound(String)</text>
<text text-anchor="start" x="354" y="-469.8" font-family="Arial" font-size="14.00">ApiKeyAlreadyExists(String)</text>
<text text-anchor="start" x="354" y="-454.8" font-family="Arial" font-size="14.00">Internal(Box&lt;dyn Error + Send + Sync + &#39;static&gt;)</text>
<polygon fill="none" stroke="black" points="342,-439 342,-545 670,-545 670,-439 342,-439"/>
</a>
</g>
</g>
</g>
</svg>
