<?xml version="1.0" encoding="UTF-8" standalone="no"?>
<!DOCTYPE svg PUBLIC "-//W3C//DTD SVG 1.1//EN"
 "http://www.w3.org/Graphics/SVG/1.1/DTD/svg11.dtd">
<!-- Generated by graphviz version 2.38.0 (20140413.2041)
 -->
<!-- Title: ml Pages: 1 -->
<svg width="372pt" height="304pt"
 viewBox="0.00 0.00 372.00 304.00" xmlns="http://www.w3.org/2000/svg" xmlns:xlink="http://www.w3.org/1999/xlink">
<g id="graph0" class="graph" transform="scale(1 1) rotate(0) translate(4 300)">
<title>ml</title>
<polygon fill="white" stroke="none" points="-4,4 -4,-300 368,-300 368,4 -4,4"/>
<!-- ndAuthController -->
<g id="node1" class="node"><title>ndAuthController</title>
<g id="a_node1_0"><a xlink:href="https://github.com/meilisearch/meilisearch//blob/master/src/lib.rs#:~:text=struct%20AuthController" xlink:title="&lt;TABLE&gt;">
<polygon fill="lightblue" stroke="none" points="93.5,-4.5 93.5,-41.5 218.5,-41.5 218.5,-4.5 93.5,-4.5"/>
<polygon fill="none" stroke="black" points="93.5,-4.5 93.5,-41.5 218.5,-41.5 218.5,-4.5 93.5,-4.5"/>
<text text-anchor="start" x="104.5" y="-20.3" font-family="Arial" font-weight="bold" font-size="14.00">AuthController</text>
<polygon fill="none" stroke="black" points="92,-4 92,-43 219,-43 219,-4 92,-4"/>
</a>
</g>
</g>
<!-- ndAuthFilter -->
<g id="node2" class="node"><title>ndAuthFilter</title>
<g id="a_node2_1"><a xlink:href="https://github.com/meilisearch/meilisearch//blob/master/src/lib.rs#:~:text=struct%20AuthFilter" xlink:title="&lt;TABLE&gt;">
<polygon fill="lightblue" stroke="none" points="38.5,-87.5 38.5,-124.5 128.5,-124.5 128.5,-87.5 38.5,-87.5"/>
<polygon fill="none" stroke="black" points="38.5,-87.5 38.5,-124.5 128.5,-124.5 128.5,-87.5 38.5,-87.5"/>
<text text-anchor="start" x="49.5" y="-103.3" font-family="Arial" font-weight="bold" font-size="14.00">AuthFilter</text>
<polygon fill="none" stroke="black" points="37.5,-87 37.5,-126 129.5,-126 129.5,-87 37.5,-87"/>
</a>
</g>
</g>
<!-- ndAuthFilter&#45;&gt;ndAuthController -->
<g id="edge1" class="edge"><title>ndAuthFilter&#45;&gt;ndAuthController</title>
<path fill="none" stroke="black" d="M103.556,-82.937C111.293,-74.2331 120.261,-64.144 128.546,-54.8238"/>
<polygon fill="black" stroke="black" points="135.302,-47.2229 132.022,-57.6867 131.98,-50.96 128.658,-54.6971 128.658,-54.6971 128.658,-54.6971 131.98,-50.96 125.295,-51.7074 135.302,-47.2229 135.302,-47.2229"/>
</g>
<!-- ndSearchRules -->
<g id="node3" class="node"><title>ndSearchRules</title>
<g id="a_node3_2"><a xlink:href="https://github.com/meilisearch/meilisearch//blob/master/src/lib.rs#:~:text=enum%20SearchRules" xlink:title="&lt;TABLE&gt;">
<polygon fill="yellow" stroke="none" points="28.5,-170.5 28.5,-207.5 139.5,-207.5 139.5,-170.5 28.5,-170.5"/>
<polygon fill="none" stroke="black" points="28.5,-170.5 28.5,-207.5 139.5,-207.5 139.5,-170.5 28.5,-170.5"/>
<text text-anchor="start" x="39.5" y="-186.3" font-family="Arial" font-weight="bold" font-size="14.00">SearchRules</text>
<polygon fill="none" stroke="black" points="27,-170 27,-209 140,-209 140,-170 27,-170"/>
</a>
</g>
</g>
<!-- ndSearchRules&#45;&gt;ndAuthFilter -->
<g id="edge2" class="edge"><title>ndSearchRules&#45;&gt;ndAuthFilter</title>
<path fill="none" stroke="black" d="M83.5,-165.937C83.5,-158.626 83.5,-150.337 83.5,-142.348"/>
<polygon fill="black" stroke="black" points="83.5001,-142.223 79.5,-136.223 83.5,-130.223 87.5,-136.223 83.5001,-142.223"/>
</g>
<!-- ndIndexSearchRules -->
<g id="node4" class="node"><title>ndIndexSearchRules</title>
<g id="a_node4_3"><a xlink:href="https://github.com/meilisearch/meilisearch//blob/master/src/lib.rs#:~:text=struct%20IndexSearchRules" xlink:title="&lt;TABLE&gt;">
<polygon fill="lightblue" stroke="none" points="9.5,-253.5 9.5,-290.5 158.5,-290.5 158.5,-253.5 9.5,-253.5"/>
<polygon fill="none" stroke="black" points="9.5,-253.5 9.5,-290.5 158.5,-290.5 158.5,-253.5 9.5,-253.5"/>
<text text-anchor="start" x="20.5" y="-269.3" font-family="Arial" font-weight="bold" font-size="14.00">IndexSearchRules</text>
<polygon fill="none" stroke="black" points="8,-253 8,-292 159,-292 159,-253 8,-253"/>
</a>
</g>
</g>
<!-- ndIndexSearchRules&#45;&gt;ndSearchRules -->
<g id="edge3" class="edge"><title>ndIndexSearchRules&#45;&gt;ndSearchRules</title>
<path fill="none" stroke="black" d="M83.5,-248.937C83.5,-241.626 83.5,-233.337 83.5,-225.348"/>
<polygon fill="black" stroke="black" points="83.5001,-225.223 79.5,-219.223 83.5,-213.223 87.5,-219.223 83.5001,-225.223"/>
</g>
<!-- ndHeedAuthStore -->
<g id="node5" class="node"><title>ndHeedAuthStore</title>
<g id="a_node5_4"><a xlink:href="https://github.com/meilisearch/meilisearch//blob/master/src/store.rs#:~:text=struct%20HeedAuthStore" xlink:title="&lt;TABLE&gt;">
<polygon fill="lightblue" stroke="none" points="164.5,-87.5 164.5,-124.5 292.5,-124.5 292.5,-87.5 164.5,-87.5"/>
<polygon fill="none" stroke="black" points="164.5,-87.5 164.5,-124.5 292.5,-124.5 292.5,-87.5 164.5,-87.5"/>
<text text-anchor="start" x="175.5" y="-103.3" font-family="Arial" font-weight="bold" font-size="14.00">HeedAuthStore</text>
<polygon fill="none" stroke="black" points="163.5,-87 163.5,-126 293.5,-126 293.5,-87 163.5,-87"/>
</a>
</g>
</g>
<!-- ndHeedAuthStore&#45;&gt;ndAuthController -->
<g id="edge4" class="edge"><title>ndHeedAuthStore&#45;&gt;ndAuthController</title>
<path fill="none" stroke="black" d="M208.165,-82.937C200.713,-74.6683 192.135,-65.1495 184.094,-56.2273"/>
<polygon fill="black" stroke="black" points="184.012,-56.137 177.024,-54.3579 175.979,-47.2229 182.967,-49.0021 184.012,-56.137"/>
</g>
<!-- ndAuthControllerError -->
<g id="node6" class="node"><title>ndAuthControllerError</title>
<g id="a_node6_5"><a xlink:href="https://github.com/meilisearch/meilisearch//blob/master/src/error.rs#:~:text=enum%20AuthControllerError" xlink:title="&lt;TABLE&gt;">
<polygon fill="yellow" stroke="none" points="194.5,-253.5 194.5,-290.5 355.5,-290.5 355.5,-253.5 194.5,-253.5"/>
<polygon fill="none" stroke="black" points="194.5,-253.5 194.5,-290.5 355.5,-290.5 355.5,-253.5 194.5,-253.5"/>
<text text-anchor="start" x="205.5" y="-269.3" font-family="Arial" font-weight="bold" font-size="14.00">AuthControllerError</text>
<polygon fill="none" stroke="black" points="193,-253 193,-292 356,-292 356,-253 193,-253"/>
</a>
</g>
</g>
</g>
</svg>
